SplineFontDB: 3.0
FontName: OCRAStd
FullName: OCR A Std
FamilyName: OCR A Std
Weight: Medium
Copyright: Copyright 1988, 2002, 2006 Adobe Systems Incorporated. All rights reserved.
Version: 002.000
ItalicAngle: 0
UnderlinePosition: -100
UnderlineWidth: 100
Ascent: 778
Descent: 222
InvalidEm: 0
sfntRevision: 0x00020147
LayerCount: 2
Layer: 0 0 "Back" 1
Layer: 1 0 "Fore" 0
XUID: [1021 1006 1323337908 12558250]
UniqueID: 19061
BaseHoriz: 2 'ideo' 'romn'
BaseScript: 'latn' 1  -163 0
StyleMap: 0x0040
FSType: 8
OS2Version: 2
OS2_WeightWidthSlopeOnly: 0
OS2_UseTypoMetrics: 0
CreationTime: 1136540259
ModificationTime: 1136540259
PfmFamily: 17
TTFWeight: 400
TTFWidth: 5
LineGap: 200
VLineGap: 0
Panose: 2 15 6 9 0 1 4 6 3 7
OS2TypoAscent: 778
OS2TypoAOffset: 0
OS2TypoDescent: -222
OS2TypoDOffset: 0
OS2TypoLinegap: 200
OS2WinAscent: 823
OS2WinAOffset: 0
OS2WinDescent: 239
OS2WinDOffset: 0
HheadAscent: 778
HheadAOffset: 0
HheadDescent: -222
HheadDOffset: 0
OS2SubXSize: 650
OS2SubYSize: 600
OS2SubXOff: 0
OS2SubYOff: 75
OS2SupXSize: 650
OS2SupYSize: 600
OS2SupXOff: 0
OS2SupYOff: 350
OS2StrikeYSize: 100
OS2StrikeYPos: 323
OS2CapHeight: 778
OS2XHeight: 539
OS2Vendor: 'ADBE'
OS2CodePages: 00000001.00000000
OS2UnicodeRanges: 800000af.5000224a.00000000.00000000
Lookup: 1 0 0 "'aalt' Access All Alternates in Latin lookup 0" { "'aalt' Access All Alternates in Latin lookup 0 subtable"  } ['aalt' ('DFLT' <'dflt' > 'latn' <'dflt' > ) ]
Lookup: 3 0 0 "'aalt' Access All Alternates in Latin lookup 1" { "'aalt' Access All Alternates in Latin lookup 1 subtable"  } ['aalt' ('DFLT' <'dflt' > 'latn' <'dflt' > ) ]
Lookup: 1 0 0 "'salt' Stylistic Alternatives in Latin lookup 2" { "'salt' Stylistic Alternatives in Latin lookup 2 subtable"  } ['salt' ('DFLT' <'dflt' > 'latn' <'dflt' > ) ]
Lookup: 4 0 0 "'frac' Diagonal Fractions in Latin lookup 3" { "'frac' Diagonal Fractions in Latin lookup 3 subtable"  } ['frac' ('DFLT' <'dflt' > 'latn' <'dflt' > ) ]

StartChar: .notdef
Encoding: 65536 -1 0
Width: 720
Flags: MW
HStem: 0 50<190 530 190 610> 650 50<190 530 190 190>
VStem: 110 50<95 605 95 700> 560 50<95 605 605 605>
LayerCount: 2
Fore
SplineSet
610 0 m 1
 110 0 l 1
 110 700 l 1
 610 700 l 1
 610 0 l 1
530 650 m 1
 190 650 l 1
 360 395 l 1
 530 650 l 1
560 95 m 1
 560 605 l 1
 390 350 l 1
 560 95 l 1
190 50 m 1
 530 50 l 1
 360 305 l 1
 190 50 l 1
160 605 m 1
 160 95 l 1
 330 350 l 1
 160 605 l 1
EndSplineSet
EndChar

StartChar: exclam
Encoding: 33 33 2
Width: 720
Flags: MW
HStem: 0 140<327 372 346 372> 758 20G<334 385 385 406.5>
VStem: 290 138<57 83 38 102> 299 120
LayerCount: 2
Fore
SplineSet
334 778 m 2xd0
 385 778 l 2xd0
 428 778 430 752 428 704 c 2
 410 361 l 2
 408 326 400 297 359 297 c 0xe0
 318 297 310 326 308 361 c 2
 290 704 l 2
 287 752 291 778 334 778 c 2xd0
346 140 m 2xe0
 372 140 l 2
 410 140 428 121 428 83 c 2
 428 57 l 2
 428 19 410 0 372 0 c 2
 346 0 l 2
 308 0 290 19 290 57 c 2
 290 83 l 2
 290 121 308 140 346 140 c 2xe0
EndSplineSet
EndChar

StartChar: quotedbl
Encoding: 34 34 3
Width: 720
Flags: MW
HStem: 678 100<292 428 292 292>
VStem: 113 494<728 778 728 778>
LayerCount: 2
Fore
SplineSet
607 778 m 1
 607 728 l 1
 564 515 l 2
 557 481 553 455 508 455 c 0
 473 455 468 485 462 514 c 2
 428 678 l 1
 292 678 l 1
 258 514 l 2
 252 485 247 455 212 455 c 0
 167 455 163 481 156 515 c 2
 113 728 l 1
 113 778 l 1
 607 778 l 1
EndSplineSet
EndChar

StartChar: numbersign
Encoding: 35 35 4
Width: 720
Flags: MW
HStem: 263 96<169.5 217 187 217 313 407 503 533> 470 96<169.5 217 187 217 313 407 503 533> 709 20G<243 287 433 477>
VStem: 217 96<166 263 359 470 566 663> 407 96<166 263 359 470 566 663>
LayerCount: 2
Fore
SplineSet
313 566 m 1
 407 566 l 1
 407 663 l 2
 407 695 411 729 455 729 c 0
 499 729 503 695 503 663 c 2
 503 566 l 1
 533 566 l 2
 568 566 599 559 599 518 c 0
 599 477 568 470 533 470 c 2
 503 470 l 1
 503 359 l 1
 533 359 l 2
 568 359 599 352 599 311 c 0
 599 270 568 263 533 263 c 2
 503 263 l 1
 503 166 l 2
 503 134 499 100 455 100 c 0
 411 100 407 134 407 166 c 2
 407 263 l 1
 313 263 l 1
 313 166 l 2
 313 134 309 100 265 100 c 0
 221 100 217 134 217 166 c 2
 217 263 l 1
 187 263 l 2
 152 263 121 270 121 311 c 0
 121 352 152 359 187 359 c 2
 217 359 l 1
 217 470 l 1
 187 470 l 2
 152 470 121 477 121 518 c 0
 121 559 152 566 187 566 c 2
 217 566 l 1
 217 663 l 2
 217 695 221 729 265 729 c 0
 309 729 313 695 313 663 c 2
 313 566 l 1
407 470 m 1
 313 470 l 1
 313 359 l 1
 407 359 l 1
 407 470 l 1
EndSplineSet
EndChar

StartChar: dollar
Encoding: 36 36 5
Width: 720
Flags: MW
HStem: 0 21G<342 378> 170 100<150 507 163 310 410 507 163 557 410 410> 339 100<149.5 557 213 507> 508 100<213 310 410 557 213 213> 758 20G<342 378>
VStem: 113 100<439 508 439 558 439 571.5> 310 100<50 170 608 728> 507 100<270 339 339 339>
LayerCount: 2
Fore
SplineSet
310 608 m 1
 310 728 l 2
 310 760 324 778 360 778 c 0
 396 778 410 760 410 728 c 2
 410 608 l 1
 557 608 l 2
 583 608 607 594 607 558 c 0
 607 522 583 508 557 508 c 2
 213 508 l 1
 213 439 l 1
 557 439 l 2
 584 439 607 416 607 389 c 2
 607 220 l 2
 607 193 584 170 557 170 c 2
 410 170 l 1
 410 50 l 2
 410 18 396 0 360 0 c 0
 324 0 310 18 310 50 c 2
 310 170 l 1
 163 170 l 2
 137 170 113 184 113 220 c 0
 113 256 137 270 163 270 c 2
 507 270 l 1
 507 339 l 1
 163 339 l 2
 136 339 113 362 113 389 c 2
 113 558 l 2
 113 585 136 608 163 608 c 2
 310 608 l 1
EndSplineSet
EndChar

StartChar: percent
Encoding: 37 37 6
Width: 720
Flags: MW
HStem: 0 184<461 544 472 544> 594 184<165 248 176 248> 676 20G
VStem: 113 198<658 714 648.5 723.5> 409 198<64 120 54.5 129.5>
LayerCount: 2
Fore
SplineSet
594 611 m 2xb8
 197 93 l 2
 182 76 144 74 126 93 c 0
 109 111 110 146 126 164 c 2
 523 682 l 2
 537 700 576 701 594 682 c 0
 611 664 610 629 594 611 c 2xb8
544 0 m 2
 472 0 l 2
 450 0 434 0 420 19 c 0
 409 34 409 45 409 64 c 2
 409 120 l 2
 409 139 409 150 420 165 c 0
 434 184 450 184 472 184 c 2
 544 184 l 2
 566 184 582 184 596 165 c 0
 607 150 607 139 607 120 c 2
 607 64 l 2
 607 45 607 34 596 19 c 0
 582 0 566 0 544 0 c 2
248 594 m 2xd8
 176 594 l 2
 154 594 138 594 124 613 c 0
 113 628 113 639 113 658 c 2
 113 714 l 2
 113 733 113 744 124 759 c 0
 138 778 154 778 176 778 c 2
 248 778 l 2
 270 778 286 778 300 759 c 0
 311 744 311 733 311 714 c 2
 311 658 l 2
 311 639 311 628 300 613 c 0
 286 594 270 594 248 594 c 2xd8
EndSplineSet
Ligature2: "'frac' Diagonal Fractions in Latin lookup 3 subtable" zero fraction zero
Ligature2: "'frac' Diagonal Fractions in Latin lookup 3 subtable" zero slash zero
EndChar

StartChar: ampersand
Encoding: 38 38 7
Width: 720
Flags: MW
HStem: 0 100<236 342 261 342 261 346> 593 100<229.5 364 253 364>
VStem: 113 100<140 196 127.5 203 127.5 220.5 495 530> 408 100<495 530 530 551.5>
LayerCount: 2
Fore
SplineSet
581 175 m 2
 541 140 l 1
 563 117 l 2
 578 102 607 73 607 50 c 0
 607 22 588 0 559 0 c 0
 541 0 529 9 517 22 c 2
 466 75 l 1
 403 22 l 2
 380 3 377 0 346 0 c 2
 255 0 l 2
 217 0 184 6 155 33 c 0
 123 63 113 99 113 140 c 2
 113 203 l 2
 113 238 113 242 141 266 c 2
 222 337 l 1
 128 438 l 2
 113 455 113 463 113 485 c 2
 113 555 l 2
 113 638 170 693 253 693 c 2
 364 693 l 2
 448 693 508 642 508 555 c 2
 508 485 l 2
 508 447 502 445 473 420 c 2
 366 328 l 1
 473 215 l 1
 492 231 l 2
 509 245 532 270 556 270 c 0
 584 270 607 246 607 218 c 0
 607 200 594 186 581 175 c 2
298 401 m 1
 408 495 l 1
 408 530 l 2
 408 573 414 593 364 593 c 2
 253 593 l 2
 206 593 213 569 213 530 c 2
 213 495 l 1
 298 401 l 1
398 148 m 1
 290 264 l 1
 213 196 l 1
 213 140 l 2
 213 115 208 100 261 100 c 2
 342 100 l 1
 398 148 l 1
EndSplineSet
EndChar

StartChar: quoteright
Encoding: 8217 8217 8
Width: 720
Flags: MW
HStem: 758 20G<330 390 390 415.5>
VStem: 269 182<723 728 728 741>
LayerCount: 2
Fore
SplineSet
269 449 m 2
 269 728 l 2
 269 754 279 778 330 778 c 2
 390 778 l 2
 441 778 451 754 451 728 c 0
 451 718 443 691 439 675 c 2
 381 441 l 2
 372 406 365 382 324 382 c 0
 279 382 269 409 269 449 c 2
EndSplineSet
Substitution2: "'salt' Stylistic Alternatives in Latin lookup 2 subtable" quoteright.alt
Substitution2: "'aalt' Access All Alternates in Latin lookup 0 subtable" quoteright.alt
EndChar

StartChar: parenleft
Encoding: 40 40 9
Width: 720
Flags: MW
HStem: 0 21G<427 452.5> 758 20G<427.5 454>
VStem: 233 100<313 465>
LayerCount: 2
Fore
SplineSet
291 624 m 2
 387 742 l 2
 403 762 414 778 441 778 c 0
 467 778 487 753 487 728 c 0
 487 711 476 697 467 685 c 2
 359 543 l 2
 333 509 333 507 333 465 c 2
 333 313 l 2
 333 271 333 269 359 235 c 2
 464 96 l 2
 474 82 487 67 487 50 c 0
 487 22 466 0 439 0 c 0
 415 0 404 15 390 32 c 2
 291 154 l 2
 247 208 233 243 233 313 c 2
 233 465 l 2
 233 534 247 570 291 624 c 2
EndSplineSet
EndChar

StartChar: parenright
Encoding: 41 41 10
Width: 720
Flags: MW
HStem: 0 21G<267.5 293> 758 20G<266 292.5>
VStem: 387 100<313 465>
LayerCount: 2
Fore
SplineSet
333 742 m 2
 429 624 l 2
 473 570 487 534 487 465 c 2
 487 313 l 2
 487 243 473 208 429 154 c 2
 330 32 l 2
 316 15 305 0 281 0 c 0
 254 0 233 22 233 50 c 0
 233 67 246 82 256 96 c 2
 361 235 l 2
 387 269 387 271 387 313 c 2
 387 465 l 2
 387 507 387 509 361 543 c 2
 253 685 l 2
 244 697 233 711 233 728 c 0
 233 753 253 778 279 778 c 0
 306 778 317 762 333 742 c 2
EndSplineSet
EndChar

StartChar: asterisk
Encoding: 42 42 11
Width: 720
Flags: MW
HStem: 587 20G<148.5 171 549 571.5> 672 20G<342 378>
VStem: 310 100<136 280 496 642>
LayerCount: 2
Fore
SplineSet
153 276 m 2
 284 388 l 1
 140 511 l 2
 127 522 113 536 113 554 c 0
 113 582 134 607 163 607 c 0
 179 607 192 598 203 588 c 2
 310 496 l 1
 310 642 l 2
 310 674 324 692 360 692 c 0
 396 692 410 674 410 642 c 2
 410 496 l 1
 517 588 l 2
 528 598 541 607 557 607 c 0
 586 607 607 582 607 554 c 0
 607 536 593 522 580 511 c 2
 436 388 l 1
 567 276 l 2
 584 262 607 245 607 221 c 0
 607 193 586 169 557 169 c 0
 536 169 518 187 503 200 c 2
 410 280 l 1
 410 136 l 2
 410 104 396 86 360 86 c 0
 324 86 310 104 310 136 c 2
 310 280 l 1
 217 200 l 2
 202 187 184 169 163 169 c 0
 134 169 113 193 113 221 c 0
 113 245 136 262 153 276 c 2
EndSplineSet
EndChar

StartChar: plus
Encoding: 43 43 12
Width: 720
Flags: MW
HStem: 339 100<150 310 163 310 410 557> 618 20G<342 378>
VStem: 310 100<192 339 439 588>
LayerCount: 2
Fore
SplineSet
310 439 m 1
 310 588 l 2
 310 620 324 638 360 638 c 0
 396 638 410 620 410 588 c 2
 410 439 l 1
 557 439 l 2
 583 439 607 425 607 389 c 0
 607 353 583 339 557 339 c 2
 410 339 l 1
 410 192 l 2
 410 160 396 142 360 142 c 0
 324 142 310 160 310 192 c 2
 310 339 l 1
 163 339 l 2
 137 339 113 353 113 389 c 0
 113 425 137 439 163 439 c 2
 310 439 l 1
EndSplineSet
EndChar

StartChar: comma
Encoding: 44 44 13
Width: 720
Flags: MW
HStem: 0 21G<440 476> 254 100<249 448 262 408>
VStem: 408 100<50 254 254 254>
LayerCount: 2
Fore
SplineSet
408 254 m 1
 262 254 l 2
 236 254 212 268 212 304 c 0
 212 340 236 354 262 354 c 2
 448 354 l 2
 466 354 477 354 492 340 c 0
 508 325 508 311 508 290 c 2
 508 50 l 2
 508 18 494 0 458 0 c 0
 422 0 408 18 408 50 c 2
 408 254 l 1
EndSplineSet
Substitution2: "'salt' Stylistic Alternatives in Latin lookup 2 subtable" comma.alt
Substitution2: "'aalt' Access All Alternates in Latin lookup 0 subtable" comma.alt
EndChar

StartChar: hyphen
Encoding: 45 45 14
Width: 720
Flags: MW
HStem: 327 122<222.5 477 243 477>
VStem: 183 354<365.5 410.5>
LayerCount: 2
Fore
SplineSet
243 449 m 2
 477 449 l 2
 518 449 537 433 537 388 c 0
 537 343 518 327 477 327 c 2
 243 327 l 2
 202 327 183 343 183 388 c 0
 183 433 202 449 243 449 c 2
EndSplineSet
Substitution2: "'salt' Stylistic Alternatives in Latin lookup 2 subtable" hyphen.alt
AlternateSubs2: "'aalt' Access All Alternates in Latin lookup 1 subtable" endash emdash minus hyphen.alt
EndChar

StartChar: period
Encoding: 46 46 15
Width: 720
Flags: MW
HStem: 128 184<313 396 324 396>
VStem: 261 198<192 248 182.5 257.5>
LayerCount: 2
Fore
SplineSet
396 128 m 2
 324 128 l 2
 302 128 286 128 272 147 c 0
 261 162 261 173 261 192 c 2
 261 248 l 2
 261 267 261 278 272 293 c 0
 286 312 302 312 324 312 c 2
 396 312 l 2
 418 312 434 312 448 293 c 0
 459 278 459 267 459 248 c 2
 459 192 l 2
 459 173 459 162 448 147 c 0
 434 128 418 128 396 128 c 2
EndSplineSet
Substitution2: "'salt' Stylistic Alternatives in Latin lookup 2 subtable" period.alt
AlternateSubs2: "'aalt' Access All Alternates in Latin lookup 1 subtable" ellipsis period.alt
EndChar

StartChar: slash
Encoding: 47 47 16
Width: 720
Flags: MW
HStem: 0 21G<150.5 175.5> 758 20G<545.5 571>
VStem: 113 494
LayerCount: 2
Fore
SplineSet
596 692 m 2
 212 35 l 2
 200 14 188 0 163 0 c 0
 138 0 113 21 113 47 c 0
 113 66 125 83 135 99 c 2
 509 740 l 2
 521 760 533 778 558 778 c 0
 584 778 607 757 607 731 c 0
 607 715 602 703 596 692 c 2
EndSplineSet
EndChar

StartChar: zero
Encoding: 48 48 17
Width: 720
Flags: MW
HStem: 0 100<113 213 213 507> 678 100<213 507 213 507>
VStem: 113 100<100 678> 507 100<0 100 100 678>
LayerCount: 2
Fore
SplineSet
213 778 m 2
 507 778 l 2
 562 778 607 733 607 678 c 2
 607 100 l 2
 607 44 564 0 507 0 c 2
 213 0 l 2
 156 0 113 44 113 100 c 2
 113 678 l 2
 113 733 158 778 213 778 c 2
213 100 m 1
 507 100 l 1
 507 678 l 1
 213 678 l 1
 213 100 l 1
EndSplineSet
EndChar

StartChar: one
Encoding: 49 49 18
Width: 720
Flags: MW
HStem: 0 100<150 310 163 310 410 507> 678 100<150 410 163 310>
VStem: 310 100<100 678 678 678> 507 100<100 302>
LayerCount: 2
Fore
SplineSet
410 100 m 1
 507 100 l 1
 507 302 l 2
 507 331 520 352 557 352 c 0
 594 352 607 331 607 302 c 2
 607 50 l 2
 607 14 583 0 557 0 c 2
 163 0 l 2
 137 0 113 14 113 50 c 0
 113 86 137 100 163 100 c 2
 310 100 l 1
 310 678 l 1
 163 678 l 2
 137 678 113 692 113 728 c 0
 113 764 137 778 163 778 c 2
 410 778 l 1
 410 100 l 1
EndSplineSet
Substitution2: "'sups' Superscript in Latin lookup 5 subtable" one.superior
Substitution2: "'aalt' Access All Alternates in Latin lookup 0 subtable" one.superior
EndChar

StartChar: two
Encoding: 50 50 19
Width: 720
Flags: MW
HStem: 0 100<213 557 213 557> 339 100<213 507 226 495> 678 100<150 495 163 495 495 507>
VStem: 113 100<100 326 326 339 100 363.5> 507 100<439 456 456 661>
LayerCount: 2
Fore
SplineSet
213 339 m 1
 213 100 l 1
 557 100 l 2
 583 100 607 86 607 50 c 0
 607 14 583 0 557 0 c 2
 113 0 l 1
 113 326 l 2
 113 401 151 439 226 439 c 2
 507 439 l 1
 507 678 l 1
 163 678 l 2
 137 678 113 692 113 728 c 0
 113 764 137 778 163 778 c 2
 495 778 l 2
 528 778 551 773 576 750 c 0
 604 724 607 697 607 661 c 2
 607 456 l 2
 607 420 604 393 576 367 c 0
 551 344 528 339 495 339 c 2
 213 339 l 1
EndSplineSet
Substitution2: "'sups' Superscript in Latin lookup 5 subtable" two.superior
Substitution2: "'aalt' Access All Alternates in Latin lookup 0 subtable" two.superior
EndChar

StartChar: three
Encoding: 51 51 20
Width: 720
Flags: MW
HStem: 0 100<150 507 163 507> 339 100<248 457 261 457> 678 100<150 507 163 507>
VStem: 507 100<0 100 100 266 266 292 512 678>
LayerCount: 2
Fore
SplineSet
507 678 m 1
 163 678 l 2
 137 678 113 692 113 728 c 0
 113 764 137 778 163 778 c 2
 507 778 l 2
 564 778 607 735 607 678 c 2
 607 486 l 2
 607 446 599 417 568 389 c 1
 599 361 607 332 607 292 c 2
 607 100 l 2
 607 43 564 0 507 0 c 2
 163 0 l 2
 137 0 113 14 113 50 c 0
 113 86 137 100 163 100 c 2
 507 100 l 1
 507 266 l 2
 507 322 485 339 457 339 c 2
 261 339 l 2
 235 339 211 353 211 389 c 0
 211 425 235 439 261 439 c 2
 457 439 l 2
 485 439 507 456 507 512 c 2
 507 678 l 1
EndSplineSet
Substitution2: "'sups' Superscript in Latin lookup 5 subtable" three.superior
Substitution2: "'aalt' Access All Alternates in Latin lookup 0 subtable" three.superior
EndChar

StartChar: four
Encoding: 52 52 21
Width: 720
Flags: MW
HStem: 0 21G<489 525> 254 100<263 457 263 457 557 570> 673 20G<488 526> 758 20G<194 232>
VStem: 163 100<354 354 354 728> 457 100<50 254 354 643>
LayerCount: 2
Fore
SplineSet
263 354 m 1
 457 354 l 1
 457 643 l 2
 457 668 469 693 507 693 c 0
 545 693 557 668 557 643 c 2
 557 354 l 1
 583 354 607 340 607 304 c 0
 607 268 583 254 557 254 c 1
 557 50 l 2
 557 18 543 0 507 0 c 0
 471 0 457 18 457 50 c 2
 457 254 l 1
 163 254 l 1
 163 728 l 2
 163 753 175 778 213 778 c 0
 251 778 263 753 263 728 c 2
 263 354 l 1
EndSplineSet
EndChar

StartChar: five
Encoding: 53 53 22
Width: 720
Flags: MW
HStem: 0 100<261 507 276 496> 339 100<312 496 496 507> 678 100<312 312 312 557>
VStem: 212 100<439 678 439 778> 507 100<100 112 112 326>
LayerCount: 2
Fore
SplineSet
312 678 m 1
 312 439 l 1
 496 439 l 2
 528 439 552 434 576 411 c 0
 604 385 607 361 607 326 c 2
 607 112 l 2
 607 81 604 59 583 34 c 0
 558 4 532 0 496 0 c 2
 274 0 l 2
 248 0 233 7 208 18 c 2
 170 35 l 2
 143 47 113 56 113 91 c 0
 113 117 135 141 161 141 c 0
 173 141 182 138 193 133 c 2
 223 120 l 2
 237 114 260 100 276 100 c 2
 507 100 l 1
 507 339 l 1
 212 339 l 1
 212 778 l 1
 557 778 l 2
 583 778 607 764 607 728 c 0
 607 692 583 678 557 678 c 2
 312 678 l 1
EndSplineSet
EndChar

StartChar: six
Encoding: 54 54 23
Width: 720
Flags: MW
HStem: 0 100<154.5 507 213 507 213 542> 254 100<213 507 213 547> 678 100<213 216 216 227.5>
VStem: 113 100<100 254 354 678> 507 100<100 254 254 254>
LayerCount: 2
Fore
SplineSet
213 678 m 1
 213 354 l 1
 547 354 l 2
 597 354 607 333 607 287 c 2
 607 63 l 2
 607 16 587 0 542 0 c 2
 178 0 l 2
 131 0 113 17 113 63 c 2
 113 728 l 2
 113 751 121 778 156 778 c 2
 216 778 l 2
 242 778 263 754 263 728 c 0
 263 698 242 678 213 678 c 1
507 254 m 1
 213 254 l 1
 213 100 l 1
 507 100 l 1
 507 254 l 1
EndSplineSet
EndChar

StartChar: seven
Encoding: 55 55 24
Width: 720
Flags: MW
HStem: 0 21G<344 380> 678 100<113 607 213 507 213 213>
VStem: 113 100<667 728 667 739> 312 100<50 244> 507 100<540 678 678 678>
LayerCount: 2
Fore
SplineSet
507 678 m 1
 213 678 l 1
 213 656 195 628 163 628 c 0
 131 628 113 656 113 678 c 2
 113 728 l 2
 113 750 131 778 163 778 c 2
 607 778 l 1
 607 488 l 2
 607 453 608 449 580 425 c 2
 440 304 l 2
 414 281 412 279 412 244 c 2
 412 50 l 2
 412 18 398 0 362 0 c 0
 326 0 312 18 312 50 c 2
 312 291 l 2
 312 324 313 327 338 349 c 2
 476 468 l 2
 509 497 507 496 507 540 c 2
 507 678 l 1
EndSplineSet
EndChar

StartChar: eight
Encoding: 56 56 25
Width: 720
Flags: MW
HStem: 0 100<113 213 213 507> 339 100<313 407 197.5 213> 678 100<313 407 313 313>
VStem: 113 100<100 338 338 339> 213 100<439 678> 407 100<439 678 678 678> 507 100<0 100 100 338>
LayerCount: 2
Fore
SplineSet
313 439 m 1xec
 407 439 l 1
 407 678 l 1
 313 678 l 1
 313 439 l 1xec
263 778 m 2
 457 778 l 2
 491 778 507 754 507 728 c 2
 507 439 l 1xf4
 538 439 562 428 580 411 c 0
 598 394 607 369 607 338 c 2
 607 100 l 2
 607 39 569 0 507 0 c 2
 213 0 l 2
 151 0 113 39 113 100 c 2
 113 338 l 2
 113 369 122 394 140 411 c 0xf2
 158 428 182 439 213 439 c 1
 213 728 l 2
 213 754 229 778 263 778 c 2
213 100 m 1
 507 100 l 1
 507 339 l 1xea
 213 339 l 1
 213 100 l 1
EndSplineSet
EndChar

StartChar: nine
Encoding: 57 57 26
Width: 720
Flags: MW
HStem: 0 100<492.5 507 492.5 507 492.5 557> 422 100<149 507 213 507 213 507> 678 100<213 507 213 213>
VStem: 113 100<522 522 522 678> 507 100<0 50 100 422 422 422 522 678 678 678>
LayerCount: 2
Fore
SplineSet
507 100 m 1
 507 422 l 1
 163 422 l 2
 135 422 113 446 113 472 c 2
 113 728 l 2
 113 754 135 778 163 778 c 2
 557 778 l 2
 585 778 607 754 607 728 c 2
 607 50 l 2
 607 23 587 0 557 0 c 2
 507 0 l 2
 477 0 457 23 457 50 c 0
 457 80 478 100 507 100 c 1
213 522 m 1
 507 522 l 1
 507 678 l 1
 213 678 l 1
 213 522 l 1
EndSplineSet
EndChar

StartChar: colon
Encoding: 58 58 27
Width: 720
Flags: MW
HStem: 127 184<313 396 324 396> 467 184<313 396 324 396>
VStem: 261 198<191 247 181.5 256.5 531 587>
LayerCount: 2
Fore
SplineSet
396 127 m 2
 324 127 l 2
 302 127 286 127 272 146 c 0
 261 161 261 172 261 191 c 2
 261 247 l 2
 261 266 261 277 272 292 c 0
 286 311 302 311 324 311 c 2
 396 311 l 2
 418 311 434 311 448 292 c 0
 459 277 459 266 459 247 c 2
 459 191 l 2
 459 172 459 161 448 146 c 0
 434 127 418 127 396 127 c 2
396 467 m 2
 324 467 l 2
 302 467 286 467 272 486 c 0
 261 501 261 512 261 531 c 2
 261 587 l 2
 261 606 261 617 272 632 c 0
 286 651 302 651 324 651 c 2
 396 651 l 2
 418 651 434 651 448 632 c 0
 459 617 459 606 459 587 c 2
 459 531 l 2
 459 512 459 501 448 486 c 0
 434 467 418 467 396 467 c 2
EndSplineSet
EndChar

StartChar: semicolon
Encoding: 59 59 28
Width: 720
Flags: MW
HStem: 0 21G<441 477> 254 100<248 449 261 409> 509 184<263 346 274 346>
VStem: 211 198<50 322 573 629> 409 100<50 254 254 254>
LayerCount: 2
Fore
SplineSet
409 254 m 1xe8
 261 254 l 2
 235 254 211 268 211 304 c 0
 211 340 235 354 261 354 c 2
 449 354 l 2
 467 354 478 354 493 340 c 0
 510 325 509 311 509 290 c 2
 509 50 l 2
 509 18 495 0 459 0 c 0
 423 0 409 18 409 50 c 2
 409 254 l 1xe8
346 509 m 2xf0
 274 509 l 2
 252 509 236 509 222 528 c 0
 211 543 211 554 211 573 c 2
 211 629 l 2
 211 648 211 659 222 674 c 0
 236 693 252 693 274 693 c 2
 346 693 l 2
 368 693 384 693 398 674 c 0
 409 659 409 648 409 629 c 2
 409 573 l 2
 409 554 409 543 398 528 c 0
 384 509 368 509 346 509 c 2xf0
EndSplineSet
EndChar

StartChar: less
Encoding: 60 60 29
Width: 720
Flags: MW
HStem: 735 20G<571.5 593.5>
VStem: 89 543<109 412>
LayerCount: 2
Fore
SplineSet
241 412 m 1
 599 174 l 2
 619 161 631 148 632 123 c 0
 632 95 608 68 580 68 c 0
 563 68 549 77 537 85 c 2
 126 358 l 2
 104 372 89 383 89 412 c 0
 88 440 104 452 126 466 c 2
 538 740 l 2
 550 748 564 755 579 755 c 0
 608 755 631 729 632 701 c 0
 632 675 616 661 597 648 c 2
 241 412 l 1
EndSplineSet
EndChar

StartChar: equal
Encoding: 61 61 30
Width: 720
Flags: MW
HStem: 253 100<150 557 163 557> 465 100<150 557 163 557>
VStem: 113 494<285 321 497 533>
LayerCount: 2
Fore
SplineSet
557 253 m 2
 163 253 l 2
 137 253 113 267 113 303 c 0
 113 339 137 353 163 353 c 2
 557 353 l 2
 583 353 607 339 607 303 c 0
 607 267 583 253 557 253 c 2
557 465 m 2
 163 465 l 2
 137 465 113 479 113 515 c 0
 113 551 137 565 163 565 c 2
 557 565 l 2
 583 565 607 551 607 515 c 0
 607 479 583 465 557 465 c 2
EndSplineSet
EndChar

StartChar: greater
Encoding: 62 62 31
Width: 720
Flags: MW
HStem: 735 20G<127.5 149.5>
VStem: 89 543<109 412 397.5 701>
LayerCount: 2
Fore
SplineSet
122 174 m 2
 480 412 l 1
 124 648 l 2
 105 661 89 675 89 701 c 0
 90 729 113 755 142 755 c 0
 157 755 171 748 183 740 c 2
 595 466 l 2
 617 452 633 440 632 412 c 0
 632 383 617 372 595 358 c 2
 184 85 l 2
 172 77 158 68 141 68 c 0
 113 68 89 95 89 123 c 0
 90 148 102 161 122 174 c 2
EndSplineSet
EndChar

StartChar: question
Encoding: 63 63 32
Width: 720
Flags: MW
HStem: 0 100<247.5 275> 563 20G<507 507> 662 96<417 458> 738 20G<417 417 499 499>
VStem: 211 100<35.5 62.5 220 281> 507 100<583 620 620 620>
LayerCount: 2
Fore
SplineSet
507 583 m 1xdc
 507 620 l 1
 458 662 l 1xec
 205 445 l 2
 193 435 179 425 163 425 c 0
 134 425 113 449 113 477 c 0
 113 501 136 518 152 532 c 2
 417 758 l 2
 429 769 440 778 458 778 c 0
 477 778 485 770 499 758 c 2
 581 688 l 2
 607 666 607 661 607 628 c 2
 607 573 l 2
 607 537 603 534 576 510 c 2
 311 281 l 1
 311 220 l 2
 311 188 297 170 261 170 c 0
 225 170 211 188 211 220 c 2
 211 294 l 2
 211 328 216 331 241 352 c 2
 507 583 l 1xdc
261 100 m 0
 289 100 311 77 311 49 c 0
 311 22 289 0 261 0 c 0
 234 0 211 22 211 49 c 0
 211 76 234 100 261 100 c 0
EndSplineSet
Substitution2: "'salt' Stylistic Alternatives in Latin lookup 2 subtable" question.alt
Substitution2: "'aalt' Access All Alternates in Latin lookup 0 subtable" question.alt
EndChar

StartChar: at
Encoding: 64 64 33
Width: 720
Flags: MW
HStem: 0 96<243 283 440.5 479> 384 96<253 337 269 312> 682 96<289.5 396 309 396 396 406>
VStem: 121 96<165 178 178 314> 312 96<173 174 174 384 384 384> 503 96<185 572 572 586>
LayerCount: 2
Fore
SplineSet
121 165 m 2
 121 318 l 2
 121 407 173 480 269 480 c 2
 337 480 l 2
 392 480 408 468 408 411 c 2
 408 174 l 2
 408 141 411 96 456 96 c 0
 508 96 503 149 503 185 c 2
 503 572 l 2
 503 600 506 623 490 647 c 0
 470 677 440 682 406 682 c 2
 306 682 l 2
 273 682 242 681 224 648 c 0
 211 624 201 598 169 598 c 0
 143 598 121 617 121 643 c 0
 121 676 154 717 178 737 c 0
 219 772 258 778 309 778 c 2
 396 778 l 2
 431 778 448 778 483 764 c 0
 561 733 599 674 599 592 c 2
 599 172 l 2
 599 125 600 94 569 56 c 0
 543 24 500 0 458 0 c 0
 423 0 385 14 360 40 c 1
 335 16 300 0 266 0 c 0
 173 0 121 79 121 165 c 2
312 173 m 2
 312 384 l 1
 266 384 l 2
 240 384 217 371 217 314 c 2
 217 178 l 2
 217 145 220 96 266 96 c 0
 319 96 312 158 312 173 c 2
EndSplineSet
EndChar

StartChar: A
Encoding: 65 65 34
Width: 720
Flags: MW
HStem: 0 21G<147 176.5 541.5 571> 170 100<281 438 281 466 253 438> 758 20G<344 376.5>
VStem: 112 494
LayerCount: 2
Fore
SplineSet
113 50 m 2
 309 727 l 2
 317 754 328 778 360 778 c 0
 393 778 405 753 412 727 c 2
 605 50 l 2
 612 26 585 0 557 0 c 0
 526 0 510 26 503 50 c 2
 466 170 l 1
 253 170 l 1
 215 50 l 2
 208 26 192 0 161 0 c 0
 133 0 106 26 113 50 c 2
438 270 m 1
 361 541 l 1
 359 541 l 1
 281 270 l 1
 438 270 l 1
EndSplineSet
EndChar

StartChar: B
Encoding: 66 66 35
Width: 720
Flags: MW
HStem: 0 100<213 393 213 393> 339 100<213 393 213 393> 678 100<213 213 213 393>
VStem: 113 100<100 339 439 678> 507 100<170 245 142.5 250 518 589>
LayerCount: 2
Fore
SplineSet
113 0 m 1
 113 778 l 1
 393 778 l 2
 540 778 607 688 607 547 c 0
 607 489 594 436 541 389 c 1
 598 335 607 282 607 208 c 0
 607 77 520 0 393 0 c 2
 113 0 l 1
213 339 m 1
 213 100 l 1
 393 100 l 2
 465 100 507 132 507 208 c 0
 507 292 484 339 393 339 c 2
 213 339 l 1
213 678 m 1
 213 439 l 1
 393 439 l 2
 465 439 507 471 507 547 c 0
 507 631 484 678 393 678 c 2
 213 678 l 1
EndSplineSet
EndChar

StartChar: C
Encoding: 67 67 36
Width: 720
Flags: MW
HStem: 0 100<344.5 557 394 557 394 557> 678 100<387 390 390 557>
VStem: 113 100<372 401.5 372 408>
LayerCount: 2
Fore
SplineSet
557 0 m 2
 382 0 l 2
 307 0 264 30 232 95 c 2
 140 281 l 2
 123 315 113 347 113 386 c 0
 113 430 121 457 141 497 c 2
 233 682 l 2
 267 751 310 778 387 778 c 2
 557 778 l 2
 579 778 607 766 607 728 c 0
 607 692 580 678 557 678 c 2
 390 678 l 2
 347 678 340 674 321 636 c 2
 234 462 l 2
 221 435 213 417 213 386 c 0
 213 358 222 341 234 317 c 2
 319 144 l 2
 339 103 349 100 394 100 c 2
 557 100 l 2
 579 100 607 88 607 50 c 0
 607 14 580 0 557 0 c 2
EndSplineSet
EndChar

StartChar: D
Encoding: 68 68 37
Width: 720
Flags: MW
HStem: 0 100<150 211 163 211 311 329> 678 100<171 174 174 211 311 323 311 311>
VStem: 211 100<100 678 100 678> 507 100<372.5 402>
LayerCount: 2
Fore
SplineSet
211 100 m 1
 211 678 l 1
 174 678 l 2
 141 678 113 690 113 728 c 0
 113 764 140 778 171 778 c 2
 338 778 l 2
 416 778 455 746 489 678 c 2
 577 502 l 2
 597 461 607 432 607 386 c 0
 607 346 596 312 578 276 c 2
 487 94 l 2
 452 23 407 0 329 0 c 2
 163 0 l 2
 137 0 113 14 113 50 c 0
 113 86 137 100 163 100 c 2
 211 100 l 1
311 678 m 1
 311 100 l 1
 330 100 l 2
 372 100 382 105 400 142 c 2
 488 320 l 2
 499 343 507 360 507 385 c 0
 507 419 496 438 482 467 c 2
 399 636 l 2
 378 679 369 678 323 678 c 2
 311 678 l 1
EndSplineSet
EndChar

StartChar: E
Encoding: 69 69 38
Width: 720
Flags: MW
HStem: 0 100<213 557 213 557> 339 100<213 360 213 360> 678 100<213 557 213 213>
VStem: 113 100<100 100 100 339 439 678>
LayerCount: 2
Fore
SplineSet
213 100 m 1
 557 100 l 2
 583 100 607 86 607 50 c 0
 607 14 583 0 557 0 c 2
 113 0 l 1
 113 778 l 1
 557 778 l 2
 583 778 607 764 607 728 c 0
 607 692 583 678 557 678 c 2
 213 678 l 1
 213 439 l 1
 360 439 l 2
 386 439 410 425 410 389 c 0
 410 353 386 339 360 339 c 2
 213 339 l 1
 213 100 l 1
EndSplineSet
EndChar

StartChar: F
Encoding: 70 70 39
Width: 720
Flags: MW
HStem: 0 21G<145 181> 424 100<213 459 213 459> 678 100<213 557 213 213>
VStem: 113 100<50 424 524 678>
LayerCount: 2
Fore
SplineSet
113 50 m 2
 113 778 l 1
 557 778 l 2
 583 778 607 764 607 728 c 0
 607 692 583 678 557 678 c 2
 213 678 l 1
 213 524 l 1
 459 524 l 2
 485 524 509 510 509 474 c 0
 509 438 485 424 459 424 c 2
 213 424 l 1
 213 50 l 2
 213 18 199 0 163 0 c 0
 127 0 113 18 113 50 c 2
EndSplineSet
EndChar

StartChar: G
Encoding: 71 71 40
Width: 720
Flags: MW
HStem: 0 100<252 441 282 441 441 447> 254 100<397 607 410 507> 678 100<423 437 437 557>
VStem: 113 100<163 172 172 368> 507 100<152 157 157 254 254 254>
LayerCount: 2
Fore
SplineSet
507 254 m 1
 410 254 l 2
 384 254 360 268 360 304 c 0
 360 340 384 354 410 354 c 2
 607 354 l 1
 607 157 l 2
 607 60 542 0 447 0 c 2
 275 0 l 2
 229 0 195 8 160 40 c 0
 120 76 113 113 113 163 c 2
 113 413 l 2
 113 477 127 510 165 559 c 2
 283 710 l 2
 323 761 358 778 423 778 c 2
 557 778 l 2
 583 778 607 764 607 728 c 0
 607 692 583 678 557 678 c 2
 437 678 l 2
 382 678 386 679 353 637 c 2
 244 498 l 2
 213 459 213 417 213 368 c 2
 213 172 l 2
 213 117 225 100 282 100 c 2
 441 100 l 2
 477 100 507 108 507 152 c 2
 507 254 l 1
EndSplineSet
EndChar

StartChar: H
Encoding: 72 72 41
Width: 720
Flags: MW
HStem: 0 21G<145 181 539 575> 339 100<213 507 213 507> 758 20G<145 181 539 575>
VStem: 113 100<50 339 439 728> 507 100<50 339 339 339 439 728>
LayerCount: 2
Fore
SplineSet
507 339 m 1
 213 339 l 1
 213 50 l 2
 213 18 199 0 163 0 c 0
 127 0 113 18 113 50 c 2
 113 728 l 2
 113 760 127 778 163 778 c 0
 199 778 213 760 213 728 c 2
 213 439 l 1
 507 439 l 1
 507 728 l 2
 507 760 521 778 557 778 c 0
 593 778 607 760 607 728 c 2
 607 50 l 2
 607 18 593 0 557 0 c 0
 521 0 507 18 507 50 c 2
 507 339 l 1
EndSplineSet
EndChar

StartChar: I
Encoding: 73 73 42
Width: 720
Flags: MW
HStem: 0 100<150 310 163 310 410 557> 678 100<150 557 163 310 410 557 410 410>
VStem: 310 100<100 678 100 678>
LayerCount: 2
Fore
SplineSet
410 678 m 1
 410 100 l 1
 557 100 l 2
 583 100 607 86 607 50 c 0
 607 14 583 0 557 0 c 2
 163 0 l 2
 137 0 113 14 113 50 c 0
 113 86 137 100 163 100 c 2
 310 100 l 1
 310 678 l 1
 163 678 l 2
 137 678 113 692 113 728 c 0
 113 764 137 778 163 778 c 2
 557 778 l 2
 583 778 607 764 607 728 c 0
 607 692 583 678 557 678 c 2
 410 678 l 1
EndSplineSet
EndChar

StartChar: J
Encoding: 74 74 43
Width: 720
Flags: MW
HStem: 0 100<306 389 334 389 389 392> 758 20G<489 525>
VStem: 163 100<159 174 174 304> 457 100<154 170 170 728>
LayerCount: 2
Fore
SplineSet
557 728 m 2
 557 170 l 2
 557 132 557 108 538 74 c 0
 504 17 454 0 392 0 c 2
 334 0 l 2
 278 0 230 10 194 58 c 0
 169 91 163 119 163 159 c 2
 163 304 l 2
 163 336 177 354 213 354 c 0
 249 354 263 336 263 304 c 2
 263 174 l 2
 263 116 275 100 334 100 c 2
 389 100 l 2
 431 100 457 106 457 154 c 2
 457 728 l 2
 457 760 471 778 507 778 c 0
 543 778 557 760 557 728 c 2
EndSplineSet
EndChar

StartChar: K
Encoding: 75 75 44
Width: 720
Flags: MW
HStem: 0 21G<145 181 548.5 573.5> 757 20G 758 20G<145 181>
VStem: 113 100<50 281 498 728>
LayerCount: 2
Fore
SplineSet
113 50 m 2xb0
 113 728 l 2
 113 760 127 778 163 778 c 0
 199 778 213 760 213 728 c 2xb0
 213 498 l 1
 518 757 l 2
 530 767 543 777 559 777 c 0
 588 777 607 753 607 725 c 0
 607 708 596 694 584 683 c 2xd0
 239 389 l 1
 582 95 l 2
 595 84 607 70 607 52 c 0
 607 24 588 0 559 0 c 0
 538 0 521 18 505 30 c 2
 213 281 l 1
 213 50 l 2
 213 18 199 0 163 0 c 0
 127 0 113 18 113 50 c 2xb0
EndSplineSet
EndChar

StartChar: L
Encoding: 76 76 45
Width: 720
Flags: MW
HStem: 0 100<213 557 213 557> 758 20G<145 181>
VStem: 113 100<100 100 100 728>
LayerCount: 2
Fore
SplineSet
213 100 m 1
 557 100 l 2
 583 100 607 86 607 50 c 0
 607 14 583 0 557 0 c 2
 113 0 l 1
 113 728 l 2
 113 760 127 778 163 778 c 0
 199 778 213 760 213 728 c 2
 213 100 l 1
EndSplineSet
EndChar

StartChar: M
Encoding: 77 77 46
Width: 720
Flags: MW
HStem: 0 21G<145 181 539 575> 582 20G<360 360> 640 138<213 215 213 213 505 507 505 505> 758 20G<113 238 238 238 482 607 607 607>
VStem: 113 100<50 640> 310 100<483 499 467.5 499> 507 100<50 640 640 640>
LayerCount: 2
Fore
SplineSet
360 602 m 1xda
 482 778 l 1
 607 778 l 1
 607 50 l 2
 607 18 593 0 557 0 c 0
 521 0 507 18 507 50 c 2
 507 640 l 1
 505 640 l 1
 410 499 l 1
 410 483 l 2
 410 452 398 423 360 423 c 0
 324 423 310 452 310 483 c 2
 310 499 l 1
 215 640 l 1
 213 640 l 1xee
 213 50 l 2
 213 18 199 0 163 0 c 0
 127 0 113 18 113 50 c 2
 113 778 l 1
 238 778 l 1
 360 602 l 1xda
EndSplineSet
EndChar

StartChar: N
Encoding: 78 78 47
Width: 720
Flags: MW
HStem: 0 171 758 20G<113 245 245 245>
VStem: 113 100<50 600> 507 100
LayerCount: 2
Fore
SplineSet
507 171 m 1
 508 727 l 2
 508 759 522 777 558 777 c 0
 594 777 608 759 608 727 c 2
 608 -1 l 1
 476 -1 l 1
 215 599 l 1
 215 600 l 1
 213 600 l 1
 213 50 l 2
 213 18 199 0 163 0 c 0
 127 0 113 18 113 50 c 2
 113 778 l 1
 245 778 l 1
 506 171 l 1
 505 171 l 1
 507 171 l 1
EndSplineSet
EndChar

StartChar: O
Encoding: 79 79 48
Width: 720
Flags: MW
HStem: 0 100<350 370 350 389> 678 100<349.5 370.5>
VStem: 113 100<373 402.5 373 407.5> 507 100<373 402.5>
LayerCount: 2
Fore
SplineSet
481 696 m 2
 581 497 l 2
 600 458 607 429 607 386 c 0
 607 338 594 308 574 267 c 2
 482 83 l 2
 458 35 418 0 360 0 c 0
 302 0 262 35 238 83 c 2
 146 267 l 2
 126 308 113 338 113 386 c 0
 113 429 120 458 139 497 c 2
 239 696 l 2
 263 743 304 778 360 778 c 0
 416 778 457 743 481 696 c 2
484 467 m 2
 394 648 l 2
 386 664 381 678 360 678 c 0
 339 678 334 664 326 648 c 2
 236 467 l 2
 221 438 213 419 213 386 c 0
 213 360 219 342 230 320 c 2
 326 130 l 2
 333 116 340 100 360 100 c 0
 380 100 387 116 394 130 c 2
 490 320 l 2
 501 342 507 360 507 386 c 0
 507 419 499 438 484 467 c 2
EndSplineSet
EndChar

StartChar: P
Encoding: 80 80 49
Width: 720
Flags: MW
HStem: 0 21G<145 181> 294 100<213 435 213 432> 678 100<213 213 213 435>
VStem: 113 100<50 294 394 678> 507 100<466 470 470 606>
LayerCount: 2
Fore
SplineSet
213 294 m 1
 213 50 l 2
 213 18 199 0 163 0 c 0
 127 0 113 18 113 50 c 2
 113 778 l 1
 445 778 l 2
 491 778 524 771 560 737 c 0
 603 697 607 660 607 606 c 2
 607 470 l 2
 607 419 603 383 566 342 c 0
 527 298 486 294 432 294 c 2
 213 294 l 1
213 678 m 1
 213 394 l 1
 435 394 l 2
 494 394 507 409 507 466 c 2
 507 606 l 2
 507 663 494 678 435 678 c 2
 213 678 l 1
EndSplineSet
EndChar

StartChar: Q
Encoding: 81 81 50
Width: 720
Flags: MW
HStem: 0 100<223.5 240.5 223.5 253.5 494 541> 678 100<481 498>
VStem: 113 100<136 394> 507 100<389 638 638 646>
LayerCount: 2
Fore
SplineSet
426 0 m 1
 390 91 l 1
 324 35 l 2
 296 11 273 0 234 0 c 0
 200 0 169 13 146 38 c 0
 118 69 113 96 113 136 c 2
 113 398 l 2
 113 471 139 517 193 563 c 2
 397 737 l 2
 423 760 446 778 482 778 c 0
 558 778 607 722 607 648 c 2
 607 383 l 2
 607 306 587 262 528 211 c 2
 469 160 l 1
 494 100 l 1
 553 100 l 2
 583 100 607 82 607 50 c 0
 607 8 576 0 541 0 c 2
 426 0 l 1
419 287 m 2
 431 258 l 1
 454 277 l 2
 500 315 507 329 507 389 c 2
 507 638 l 2
 507 654 509 678 487 678 c 0
 475 678 468 668 459 661 c 2
 258 487 l 2
 224 458 213 439 213 394 c 2
 213 135 l 2
 213 119 212 100 235 100 c 0
 246 100 257 108 265 115 c 2
 351 190 l 1
 325 256 l 2
 319 270 311 288 311 303 c 0
 311 330 335 351 361 351 c 0
 400 351 406 317 419 287 c 2
EndSplineSet
EndChar

StartChar: R
Encoding: 82 82 51
Width: 720
Flags: MW
HStem: 0 21G<145 181 546 570> 422 100<213 435 213 236 357 357 357 435 435 449> 678 100<213 213 213 436>
VStem: 113 100<50 422 522 678> 507 100<564 633>
LayerCount: 2
Fore
SplineSet
213 422 m 1
 213 50 l 2
 213 18 199 0 163 0 c 0
 127 0 113 18 113 50 c 2
 113 778 l 1
 449 778 l 2
 528 778 607 722 607 633 c 2
 607 564 l 2
 607 470 529 422 449 422 c 2
 357 422 l 1
 582 100 l 2
 593 85 607 66 607 47 c 0
 607 19 584 0 556 0 c 0
 536 0 523 12 512 28 c 2
 236 422 l 1
 213 422 l 1
213 678 m 1
 213 522 l 1
 435 522 l 2
 463 522 507 524 507 564 c 2
 507 633 l 2
 507 673 466 678 436 678 c 2
 213 678 l 1
EndSplineSet
EndChar

StartChar: S
Encoding: 83 83 52
Width: 720
Flags: MW
HStem: 0 100<257 261 261 474 474 478 257 481> 678 100<241.5 461 249 459>
VStem: 113 100<119 141 659.5 672.5> 507 100<104.5 116 634 656>
LayerCount: 2
Fore
SplineSet
228 637 m 2
 572 196 l 2
 592 170 607 147 607 113 c 0
 607 38 550 0 481 0 c 2
 261 0 l 2
 223 0 190 7 160 32 c 0
 133 54 113 90 113 125 c 0
 113 157 131 185 166 185 c 0
 195 185 213 161 213 134 c 0
 213 104 229 100 257 100 c 2
 474 100 l 2
 482 100 507 97 507 112 c 0
 507 120 493 135 489 141 c 2
 146 582 l 2
 125 609 113 629 113 664 c 0
 113 704 132 738 166 760 c 0
 194 778 217 778 249 778 c 2
 461 778 l 2
 499 778 531 770 560 745 c 0
 586 722 607 685 607 650 c 0
 607 618 591 592 555 592 c 0
 525 592 507 611 507 639 c 0
 507 673 490 678 459 678 c 2
 247 678 l 2
 236 678 213 681 213 664 c 0
 213 655 224 643 228 637 c 2
EndSplineSet
EndChar

StartChar: T
Encoding: 84 84 53
Width: 720
Flags: MW
HStem: 0 21G<342 378> 678 100<213 310 213 213 410 410 410 507>
VStem: 113 100<642 678 626 778> 310 100<50 678> 507 100<642 678 678 678>
LayerCount: 2
Fore
SplineSet
310 678 m 1
 213 678 l 1
 213 642 l 2
 213 610 199 592 163 592 c 0
 127 592 113 610 113 642 c 2
 113 778 l 1
 607 778 l 1
 607 642 l 2
 607 610 593 592 557 592 c 0
 521 592 507 610 507 642 c 2
 507 678 l 1
 410 678 l 1
 410 50 l 2
 410 18 396 0 360 0 c 0
 324 0 310 18 310 50 c 2
 310 678 l 1
EndSplineSet
EndChar

StartChar: U
Encoding: 85 85 54
Width: 720
Flags: MW
HStem: 0 100<250 445 275 445> 758 20G<145 181 539 575>
VStem: 113 100<170 728> 507 100<170 728>
LayerCount: 2
Fore
SplineSet
445 0 m 2
 275 0 l 2
 225 0 186 12 151 51 c 0
 118 88 113 124 113 170 c 2
 113 728 l 2
 113 760 127 778 163 778 c 0
 199 778 213 760 213 728 c 2
 213 170 l 2
 213 114 230 100 275 100 c 2
 445 100 l 2
 490 100 507 114 507 170 c 2
 507 728 l 2
 507 760 521 778 557 778 c 0
 593 778 607 760 607 728 c 2
 607 170 l 2
 607 124 602 88 569 51 c 0
 534 12 495 0 445 0 c 2
EndSplineSet
EndChar

StartChar: V
Encoding: 86 86 55
Width: 720
Flags: MW
HStem: 0 21G<344.5 375.5> 758 20G<145 181 539 575>
VStem: 113 100<570 728 568 744> 507 100<568 570 570 728>
LayerCount: 2
Fore
SplineSet
360 186 m 1
 507 568 l 1
 507 728 l 2
 507 760 521 778 557 778 c 0
 593 778 607 760 607 728 c 2
 607 570 l 2
 607 557 606 543 601 531 c 2
 410 44 l 2
 400 19 391 0 360 0 c 0
 329 0 320 19 310 44 c 2
 119 531 l 2
 114 543 113 557 113 570 c 2
 113 728 l 2
 113 760 127 778 163 778 c 0
 199 778 213 760 213 728 c 2
 213 568 l 1
 360 186 l 1
EndSplineSet
EndChar

StartChar: W
Encoding: 87 87 56
Width: 720
Flags: MW
HStem: 0 100<205.5 283 240 283 240 298 437 480> 758 20G<145 181 539 575>
VStem: 113 100<148 728 148 744> 310 100<148 463 148 478.5> 507 100<148 728>
LayerCount: 2
Fore
SplineSet
497 0 m 2
 422 0 l 2
 388 0 368 7 361 43 c 1
 359 43 l 1
 352 7 332 0 298 0 c 2
 223 0 l 2
 188 0 179 6 162 36 c 2
 127 97 l 2
 114 119 113 121 113 148 c 2
 113 728 l 2
 113 760 127 778 163 778 c 0
 199 778 213 760 213 728 c 2
 213 148 l 1
 240 100 l 1
 283 100 l 1
 310 148 l 1
 310 463 l 2
 310 494 324 522 360 522 c 0
 396 522 410 494 410 463 c 2
 410 148 l 1
 437 100 l 1
 480 100 l 1
 507 148 l 1
 507 728 l 2
 507 760 521 778 557 778 c 0
 593 778 607 760 607 728 c 2
 607 148 l 2
 607 121 606 119 593 97 c 2
 558 36 l 2
 541 6 532 0 497 0 c 2
EndSplineSet
EndChar

StartChar: X
Encoding: 88 88 57
Width: 720
Flags: MW
HStem: 0 21G<149.5 178.5 541.5 570.5> 758 20G<149.5 178.5 541.5 570.5>
VStem: 113 494<34 54 724 744>
LayerCount: 2
Fore
SplineSet
125 83 m 2
 303 389 l 1
 125 695 l 2
 118 706 113 717 113 731 c 0
 113 757 137 778 162 778 c 0
 195 778 206 753 220 729 c 2
 360 490 l 1
 500 729 l 2
 514 753 525 778 558 778 c 0
 583 778 607 757 607 731 c 0
 607 717 602 706 595 695 c 2
 417 389 l 1
 595 83 l 2
 602 72 607 61 607 47 c 0
 607 21 583 0 558 0 c 0
 525 0 514 25 500 49 c 2
 360 288 l 1
 220 49 l 2
 206 25 195 0 162 0 c 0
 137 0 113 21 113 47 c 0
 113 61 118 72 125 83 c 2
EndSplineSet
EndChar

StartChar: Y
Encoding: 89 89 58
Width: 720
Flags: MW
HStem: 0 21G<342 378> 758 20G<145 181 539 575>
VStem: 113 100<660 728 660 728 660 744> 310 100<50 370> 507 100<660 728 626 744>
LayerCount: 2
Fore
SplineSet
410 370 m 1
 410 50 l 2
 410 18 396 0 360 0 c 0
 324 0 310 18 310 50 c 2
 310 370 l 1
 113 626 l 1
 113 728 l 2
 113 760 127 778 163 778 c 0
 199 778 213 760 213 728 c 2
 213 660 l 1
 360 469 l 1
 507 660 l 1
 507 728 l 2
 507 760 521 778 557 778 c 0
 593 778 607 760 607 728 c 2
 607 626 l 1
 410 370 l 1
EndSplineSet
EndChar

StartChar: Z
Encoding: 90 90 59
Width: 720
Flags: MW
HStem: 0 100<248 557 248 557> 678 100<150 607 163 471>
VStem: 113 494<32 63 63 63 713 746>
LayerCount: 2
Fore
SplineSet
607 778 m 1
 607 713 l 1
 248 100 l 1
 557 100 l 2
 583 100 607 86 607 50 c 0
 607 14 583 0 557 0 c 2
 113 0 l 1
 113 63 l 1
 471 678 l 1
 163 678 l 2
 137 678 113 692 113 728 c 0
 113 764 137 778 163 778 c 2
 607 778 l 1
EndSplineSet
EndChar

StartChar: bracketleft
Encoding: 91 91 60
Width: 720
Flags: MW
HStem: 0 100<156.5 265 213 265 365 545 545 547> 678 100<213 265 213 213 365 545 545 547 365 365>
VStem: 113 100<100 100 100 678> 265 100<100 678>
LayerCount: 2
Fore
SplineSet
365 100 m 1
 545 100 l 2
 577 100 607 87 607 50 c 0
 607 14 579 0 547 0 c 2
 184 0 l 2
 129 0 113 10 113 67 c 2
 113 707 l 2
 113 761 123 778 180 778 c 2
 545 778 l 2
 577 778 607 765 607 728 c 0
 607 692 579 678 547 678 c 2
 365 678 l 1
 365 100 l 1
213 100 m 1
 265 100 l 1
 265 678 l 1
 213 678 l 1
 213 100 l 1
EndSplineSet
EndChar

StartChar: backslash
Encoding: 92 92 61
Width: 720
Flags: MW
HStem: 0 21G<545.5 570.5> 758 20G<150 175.5>
VStem: 113 494
LayerCount: 2
Fore
SplineSet
509 35 m 2
 125 692 l 2
 119 703 113 715 113 728 c 0
 113 754 137 778 163 778 c 0
 188 778 200 760 212 740 c 2
 586 99 l 2
 596 83 607 66 607 47 c 0
 607 21 583 0 558 0 c 0
 533 0 521 14 509 35 c 2
EndSplineSet
EndChar

StartChar: bracketright
Encoding: 93 93 62
Width: 720
Flags: MW
HStem: 0 100<157 355 175 355 455 507> 678 100<157 540 175 355 455 455 455 507>
VStem: 355 100<100 678> 507 100<100 678 678 678>
LayerCount: 2
Fore
SplineSet
175 100 m 2
 355 100 l 1
 355 678 l 1
 173 678 l 2
 141 678 113 692 113 728 c 0
 113 765 143 778 175 778 c 2
 540 778 l 2
 597 778 607 761 607 707 c 2
 607 67 l 2
 607 10 591 0 536 0 c 2
 173 0 l 2
 141 0 113 14 113 50 c 0
 113 87 143 100 175 100 c 2
455 100 m 1
 507 100 l 1
 507 678 l 1
 455 678 l 1
 455 100 l 1
EndSplineSet
EndChar

StartChar: asciicircum
Encoding: 94 94 63
Width: 720
Flags: MW
HStem: 588 20G<344.5 376>
VStem: 127 466<193 213.5>
LayerCount: 2
Fore
SplineSet
360 402 m 1
 219 195 l 2
 206 176 196 162 170 162 c 0
 147 162 127 181 127 205 c 0
 127 222 136 237 144 252 c 2
 307 562 l 2
 319 586 329 608 360 608 c 0
 392 608 401 586 414 562 c 2
 577 252 l 2
 585 237 593 222 593 205 c 0
 593 181 573 162 550 162 c 0
 525 162 515 176 502 195 c 2
 360 402 l 1
EndSplineSet
EndChar

StartChar: underscore
Encoding: 95 95 64
Width: 720
Flags: MW
HStem: -159 100<0 720 0 720>
VStem: 0 720<-159 -59 -159 -59>
LayerCount: 2
Fore
SplineSet
0 -59 m 1
 720 -59 l 1
 720 -159 l 1
 0 -159 l 1
 0 -59 l 1
EndSplineSet
EndChar

StartChar: quoteleft
Encoding: 8216 8216 65
Width: 720
Flags: MW
HStem: 758 20G<375.5 418.5>
VStem: 269 182<419 432 432 437>
LayerCount: 2
Fore
SplineSet
451 711 m 2
 451 432 l 2
 451 406 441 382 390 382 c 2
 330 382 l 2
 279 382 269 406 269 432 c 0
 269 442 277 469 281 485 c 2
 339 719 l 2
 348 754 355 778 396 778 c 0
 441 778 451 751 451 711 c 2
EndSplineSet
EndChar

StartChar: a
Encoding: 97 97 66
Width: 720
Flags: MW
HStem: 0 96<283 284 284 376> 241 96<284 285 285 427> 443 96<272 418 286 405>
VStem: 125 96<152 194 194 199 119 217> 495 95
LayerCount: 2
Fore
SplineSet
405 443 m 2
 286 443 l 2
 258 443 220 449 220 491 c 0
 220 532 254 539 286 539 c 2
 418 539 l 2
 468 539 504 534 542 496 c 0
 579 459 584 430 585 382 c 2
 595 56 l 2
 596 28 582 0 550 0 c 0
 525 0 500 21 501 48 c 1
 435 14 l 2
 408 0 407 0 376 0 c 2
 284 0 l 2
 241 0 210 5 175 34 c 0
 135 67 125 102 125 152 c 2
 125 194 l 2
 125 240 136 269 172 301 c 0
 205 330 242 337 284 337 c 2
 490 337 l 1
 490 359 l 2
 490 431 474 443 405 443 c 2
427 241 m 2
 285 241 l 2
 259 241 221 234 221 199 c 2
 221 135 l 2
 221 103 260 96 283 96 c 2
 389 96 l 1
 495 151 l 1
 495 172 l 2
 495 225 480 241 427 241 c 2
EndSplineSet
Substitution2: "'ordn' Ordinals in Latin lookup 4 subtable" ordfeminine
Substitution2: "'aalt' Access All Alternates in Latin lookup 0 subtable" ordfeminine
EndChar

StartChar: b
Encoding: 98 98 67
Width: 720
Flags: MW
HStem: 0 96<316.5 415 342 415 415 422 342 435> 443 96<345.5 352 352 419> 717 20G<152.5 193.5>
VStem: 125 96<67 70 215.5 231 231 315 469 671> 499 96<191 361 361 366>
LayerCount: 2
Fore
SplineSet
221 671 m 2
 221 469 l 1
 238 486 l 2
 270 518 289 539 333 539 c 2
 439 539 l 2
 464 539 486 525 510 505 c 2
 543 477 l 2
 581 444 595 417 595 366 c 2
 595 173 l 2
 595 122 581 95 543 62 c 2
 510 34 l 2
 487 15 459 0 435 0 c 2
 336 0 l 2
 297 0 270 24 243 49 c 2
 221 70 l 1
 221 64 l 2
 221 33 211 0 173 0 c 0
 132 0 125 34 125 67 c 2
 125 671 l 2
 125 704 132 737 173 737 c 0
 214 737 221 704 221 671 c 2
221 315 m 2
 221 231 l 2
 221 200 225 188 250 167 c 2
 305 120 l 2
 317 110 332 96 342 96 c 2
 415 96 l 2
 429 96 438 99 445 105 c 2
 487 140 l 2
 498 149 499 172 499 191 c 2
 499 361 l 2
 499 380 494 395 486 401 c 2
 442 435 l 2
 436 440 429 443 419 443 c 2
 352 443 l 2
 339 443 323 436 312 426 c 2
 250 372 l 2
 234 359 221 344 221 315 c 2
EndSplineSet
EndChar

StartChar: c
Encoding: 99 99 68
Width: 720
Flags: MW
HStem: 0 96<360 377 377 529> 443 96<350.5 529 377 529 377 529>
VStem: 125 96<223 316 316 329>
LayerCount: 2
Fore
SplineSet
125 223 m 2
 125 316 l 2
 125 375 136 404 182 442 c 2
 253 501 l 2
 298 538 321 539 377 539 c 2
 529 539 l 2
 561 539 595 532 595 491 c 0
 595 449 557 443 529 443 c 2
 360 443 l 2
 341 443 322 433 305 419 c 2
 247 370 l 2
 232 358 221 348 221 329 c 2
 221 210 l 2
 221 191 232 181 247 169 c 2
 305 120 l 2
 322 106 341 96 360 96 c 2
 529 96 l 2
 557 96 595 90 595 48 c 0
 595 7 561 0 529 0 c 2
 377 0 l 2
 321 0 298 1 253 38 c 2
 182 97 l 2
 136 135 125 164 125 223 c 2
EndSplineSet
EndChar

StartChar: d
Encoding: 100 100 69
Width: 720
Flags: MW
HStem: 0 96<277 369 301 369 369 375 301 386> 443 96<295 388 303 369> 717 20G<526.5 567.5>
VStem: 125 96<197.5 211 211 328> 499 96<64 67 67 70 70 70 209 330 330 339 469 671>
LayerCount: 2
Fore
SplineSet
303 539 m 2
 388 539 l 2
 421 539 448 521 483 486 c 2
 499 469 l 1
 499 671 l 2
 499 704 506 737 547 737 c 0
 588 737 595 704 595 671 c 2
 595 67 l 2
 595 34 588 0 547 0 c 0
 509 0 499 32 499 64 c 2
 499 70 l 1
 478 49 l 2
 448 21 415 0 386 0 c 2
 293 0 l 2
 261 0 225 22 211 34 c 2
 178 62 l 2
 138 96 125 122 125 173 c 2
 125 366 l 2
 125 417 138 443 178 477 c 2
 211 505 l 2
 241 531 263 539 303 539 c 2
221 328 m 2
 221 211 l 2
 221 184 221 150 236 138 c 2
 265 115 l 2
 277 105 289 96 301 96 c 2
 369 96 l 2
 381 96 398 104 416 120 c 2
 471 167 l 2
 485 179 499 191 499 209 c 2
 499 330 l 2
 499 348 485 360 471 372 c 2
 416 419 l 2
 398 435 381 443 369 443 c 2
 301 443 l 2
 289 443 277 434 265 424 c 2
 236 401 l 2
 221 389 221 355 221 328 c 2
EndSplineSet
EndChar

StartChar: e
Encoding: 101 101 70
Width: 720
Flags: MW
HStem: 0 96<281 529 323 529 323 529> 200 96<221 499 221 529 221 499> 443 96<314 323 323 400 400 404>
VStem: 125 96<170 200 296 355 355 364> 499 96<296 348>
LayerCount: 2
Fore
SplineSet
529 0 m 2
 301 0 l 2
 261 0 245 0 215 26 c 2
 174 62 l 2
 136 96 125 118 125 170 c 2
 125 355 l 2
 125 406 132 436 172 470 c 2
 206 499 l 2
 251 538 273 539 312 539 c 2
 400 539 l 2
 447 539 469 534 506 504 c 2
 545 473 l 2
 589 438 595 401 595 348 c 2
 595 271 l 2
 595 216 586 200 529 200 c 2
 221 200 l 1
 221 168 l 2
 221 159 228 147 235 140 c 2
 259 114 l 2
 272 100 291 96 323 96 c 2
 529 96 l 2
 561 96 595 89 595 48 c 0
 595 6 557 0 529 0 c 2
221 364 m 2
 221 296 l 1
 499 296 l 1
 499 354 l 2
 499 372 500 387 487 399 c 2
 450 431 l 2
 438 442 419 443 404 443 c 2
 323 443 l 2
 305 443 290 443 274 432 c 2
 241 408 l 2
 229 399 221 392 221 364 c 2
EndSplineSet
EndChar

StartChar: f
Encoding: 102 102 71
Width: 720
Flags: MW
HStem: 0 21G<293.5 334.5> 443 96<225 266 239 266 362 447> 641 96<421.5 525 460 525 525 529>
VStem: 266 96<66 443 539 552 552 558>
LayerCount: 2
Fore
SplineSet
266 66 m 2
 266 443 l 1
 239 443 l 2
 211 443 173 449 173 491 c 0
 173 532 207 539 239 539 c 2
 266 539 l 1
 266 552 l 2
 266 607 269 647 312 689 c 0
 358 733 401 737 460 737 c 2
 525 737 l 2
 558 737 595 734 595 689 c 0
 595 648 562 641 529 641 c 2
 454 641 l 2
 389 641 362 628 362 558 c 2
 362 539 l 1
 447 539 l 2
 479 539 513 532 513 491 c 0
 513 449 475 443 447 443 c 2
 362 443 l 1
 362 66 l 2
 362 33 355 0 314 0 c 0
 273 0 266 33 266 66 c 2
EndSplineSet
EndChar

StartChar: g
Encoding: 103 103 72
Width: 720
Flags: MW
HStem: -204 96<223 413 237 396> 41 96<277 371 301 371 371 377 301 400> 443 96<295 301 301 371>
VStem: 125 96<218 228 228 352> 499 96<-24 3 3 108 108 108 255 325 325 331.5>
LayerCount: 2
Fore
SplineSet
125 214 m 2
 125 360 l 2
 125 405 138 445 158 461 c 2
 228 516 l 2
 248 532 263 539 288 539 c 2
 381 539 l 2
 407 539 438 520 475 491 c 2
 499 472 l 1
 499 483 l 2
 499 513 515 539 548 539 c 0
 590 539 595 504 595 472 c 2
 595 3 l 2
 595 -84 588 -102 548 -136 c 2
 516 -163 l 2
 474 -198 450 -204 396 -204 c 2
 237 -204 l 2
 209 -204 171 -198 171 -156 c 0
 171 -115 205 -108 237 -108 c 2
 413 -108 l 2
 433 -108 446 -99 461 -86 c 2
 485 -64 l 2
 493 -56 499 -42 499 -24 c 2
 499 108 l 1
 479 88 l 2
 457 66 427 41 400 41 c 2
 287 41 l 2
 267 41 244 44 215 70 c 2
 155 124 l 2
 127 150 125 175 125 214 c 2
221 352 m 2
 221 228 l 2
 221 208 222 187 233 178 c 2
 273 146 l 2
 280 140 289 137 301 137 c 2
 371 137 l 2
 383 137 397 147 415 162 c 2
 489 223 l 2
 496 229 499 242 499 255 c 2
 499 325 l 2
 499 338 496 351 489 357 c 2
 415 418 l 2
 397 433 383 443 371 443 c 2
 301 443 l 2
 289 443 280 440 273 434 c 2
 233 402 l 2
 222 393 221 372 221 352 c 2
EndSplineSet
EndChar

StartChar: h
Encoding: 104 104 73
Width: 720
Flags: MW
HStem: 0 21G<152.5 193.5 528.5 569.5> 443 96<388 393 393 437> 717 20G<152.5 193.5>
VStem: 125 96<66 345 456 671> 495 95
LayerCount: 2
Fore
SplineSet
437 443 m 2
 393 443 l 2
 383 443 373 440 363 434 c 2
 221 345 l 1
 221 66 l 2
 221 33 214 0 173 0 c 0
 132 0 125 33 125 66 c 2
 125 671 l 2
 125 704 132 737 173 737 c 0
 214 737 221 704 221 671 c 2
 221 456 l 1
 299 507 l 2
 324 523 353 539 385 539 c 2
 449 539 l 2
 468 539 502 539 542 504 c 0
 585 467 583 426 585 374 c 2
 595 72 l 2
 596 38 591 0 548 0 c 0
 509 0 501 33 500 65 c 2
 490 361 l 2
 488 407 491 443 437 443 c 2
EndSplineSet
EndChar

StartChar: i
Encoding: 105 105 74
Width: 720
Flags: MW
HStem: 0 96<224 314 238 314 410 482> 443 96<224 339 238 314> 642 136<297 365 310 365>
VStem: 314 96<96 443 443 443>
LayerCount: 2
Fore
SplineSet
410 472 m 2
 410 96 l 1
 482 96 l 2
 514 96 548 89 548 48 c 0
 548 6 510 0 482 0 c 2
 238 0 l 2
 210 0 172 6 172 48 c 0
 172 89 206 96 238 96 c 2
 314 96 l 1
 314 443 l 1
 238 443 l 2
 210 443 172 449 172 491 c 0
 172 532 206 539 238 539 c 2
 339 539 l 2
 394 539 410 529 410 472 c 2
265 687 m 2
 265 733 l 2
 265 767 284 778 310 778 c 2
 365 778 l 2
 391 778 410 767 410 733 c 2
 410 687 l 2
 410 653 391 642 365 642 c 2
 310 642 l 2
 284 642 265 653 265 687 c 2
EndSplineSet
EndChar

StartChar: j
Encoding: 106 106 75
Width: 720
Flags: MW
HStem: -204 96<303.5 393 330 393 393 397> 443 96<322 477 336 452> 642 136<435 503 448 503>
VStem: 452 96<-27 443 443 443>
LayerCount: 2
Fore
SplineSet
548 472 m 2
 548 -27 l 2
 548 -80 548 -121 509 -162 c 0
 470 -204 429 -204 397 -204 c 2
 317 -204 l 2
 290 -204 258 -201 227 -177 c 0
 199 -156 172 -113 172 -77 c 0
 172 -51 194 -30 219 -30 c 0
 245 -30 261 -44 268 -68 c 0
 278 -104 294 -108 330 -108 c 2
 393 -108 l 2
 454 -108 452 -83 452 -27 c 2
 452 443 l 1
 336 443 l 2
 308 443 270 449 270 491 c 0
 270 532 304 539 336 539 c 2
 477 539 l 2
 532 539 548 529 548 472 c 2
403 687 m 2
 403 733 l 2
 403 767 422 778 448 778 c 2
 503 778 l 2
 529 778 548 767 548 733 c 2
 548 687 l 2
 548 653 529 642 503 642 c 2
 448 642 l 2
 422 642 403 653 403 687 c 2
EndSplineSet
EndChar

StartChar: k
Encoding: 107 107 76
Width: 720
Flags: MW
HStem: 0 21G<152.5 193.5 537.5 560.5> 519 20G<493.5 518.5> 717 20G<152.5 193.5>
VStem: 125 96<66 188 315 671>
LayerCount: 2
Fore
SplineSet
221 315 m 1
 441 500 l 2
 458 515 482 539 505 539 c 0
 532 539 553 517 553 490 c 0
 553 467 538 456 521 442 c 2
 335 288 l 1
 561 100 l 2
 579 85 595 74 595 49 c 0
 595 22 574 0 547 0 c 0
 528 0 516 12 502 23 c 2
 261 224 l 1
 221 188 l 1
 221 66 l 2
 221 33 214 0 173 0 c 0
 132 0 125 33 125 66 c 2
 125 671 l 2
 125 704 132 737 173 737 c 0
 214 737 221 704 221 671 c 2
 221 315 l 1
EndSplineSet
EndChar

StartChar: l
Encoding: 108 108 77
Width: 720
Flags: MW
HStem: 0 96<224 314 238 314 410 482> 641 96<224 339 238 314>
VStem: 314 96<96 641 641 641>
LayerCount: 2
Fore
SplineSet
410 670 m 2
 410 96 l 1
 482 96 l 2
 514 96 548 89 548 48 c 0
 548 6 510 0 482 0 c 2
 238 0 l 2
 210 0 172 6 172 48 c 0
 172 89 206 96 238 96 c 2
 314 96 l 1
 314 641 l 1
 238 641 l 2
 210 641 172 647 172 689 c 0
 172 730 206 737 238 737 c 2
 339 737 l 2
 394 737 410 727 410 670 c 2
EndSplineSet
EndChar

StartChar: m
Encoding: 109 109 78
Width: 720
Flags: MW
HStem: 0 21G<152.5 193.5 339.5 380.5 528.5 569.5> 433 106<285.5 301.5 461 481>
VStem: 125 96<66 378> 312 96<66 378> 495 95
LayerCount: 2
Fore
SplineSet
428 400 m 2
 408 378 l 1
 408 66 l 2
 408 33 401 0 360 0 c 0
 319 0 312 33 312 66 c 2
 312 387 l 2
 312 403 314 433 289 433 c 0
 278 433 271 424 263 417 c 2
 221 378 l 1
 221 66 l 2
 221 33 214 0 173 0 c 0
 132 0 125 33 125 66 c 2
 125 471 l 2
 125 505 134 539 175 539 c 0
 199 539 215 523 221 501 c 1
 229 507 l 2
 254 526 269 539 302 539 c 0
 339 539 368 521 390 491 c 1
 398 499 l 2
 428 529 440 539 482 539 c 0
 514 539 543 525 562 500 c 0
 586 469 584 441 585 404 c 2
 595 72 l 2
 596 38 591 0 548 0 c 0
 509 0 501 33 500 65 c 2
 490 382 l 2
 489 399 494 433 468 433 c 0
 454 433 436 409 428 400 c 2
EndSplineSet
EndChar

StartChar: n
Encoding: 110 110 79
Width: 720
Flags: MW
HStem: 0 21G<152.5 193.5 528.5 569.5> 443 96<388 393 393 425>
VStem: 125 96<66 345 456 458 458 468 468 469> 495 95
LayerCount: 2
Fore
SplineSet
363 434 m 2
 221 345 l 1
 221 66 l 2
 221 33 214 0 173 0 c 0
 132 0 125 33 125 66 c 2
 125 468 l 2
 125 503 129 539 173 539 c 0
 216 539 221 503 221 469 c 2
 221 458 l 1
 221 456 l 1
 299 507 l 2
 324 523 351 539 382 539 c 2
 453 539 l 2
 490 539 513 529 542 504 c 0
 585 467 583 426 585 374 c 2
 595 72 l 2
 596 38 591 0 548 0 c 0
 509 0 501 33 500 65 c 2
 490 361 l 2
 488 420 483 443 425 443 c 2
 393 443 l 2
 383 443 373 440 363 434 c 2
EndSplineSet
EndChar

StartChar: o
Encoding: 111 111 80
Width: 720
Flags: MW
HStem: 0 96<291.5 398 322 398> 443 96<307 398 322 398>
VStem: 125 96<179 360> 499 96<179 360>
LayerCount: 2
Fore
SplineSet
125 179 m 2
 125 360 l 2
 125 424 138 446 186 485 c 0
 233 524 255 539 322 539 c 2
 398 539 l 2
 465 539 487 524 534 485 c 0
 582 446 595 424 595 360 c 2
 595 179 l 2
 595 116 579 92 529 50 c 0
 479 8 459 0 398 0 c 2
 322 0 l 2
 261 0 241 8 191 50 c 0
 141 92 125 116 125 179 c 2
221 360 m 2
 221 179 l 2
 221 159 228 146 256 122 c 0
 277 104 292 96 322 96 c 2
 398 96 l 2
 428 96 443 104 464 122 c 0
 492 146 499 159 499 179 c 2
 499 360 l 2
 499 380 492 393 464 417 c 0
 443 435 428 443 398 443 c 2
 322 443 l 2
 292 443 277 435 256 417 c 0
 228 393 221 380 221 360 c 2
EndSplineSet
Substitution2: "'ordn' Ordinals in Latin lookup 4 subtable" ordmasculine
Substitution2: "'aalt' Access All Alternates in Latin lookup 0 subtable" ordmasculine
EndChar

StartChar: p
Encoding: 112 112 81
Width: 720
Flags: MW
HStem: -204 21G<152.5 193.5> -20 96<312.5 374 349 374 374 380.5 349 399> 443 96<342 349 349 374>
VStem: 125 96<-138 55 206 213 213 307 464 468 468 476> 499 96<195 208 208 311>
LayerCount: 2
Fore
SplineSet
595 311 m 2
 595 208 l 2
 595 139 590 113 534 69 c 2
 476 23 l 2
 456 7 425 -20 399 -20 c 2
 334 -20 l 2
 291 -20 271 8 240 37 c 2
 221 55 l 1
 221 -138 l 2
 221 -171 214 -204 173 -204 c 0
 132 -204 125 -171 125 -138 c 2
 125 468 l 2
 125 502 129 539 173 539 c 0
 212 539 221 508 221 476 c 2
 221 464 l 1
 240 481 l 2
 265 503 303 539 330 539 c 2
 396 539 l 2
 419 539 450 515 476 495 c 2
 534 450 l 2
 590 406 595 379 595 311 c 2
499 195 m 2
 499 324 l 2
 499 342 494 353 479 366 c 2
 407 426 l 2
 398 434 387 443 374 443 c 2
 349 443 l 2
 335 443 318 425 308 415 c 2
 248 358 l 2
 228 339 221 328 221 307 c 2
 221 213 l 2
 221 199 225 181 235 172 c 2
 308 103 l 2
 322 89 337 76 349 76 c 2
 374 76 l 2
 387 76 398 85 407 93 c 2
 479 153 l 2
 494 166 499 177 499 195 c 2
EndSplineSet
EndChar

StartChar: q
Encoding: 113 113 82
Width: 720
Flags: MW
HStem: -204 21G<526.5 567.5> 0 96<281.5 367 309 367 367 377.5 309 387> 443 96<302 309 309 367>
VStem: 125 96<173 366> 499 96<-138 70 70 70 209 329 329 340 469 472>
LayerCount: 2
Fore
SplineSet
595 472 m 2
 595 -138 l 2
 595 -171 588 -204 547 -204 c 0
 506 -204 499 -171 499 -138 c 2
 499 70 l 1
 482 53 l 2
 456 27 430 0 387 0 c 2
 302 0 l 2
 261 0 241 8 210 34 c 2
 177 62 l 2
 137 96 125 122 125 173 c 2
 125 366 l 2
 125 417 137 443 177 477 c 2
 210 505 l 2
 240 531 262 539 302 539 c 2
 385 539 l 2
 417 539 447 519 477 490 c 2
 499 469 l 1
 499 475 l 2
 499 507 508 539 547 539 c 0
 588 539 595 505 595 472 c 2
499 209 m 2
 499 329 l 2
 499 351 484 360 470 372 c 2
 415 419 l 2
 397 435 388 443 367 443 c 2
 309 443 l 2
 291 443 276 436 259 422 c 0
 237 404 221 390 221 366 c 2
 221 173 l 2
 221 149 237 135 259 117 c 0
 276 103 291 96 309 96 c 2
 367 96 l 2
 388 96 397 105 415 120 c 2
 470 167 l 2
 484 179 499 188 499 209 c 2
EndSplineSet
EndChar

StartChar: r
Encoding: 114 114 83
Width: 720
Flags: MW
HStem: 0 21G<152.5 193.5> 443 96<394 403 403 431>
VStem: 125 96<66 309 436 468 468 475> 499 96<375.5 392>
LayerCount: 2
Fore
SplineSet
125 66 m 2
 125 468 l 2
 125 503 129 539 173 539 c 0
 211 539 221 507 221 475 c 2
 221 436 l 1
 296 498 l 2
 323 520 351 539 381 539 c 2
 458 539 l 2
 495 539 526 527 552 501 c 0
 584 469 595 436 595 392 c 0
 595 359 589 325 548 325 c 0
 513 325 499 353 499 384 c 0
 499 400 499 412 489 426 c 0
 477 443 454 443 431 443 c 2
 403 443 l 2
 385 443 372 434 355 420 c 2
 221 309 l 1
 221 66 l 2
 221 33 214 0 173 0 c 0
 132 0 125 33 125 66 c 2
EndSplineSet
EndChar

StartChar: s
Encoding: 115 115 84
Width: 720
Flags: MW
HStem: 0 96<264 419 289 419 419 436 289 437> 443 96<279 289 289 435>
VStem: 139 96<408 431.5 408 455> 499 96<121 160.5>
LayerCount: 2
Fore
SplineSet
435 443 m 2
 289 443 l 2
 269 443 235 447 235 416 c 0
 235 400 247 394 261 388 c 2
 501 279 l 2
 563 251 595 212 595 143 c 0
 595 46 529 0 437 0 c 2
 289 0 l 2
 239 0 205 2 169 30 c 0
 151 44 125 62 125 86 c 0
 125 113 148 134 175 134 c 0
 190 134 201 129 212 117 c 0
 229 98 259 96 289 96 c 2
 419 96 l 2
 453 96 499 93 499 149 c 0
 499 172 471 187 449 197 c 2
 223 300 l 2
 170 324 139 355 139 417 c 0
 139 493 199 539 271 539 c 2
 435 539 l 2
 488 539 510 536 546 506 c 0
 564 491 584 479 584 452 c 0
 584 425 561 404 535 404 c 0
 517 404 506 411 494 424 c 0
 478 441 461 443 435 443 c 2
EndSplineSet
EndChar

StartChar: t
Encoding: 116 116 85
Width: 720
Flags: MW
HStem: 0 96<357 431 382 430> 443 96<177 222 191 222 318 479> 683 20G<249.5 290.5>
VStem: 222 96<182 443 539 637>
LayerCount: 2
Fore
SplineSet
318 443 m 1
 318 181 l 2
 318 127 316 96 382 96 c 2
 431 96 l 2
 470 96 488 99 498 138 c 0
 504 161 522 177 546 177 c 0
 573 177 595 156 595 129 c 0
 595 102 578 68 562 49 c 0
 527 7 481 0 430 0 c 2
 381 0 l 2
 333 0 291 11 257 48 c 0
 220 89 222 130 222 182 c 2
 222 443 l 1
 191 443 l 2
 163 443 125 449 125 491 c 0
 125 532 159 539 191 539 c 2
 222 539 l 1
 222 637 l 2
 222 670 229 703 270 703 c 0
 311 703 318 670 318 637 c 2
 318 539 l 1
 479 539 l 2
 511 539 545 532 545 491 c 0
 545 449 507 443 479 443 c 2
 318 443 l 1
EndSplineSet
EndChar

StartChar: u
Encoding: 117 117 86
Width: 720
Flags: MW
HStem: 0 96<254.5 328 296 328 328 333.5 296 339> 519 20G<151 193.5 526.5 567.5>
VStem: 130 95 499 96<194 473>
LayerCount: 2
Fore
SplineSet
595 473 m 2
 595 71 l 2
 595 49 599 0 548 0 c 0
 507 0 500 34 500 67 c 2
 500 83 l 1
 422 32 l 2
 391 12 365 0 339 0 c 2
 268 0 l 2
 241 0 211 8 179 35 c 0
 136 72 137 113 135 165 c 2
 125 467 l 2
 124 502 129 539 173 539 c 0
 214 539 219 504 220 473 c 2
 230 178 l 2
 231 156 232 130 240 116 c 0
 248 102 273 96 296 96 c 2
 328 96 l 2
 339 96 349 99 358 105 c 2
 499 194 l 1
 499 473 l 2
 499 506 506 539 547 539 c 0
 588 539 595 506 595 473 c 2
EndSplineSet
EndChar

StartChar: v
Encoding: 118 118 87
Width: 720
Flags: MW
HStem: 0 100<317 360 360 360 360 391> 519 20G<155 193.5 526.5 565>
VStem: 125 96<419 468 419 481 419 496.5> 499 96<419 468 468 481 405 485>
LayerCount: 2
Fore
SplineSet
360 100 m 1
 499 419 l 1
 499 468 l 2
 499 502 505 539 548 539 c 0
 582 539 595 512 595 481 c 2
 595 413 l 2
 595 397 591 389 584 374 c 2
 441 60 l 2
 432 40 415 0 391 0 c 2
 329 0 l 2
 305 0 288 40 279 60 c 2
 136 374 l 2
 129 389 125 397 125 413 c 2
 125 481 l 2
 125 512 138 539 172 539 c 0
 215 539 221 502 221 468 c 2
 221 419 l 1
 360 100 l 1
EndSplineSet
EndChar

StartChar: w
Encoding: 119 119 88
Width: 720
Flags: MW
HStem: 0 21G<214 231 231 268 443.5 452 452 489> 0 133<214 260 260 260 260 268> 519 20G<151 192.5 527.5 569>
VStem: 130 95 312 96<222 310 222 326.5> 495 95
LayerCount: 2
Fore
SplineSet
408 310 m 2xbc
 408 222 l 1
 460 133 l 1
 490 222 l 1
 500 470 l 2
 501 503 507 539 548 539 c 0
 590 539 596 503 595 470 c 2
 585 203 l 1
 538 61 l 2
 528 32 523 0 489 0 c 2
 452 0 l 2
 435 0 421 18 412 31 c 2
 360 109 l 1
 308 31 l 2
 299 18 285 0 268 0 c 2
 231 0 l 2
 197 0 192 32 182 61 c 2
 135 203 l 1
 125 470 l 2
 124 503 130 539 172 539 c 0
 213 539 219 503 220 470 c 2
 230 222 l 1
 260 133 l 1
 312 222 l 1x7c
 312 310 l 2
 312 343 319 377 360 377 c 0
 401 377 408 343 408 310 c 2xbc
EndSplineSet
EndChar

StartChar: x
Encoding: 120 120 89
Width: 720
Flags: MW
HStem: 0 21G<159.5 187.5 532.5 560.5> 519 20G<159.5 187.5 532.5 560.5>
VStem: 125 470<36.5 59 479 501.5>
LayerCount: 2
Fore
SplineSet
148 95 m 2
 295 269 l 1
 148 443 l 2
 137 457 125 470 125 488 c 0
 125 515 146 539 173 539 c 0
 202 539 221 509 238 488 c 2
 360 338 l 1
 482 488 l 2
 499 509 518 539 547 539 c 0
 574 539 595 515 595 488 c 0
 595 470 583 457 572 443 c 2
 425 269 l 1
 572 95 l 2
 583 81 595 68 595 50 c 0
 595 23 574 0 547 0 c 0
 518 0 499 29 482 50 c 2
 360 200 l 1
 238 50 l 2
 221 29 202 0 173 0 c 0
 146 0 125 23 125 50 c 0
 125 68 137 81 148 95 c 2
EndSplineSet
EndChar

StartChar: y
Encoding: 121 121 90
Width: 720
Flags: MW
HStem: -204 96<177 257 191 257 191 265> 39 96<303 371 323 371> 519 20G<152.5 193.5 526.5 567.5>
VStem: 125 96<430 473 418 489.5> 499 96<422 434 434 473 422 489.5>
LayerCount: 2
Fore
SplineSet
371 135 m 1
 499 418 l 1
 499 473 l 2
 499 506 506 539 547 539 c 0
 588 539 595 506 595 473 c 2
 595 434 l 2
 595 410 593 394 583 373 c 2
 341 -154 l 2
 320 -199 309 -204 265 -204 c 2
 191 -204 l 2
 163 -204 125 -198 125 -156 c 0
 125 -115 159 -108 191 -108 c 2
 257 -108 l 1
 328 39 l 1
 323 39 l 2
 283 39 281 57 266 90 c 2
 148 351 l 2
 135 380 125 402 125 430 c 2
 125 473 l 2
 125 506 132 539 173 539 c 0
 214 539 221 506 221 473 c 2
 221 418 l 1
 350 135 l 1
 371 135 l 1
EndSplineSet
EndChar

StartChar: z
Encoding: 122 122 91
Width: 720
Flags: MW
HStem: 0 96<162.5 529 245 529 245 529> 443 96<204 530 218 474>
VStem: 125 470<56 68.5 27 81 27 92.5>
LayerCount: 2
Fore
SplineSet
143 127 m 2
 474 443 l 1
 218 443 l 2
 190 443 152 449 152 491 c 0
 152 532 186 539 218 539 c 2
 530 539 l 2
 579 539 595 523 595 489 c 2
 595 457 l 2
 595 438 589 424 567 403 c 2
 245 96 l 1
 529 96 l 2
 561 96 595 89 595 48 c 0
 595 6 557 0 529 0 c 2
 196 0 l 2
 129 0 125 28 125 56 c 2
 125 81 l 2
 125 104 126 111 143 127 c 2
EndSplineSet
EndChar

StartChar: braceleft
Encoding: 123 123 92
Width: 720
Flags: MW
HStem: 0 100<410 421 421 557> 339 100<150 244 163 244> 678 100<421 557 421 557 410 557>
VStem: 310 100<112 270 270 278 508 666 666 678>
LayerCount: 2
Fore
SplineSet
410 100 m 1
 557 100 l 2
 583 100 607 86 607 50 c 0
 607 14 583 0 557 0 c 2
 421 0 l 2
 384 0 357 7 332 37 c 0
 311 62 310 81 310 112 c 2
 310 270 l 2
 310 322 297 339 244 339 c 2
 163 339 l 2
 137 339 113 353 113 389 c 0
 113 425 137 439 163 439 c 2
 244 439 l 2
 297 439 310 456 310 508 c 2
 310 666 l 2
 310 697 311 716 332 741 c 0
 357 771 384 778 421 778 c 2
 557 778 l 2
 583 778 607 764 607 728 c 0
 607 692 583 678 557 678 c 2
 410 678 l 1
 410 499 l 2
 410 456 401 420 370 389 c 1
 400 356 410 320 410 278 c 2
 410 100 l 1
EndSplineSet
EndChar

StartChar: bar
Encoding: 124 124 93
Width: 720
Flags: MW
HStem: -239 21G<310 410 310 310> 793 20G<310 410 410 410>
VStem: 310 100<-239 813>
LayerCount: 2
Fore
SplineSet
410 -239 m 1
 310 -239 l 1
 310 813 l 1
 410 813 l 1
 410 -239 l 1
EndSplineSet
EndChar

StartChar: braceright
Encoding: 125 125 94
Width: 720
Flags: MW
HStem: 0 100<150 310 163 299> 339 100<449.5 557 476 557> 678 100<150 299 163 299 299 310>
VStem: 310 100<100 112 112 270 499 508 508 666>
LayerCount: 2
Fore
SplineSet
163 100 m 2
 310 100 l 1
 310 278 l 2
 310 320 320 356 350 389 c 1
 319 420 310 456 310 499 c 2
 310 678 l 1
 163 678 l 2
 137 678 113 692 113 728 c 0
 113 764 137 778 163 778 c 2
 299 778 l 2
 336 778 363 771 388 741 c 0
 409 716 410 697 410 666 c 2
 410 508 l 2
 410 456 423 439 476 439 c 2
 557 439 l 2
 583 439 607 425 607 389 c 0
 607 353 583 339 557 339 c 2
 476 339 l 2
 423 339 410 322 410 270 c 2
 410 112 l 2
 410 81 409 62 388 37 c 0
 363 7 336 0 299 0 c 2
 163 0 l 2
 137 0 113 14 113 50 c 0
 113 86 137 100 163 100 c 2
EndSplineSet
EndChar

StartChar: asciitilde
Encoding: 126 126 95
Width: 720
Flags: MW
HStem: 257 98<449.5 519 482 519 519 523 482 548> 423 98<197 201 201 238>
VStem: 89 100<347 349 349 411 333 434 333 459.5> 531 100<367 429 429 431 318.5 445>
LayerCount: 2
Fore
SplineSet
330 490 m 2
 445 376 l 2
 458 363 466 355 482 355 c 2
 519 355 l 2
 527 355 531 359 531 367 c 2
 531 429 l 2
 531 461 544 479 581 479 c 0
 617 480 631 463 631 431 c 2
 631 344 l 2
 631 293 598 257 548 257 c 2
 465 257 l 2
 434 257 410 268 390 288 c 2
 275 402 l 2
 262 415 254 423 238 423 c 2
 201 423 l 2
 193 423 189 419 189 411 c 2
 189 349 l 2
 189 317 176 299 139 299 c 0
 103 298 89 315 89 347 c 2
 89 434 l 2
 89 485 122 521 172 521 c 2
 255 521 l 2
 286 521 310 510 330 490 c 2
EndSplineSet
EndChar

StartChar: exclamdown
Encoding: 161 161 96
Width: 720
Flags: MW
HStem: 0 21G<311.5 333 333 384> 638 140<327 372 346 372>
VStem: 290 138<74 74 695 721> 299 120
LayerCount: 2
Fore
SplineSet
384 0 m 2xd0
 333 0 l 2xd0
 290 0 288 26 290 74 c 2
 308 417 l 2
 310 452 318 481 359 481 c 0xe0
 400 481 408 452 410 417 c 2
 428 74 l 2
 431 26 427 0 384 0 c 2xd0
372 638 m 2xe0
 346 638 l 2
 308 638 290 657 290 695 c 2
 290 721 l 2
 290 759 308 778 346 778 c 2
 372 778 l 2
 410 778 428 759 428 721 c 2
 428 695 l 2
 428 657 410 638 372 638 c 2xe0
EndSplineSet
EndChar

StartChar: cent
Encoding: 162 162 97
Width: 720
Flags: MW
HStem: 250 100<189.5 517 253 310 410 517 410 410> 508 100<253 310 410 517 253 253> 758 20G<342 378>
VStem: 153 100<350 508 350 558 350 571.5> 310 100<130 250 608 728>
LayerCount: 2
Fore
SplineSet
153 300 m 2
 153 558 l 2
 153 585 176 608 203 608 c 2
 310 608 l 1
 310 728 l 2
 310 760 324 778 360 778 c 0
 396 778 410 760 410 728 c 2
 410 608 l 1
 517 608 l 2
 543 608 567 594 567 558 c 0
 567 522 543 508 517 508 c 2
 253 508 l 1
 253 350 l 1
 517 350 l 2
 543 350 567 336 567 300 c 0
 567 264 543 250 517 250 c 2
 410 250 l 1
 410 130 l 2
 410 98 396 80 360 80 c 0
 324 80 310 98 310 130 c 2
 310 250 l 1
 203 250 l 2
 176 250 153 273 153 300 c 2
EndSplineSet
EndChar

StartChar: sterling
Encoding: 163 163 98
Width: 720
Flags: MW
HStem: 0 100<150 223 163 223 328 557> 340 100<150 321 163 293 163 397 426 557> 678 100<521 526 526 557>
VStem: 113 494<32 68 372 408>
LayerCount: 2
Fore
SplineSet
328 100 m 1
 557 100 l 2
 583 100 607 86 607 50 c 0
 607 14 583 0 557 0 c 2
 163 0 l 2
 137 0 113 14 113 50 c 0
 113 86 137 100 163 100 c 2
 223 100 l 1
 293 340 l 1
 163 340 l 2
 137 340 113 354 113 390 c 0
 113 426 137 440 163 440 c 2
 321 440 l 1
 398 708 l 2
 410 750 455 778 521 778 c 2
 557 778 l 2
 583 778 607 764 607 728 c 0
 607 692 583 678 557 678 c 2
 526 678 l 2
 499 678 490 661 485 644 c 2
 426 440 l 1
 557 440 l 2
 583 440 607 426 607 390 c 0
 607 354 583 340 557 340 c 2
 397 340 l 1
 328 100 l 1
EndSplineSet
EndChar

StartChar: fraction
Encoding: 8260 8260 99
Width: 720
Flags: MW
HStem: 691 20G<519 538.5>
VStem: 143 434
LayerCount: 2
Fore
SplineSet
569 637 m 2
 234 88 l 2
 223 70 207 62 192 62 c 0
 167 62 143 82 143 109 c 0
 143 118 146 128 152 138 c 2
 487 687 l 2
 497 704 512 711 526 711 c 0
 551 711 577 690 577 663 c 0
 577 655 574 646 569 637 c 2
EndSplineSet
EndChar

StartChar: yen
Encoding: 165 165 100
Width: 720
Flags: MW
HStem: 0 21G<341 377> 254 100<149 309 162 309 409 556> 759 20G
VStem: 309 100<50 254 354 374>
LayerCount: 2
Fore
SplineSet
409 354 m 1
 556 354 l 2
 582 354 606 340 606 304 c 0
 606 268 582 254 556 254 c 2
 409 254 l 1
 409 50 l 2
 409 18 395 0 359 0 c 0
 323 0 309 18 309 50 c 2
 309 254 l 1
 162 254 l 2
 136 254 112 268 112 304 c 0
 112 340 136 354 162 354 c 2
 309 354 l 1
 309 374 l 1
 116 708 l 2
 104 729 121 769 136 774 c 0
 170 786 194 774 209 748 c 2
 359 489 l 1
 509 748 l 2
 524 774 548 786 582 774 c 0
 597 769 614 729 602 708 c 2
 409 374 l 1
 409 354 l 1
EndSplineSet
EndChar

StartChar: florin
Encoding: 402 402 101
Width: 720
Flags: MW
HStem: -204 100<88 132 101 132 132 137> 340 100<150 321 163 293 426 557 163 397> 678 100<521 526 526 557>
VStem: 51 556<-172 408>
LayerCount: 2
Fore
SplineSet
397 340 m 1
 260 -134 l 2
 248 -176 203 -204 137 -204 c 2
 101 -204 l 2
 75 -204 51 -190 51 -154 c 0
 51 -118 75 -104 101 -104 c 2
 132 -104 l 2
 159 -104 168 -87 173 -70 c 2
 293 340 l 1
 163 340 l 2
 137 340 113 354 113 390 c 0
 113 426 137 440 163 440 c 2
 321 440 l 1
 398 708 l 2
 410 750 455 778 521 778 c 2
 557 778 l 2
 583 778 607 764 607 728 c 0
 607 692 583 678 557 678 c 2
 526 678 l 2
 499 678 490 661 485 644 c 2
 426 440 l 1
 557 440 l 2
 583 440 607 426 607 390 c 0
 607 354 583 340 557 340 c 2
 397 340 l 1
EndSplineSet
EndChar

StartChar: section
Encoding: 167 167 102
Width: 720
Flags: MW
HStem: -204 21G<347.5 367> 593 20G<308 308> 758 20G<377 396.5>
VStem: 126 492<182 392>
LayerCount: 2
Fore
SplineSet
381 671 m 1
 308 613 l 1
 587 267 l 2
 608 241 618 217 618 195 c 0
 618 169 604 145 575 122 c 2
 487 51 l 1
 524 6 l 2
 535 -8 542 -24 542 -40 c 0
 542 -63 530 -86 508 -104 c 2
 412 -182 l 2
 394 -197 376 -204 358 -204 c 0
 337 -204 318 -194 302 -175 c 2
 200 -49 l 2
 189 -36 184 -23 184 -11 c 0
 184 10 209 37 233 37 c 0
 247 37 262 28 275 12 c 2
 363 -97 l 1
 436 -39 l 1
 157 307 l 2
 136 333 126 357 126 379 c 0
 126 405 140 429 169 452 c 2
 256 522 l 1
 220 568 l 2
 209 582 202 598 202 614 c 0
 202 637 214 660 236 678 c 2
 332 756 l 2
 350 771 368 778 386 778 c 0
 407 778 426 768 442 749 c 2
 544 623 l 2
 555 610 560 597 560 585 c 0
 560 564 535 537 511 537 c 0
 497 537 482 546 469 562 c 2
 381 671 l 1
519 199 m 1
 317 448 l 1
 225 375 l 1
 427 126 l 1
 519 199 l 1
EndSplineSet
EndChar

StartChar: currency
Encoding: 164 164 103
Width: 720
Flags: MW
HStem: 221 89<294 299 299 421> 496 89<287 421 299 421 421 426 299 433> 648 20G<162 182 538 558>
VStem: 187 100<330 476 476 484.5> 433 100<321.5 330 330 476>
LayerCount: 2
Fore
SplineSet
533 476 m 2
 533 330 l 2
 533 313 531 298 527 285 c 1
 581 218 l 2
 590 207 594 195 594 185 c 0
 594 159 571 138 545 138 c 0
 531 138 515 144 502 160 c 2
 450 223 l 1
 441 222 431 221 421 221 c 2
 299 221 l 2
 289 221 279 222 270 223 c 1
 218 160 l 2
 205 144 189 138 175 138 c 0
 149 138 126 159 126 185 c 0
 126 195 130 207 139 218 c 2
 193 285 l 1
 189 298 187 313 187 330 c 2
 187 476 l 2
 187 493 189 508 193 521 c 1
 139 588 l 2
 130 599 126 611 126 621 c 0
 126 647 149 668 175 668 c 0
 189 668 205 662 218 646 c 2
 270 583 l 1
 279 584 289 585 299 585 c 2
 421 585 l 2
 431 585 441 584 450 583 c 1
 502 646 l 2
 515 662 531 668 545 668 c 0
 571 668 594 647 594 621 c 0
 594 611 590 599 581 588 c 2
 527 521 l 1
 531 508 533 493 533 476 c 2
287 496 m 1
 287 310 l 1
 433 310 l 1
 433 496 l 1
 287 496 l 1
EndSplineSet
EndChar

StartChar: quotesingle
Encoding: 39 39 104
Width: 720
Flags: MW
HStem: 758 20G<257 455 455 455>
VStem: 257 198<728 778 728 778>
LayerCount: 2
Fore
SplineSet
455 778 m 1
 455 728 l 1
 412 515 l 2
 405 481 401 455 356 455 c 0
 311 455 307 481 300 515 c 2
 257 728 l 1
 257 778 l 1
 455 778 l 1
EndSplineSet
EndChar

StartChar: quotedblleft
Encoding: 8220 8220 105
Width: 720
Flags: MW
HStem: 758 20G<245.5 288.5 505.5 548.5>
VStem: 139 182<419 432 432 437> 399 182<419 432 432 437>
LayerCount: 2
Fore
SplineSet
321 711 m 2
 321 432 l 2
 321 406 311 382 260 382 c 2
 200 382 l 2
 149 382 139 406 139 432 c 0
 139 442 147 469 151 485 c 2
 209 719 l 2
 218 754 225 778 266 778 c 0
 311 778 321 751 321 711 c 2
581 711 m 2
 581 432 l 2
 581 406 571 382 520 382 c 2
 460 382 l 2
 409 382 399 406 399 432 c 0
 399 442 407 469 411 485 c 2
 469 719 l 2
 478 754 485 778 526 778 c 0
 571 778 581 751 581 711 c 2
EndSplineSet
EndChar

StartChar: guillemotleft
Encoding: 171 171 106
Width: 720
Flags: MW
HStem: 735 20G<335.5 360.5 580.5 605.5>
VStem: 70 567<99 439 99 449>
LayerCount: 2
Fore
SplineSet
153 411 m 1
 375 151 l 2
 386 138 392 127 392 111 c 0
 392 87 375 67 346 67 c 0
 325 67 312 78 300 92 c 2
 89 336 l 2
 74 353 70 363 70 383 c 2
 70 439 l 2
 70 459 74 469 89 486 c 2
 300 730 l 2
 312 744 325 755 346 755 c 0
 375 755 392 735 392 711 c 0
 392 695 386 684 375 671 c 2
 153 411 l 1
398 411 m 1
 620 151 l 2
 631 138 637 127 637 111 c 0
 637 87 620 67 591 67 c 0
 570 67 557 78 545 92 c 2
 334 336 l 2
 319 353 315 363 315 383 c 2
 315 439 l 2
 315 459 319 469 334 486 c 2
 545 730 l 2
 557 744 570 755 591 755 c 0
 620 755 637 735 637 711 c 0
 637 695 631 684 620 671 c 2
 398 411 l 1
EndSplineSet
EndChar

StartChar: guilsinglleft
Encoding: 8249 8249 107
Width: 720
Flags: MW
HStem: 735 20G<539 561>
VStem: 121 478<109 446 109 465.5>
LayerCount: 2
Fore
SplineSet
566 649 m 2
 208 411 l 1
 550 185 l 2
 574 169 599 156 599 123 c 0
 599 95 575 68 547 68 c 0
 531 68 518 76 506 84 c 2
 163 311 l 2
 125 336 121 338 121 383 c 2
 121 446 l 2
 121 485 127 489 159 510 c 2
 504 739 l 2
 516 747 531 755 547 755 c 0
 575 755 599 729 599 701 c 0
 599 676 586 662 566 649 c 2
EndSplineSet
EndChar

StartChar: guilsinglright
Encoding: 8250 8250 108
Width: 720
Flags: MW
HStem: 735 20G<159 181>
VStem: 121 478<109 383 360.5 715>
LayerCount: 2
Fore
SplineSet
512 411 m 1
 154 649 l 2
 134 662 121 676 121 701 c 0
 121 729 145 755 173 755 c 0
 189 755 204 747 216 739 c 2
 561 510 l 2
 593 489 599 485 599 446 c 2
 599 383 l 2
 599 338 595 336 557 311 c 2
 214 84 l 2
 202 76 189 68 173 68 c 0
 145 68 121 95 121 123 c 0
 121 156 146 169 170 185 c 2
 512 411 l 1
EndSplineSet
EndChar

StartChar: endash
Encoding: 8211 8211 109
Width: 720
Flags: MW
HStem: 338 100<187.5 512 208 512>
VStem: 148 424<370.5 405>
LayerCount: 2
Fore
SplineSet
208 438 m 2
 512 438 l 2
 553 438 572 424 572 388 c 0
 572 353 553 338 512 338 c 2
 208 338 l 2
 167 338 148 353 148 388 c 0
 148 422 167 438 208 438 c 2
EndSplineSet
EndChar

StartChar: dagger
Encoding: 8224 8224 110
Width: 720
Flags: MW
HStem: 518 96<222 312 235 312 408 485> 717 20G<342 378>
VStem: 312 96<209 518 614 687>
LayerCount: 2
Fore
SplineSet
312 614 m 1
 312 687 l 2
 312 719 324 737 360 737 c 0
 396 737 408 719 408 687 c 2
 408 614 l 1
 485 614 l 2
 511 614 535 602 535 566 c 0
 535 530 511 518 485 518 c 2
 408 518 l 1
 408 209 l 2
 408 177 396 159 360 159 c 0
 324 159 312 177 312 209 c 2
 312 518 l 1
 235 518 l 2
 209 518 185 530 185 566 c 0
 185 602 209 614 235 614 c 2
 312 614 l 1
EndSplineSet
EndChar

StartChar: daggerdbl
Encoding: 8225 8225 111
Width: 720
Flags: MW
HStem: 282 96<222 312 235 312 408 485> 518 96<222 312 235 312 408 485> 717 20G<342 378>
VStem: 312 96<209 282 193 282 378 518 614 687>
LayerCount: 2
Fore
SplineSet
312 378 m 1
 312 518 l 1
 235 518 l 2
 209 518 185 530 185 566 c 0
 185 602 209 614 235 614 c 2
 312 614 l 1
 312 687 l 2
 312 719 324 737 360 737 c 0
 396 737 408 719 408 687 c 2
 408 614 l 1
 485 614 l 2
 511 614 535 602 535 566 c 0
 535 530 511 518 485 518 c 2
 408 518 l 1
 408 378 l 1
 485 378 l 2
 511 378 535 366 535 330 c 0
 535 294 511 282 485 282 c 2
 408 282 l 1
 408 209 l 2
 408 177 396 159 360 159 c 0
 324 159 312 177 312 209 c 2
 312 282 l 1
 235 282 l 2
 209 282 185 294 185 330 c 0
 185 366 209 378 235 378 c 2
 312 378 l 1
EndSplineSet
EndChar

StartChar: periodcentered
Encoding: 183 183 112
Width: 720
Flags: MW
HStem: 296 184<313 396 324 396>
VStem: 261 198<360 416 350.5 425.5>
LayerCount: 2
Fore
SplineSet
396 296 m 2
 324 296 l 2
 302 296 286 296 272 315 c 0
 261 330 261 341 261 360 c 2
 261 416 l 2
 261 435 261 446 272 461 c 0
 286 480 302 480 324 480 c 2
 396 480 l 2
 418 480 434 480 448 461 c 0
 459 446 459 435 459 416 c 2
 459 360 l 2
 459 341 459 330 448 315 c 0
 434 296 418 296 396 296 c 2
EndSplineSet
EndChar

StartChar: paragraph
Encoding: 182 182 113
Width: 720
Flags: MW
HStem: 0 21G<351 387 539 575> 678 100<419 507 419 419>
VStem: 319 100<50 422 422 422> 507 100<50 678 678 678>
LayerCount: 2
Fore
SplineSet
319 422 m 1
 149 422 l 2
 121 422 99 446 99 472 c 2
 99 728 l 2
 99 754 121 778 149 778 c 2
 540 778 l 2
 597 778 607 761 607 707 c 2
 607 50 l 2
 607 18 593 0 557 0 c 0
 521 0 507 18 507 50 c 2
 507 678 l 1
 419 678 l 1
 419 50 l 2
 419 18 405 0 369 0 c 0
 333 0 319 18 319 50 c 2
 319 422 l 1
EndSplineSet
EndChar

StartChar: bullet
Encoding: 8226 8226 114
Width: 720
Flags: MW
HStem: 540 20G<291 429 429 444>
VStem: 190 340<296 477 286 487>
LayerCount: 2
Fore
SplineSet
530 477 m 2
 530 296 l 2
 530 276 523 263 495 239 c 0
 474 221 459 213 429 213 c 2
 291 213 l 2
 261 213 246 221 225 239 c 0
 197 263 190 276 190 296 c 2
 190 477 l 2
 190 497 197 510 225 534 c 0
 246 552 261 560 291 560 c 2
 429 560 l 2
 459 560 474 552 495 534 c 0
 523 510 530 497 530 477 c 2
EndSplineSet
EndChar

StartChar: quotesinglbase
Encoding: 8218 8218 115
Width: 720
Flags: MW
HStem: -204 21G<301.5 344.5>
VStem: 269 182<137 142 142 155>
LayerCount: 2
Fore
SplineSet
269 -137 m 2
 269 142 l 2
 269 168 279 192 330 192 c 2
 390 192 l 2
 441 192 451 168 451 142 c 0
 451 132 443 105 439 89 c 2
 381 -145 l 2
 372 -180 365 -204 324 -204 c 0
 279 -204 269 -177 269 -137 c 2
EndSplineSet
EndChar

StartChar: quotedblbase
Encoding: 8222 8222 116
Width: 720
Flags: MW
HStem: -204 21G<171.5 214.5 431.5 474.5>
VStem: 139 182<137 142 142 155> 399 182<137 142 142 155>
LayerCount: 2
Fore
SplineSet
139 -137 m 2
 139 142 l 2
 139 168 149 192 200 192 c 2
 260 192 l 2
 311 192 321 168 321 142 c 0
 321 132 313 105 309 89 c 2
 251 -145 l 2
 242 -180 235 -204 194 -204 c 0
 149 -204 139 -177 139 -137 c 2
399 -137 m 2
 399 142 l 2
 399 168 409 192 460 192 c 2
 520 192 l 2
 571 192 581 168 581 142 c 0
 581 132 573 105 569 89 c 2
 511 -145 l 2
 502 -180 495 -204 454 -204 c 0
 409 -204 399 -177 399 -137 c 2
EndSplineSet
EndChar

StartChar: quotedblright
Encoding: 8221 8221 117
Width: 720
Flags: MW
HStem: 758 20G<200 260 260 285.5 460 520 520 545.5>
VStem: 139 182<723 728 728 741> 399 182<723 728 728 741>
LayerCount: 2
Fore
SplineSet
139 449 m 2
 139 728 l 2
 139 754 149 778 200 778 c 2
 260 778 l 2
 311 778 321 754 321 728 c 0
 321 718 313 691 309 675 c 2
 251 441 l 2
 242 406 235 382 194 382 c 0
 149 382 139 409 139 449 c 2
399 449 m 2
 399 728 l 2
 399 754 409 778 460 778 c 2
 520 778 l 2
 571 778 581 754 581 728 c 0
 581 718 573 691 569 675 c 2
 511 441 l 2
 502 406 495 382 454 382 c 0
 409 382 399 409 399 449 c 2
EndSplineSet
EndChar

StartChar: guillemotright
Encoding: 187 187 118
Width: 720
Flags: MW
HStem: 735 20G<114.5 139.5 359.5 384.5>
VStem: 83 567<99 383 373 723>
LayerCount: 2
Fore
SplineSet
567 411 m 1
 345 671 l 2
 334 684 328 695 328 711 c 0
 328 735 345 755 374 755 c 0
 395 755 408 744 420 730 c 2
 631 486 l 2
 646 469 650 459 650 439 c 2
 650 383 l 2
 650 363 646 353 631 336 c 2
 420 92 l 2
 408 78 395 67 374 67 c 0
 345 67 328 87 328 111 c 0
 328 127 334 138 345 151 c 2
 567 411 l 1
322 411 m 1
 100 671 l 2
 89 684 83 695 83 711 c 0
 83 735 100 755 129 755 c 0
 150 755 163 744 175 730 c 2
 386 486 l 2
 401 469 405 459 405 439 c 2
 405 383 l 2
 405 363 401 353 386 336 c 2
 175 92 l 2
 163 78 150 67 129 67 c 0
 100 67 83 87 83 111 c 0
 83 127 89 138 100 151 c 2
 322 411 l 1
EndSplineSet
EndChar

StartChar: ellipsis
Encoding: 8230 8230 119
Width: 720
Flags: MW
HStem: 128 184<114 135 125 135 355 365 585 595>
VStem: 62 136<192 248 182.5 257.5> 292 136<192 248 182.5 257.5> 522 136<192 248 182.5 257.5>
LayerCount: 2
Fore
SplineSet
135 128 m 2
 125 128 l 2
 103 128 87 128 73 147 c 0
 62 162 62 173 62 192 c 2
 62 248 l 2
 62 267 62 278 73 293 c 0
 87 312 103 312 125 312 c 2
 135 312 l 2
 157 312 173 312 187 293 c 0
 198 278 198 267 198 248 c 2
 198 192 l 2
 198 173 198 162 187 147 c 0
 173 128 157 128 135 128 c 2
365 128 m 2
 355 128 l 2
 333 128 317 128 303 147 c 0
 292 162 292 173 292 192 c 2
 292 248 l 2
 292 267 292 278 303 293 c 0
 317 312 333 312 355 312 c 2
 365 312 l 2
 387 312 403 312 417 293 c 0
 428 278 428 267 428 248 c 2
 428 192 l 2
 428 173 428 162 417 147 c 0
 403 128 387 128 365 128 c 2
595 128 m 2
 585 128 l 2
 563 128 547 128 533 147 c 0
 522 162 522 173 522 192 c 2
 522 248 l 2
 522 267 522 278 533 293 c 0
 547 312 563 312 585 312 c 2
 595 312 l 2
 617 312 633 312 647 293 c 0
 658 278 658 267 658 248 c 2
 658 192 l 2
 658 173 658 162 647 147 c 0
 633 128 617 128 595 128 c 2
EndSplineSet
EndChar

StartChar: perthousand
Encoding: 8240 8240 120
Width: 720
Flags: MW
HStem: 0 184<308 391 319 391 319 571 571 643> 594 184<95 178 106 178> 686 20G<438.5 459.5>
VStem: 43 198<658 714 648.5 723.5> 256 198<64 120 54.5 129.5> 508 198<64 120 54.5 129.5>
LayerCount: 2
Fore
SplineSet
483 623 m 2xbc
 114 85 l 2
 106 75 92 69 77 69 c 0
 49 69 28 89 28 118 c 0
 28 130 32 143 39 152 c 2
 404 685 l 2
 415 701 431 706 446 706 c 0
 473 706 494 685 494 656 c 0
 494 644 490 632 483 623 c 2xbc
391 0 m 2
 319 0 l 2
 297 0 281 0 267 19 c 0
 256 34 256 45 256 64 c 2
 256 120 l 2
 256 139 256 150 267 165 c 0
 281 184 297 184 319 184 c 2
 391 184 l 2
 413 184 429 184 443 165 c 0
 454 150 454 139 454 120 c 2
 454 64 l 2
 454 45 454 34 443 19 c 0
 429 0 413 0 391 0 c 2
178 594 m 2xd4
 106 594 l 2
 84 594 68 594 54 613 c 0
 43 628 43 639 43 658 c 2
 43 714 l 2
 43 733 43 744 54 759 c 0
 68 778 84 778 106 778 c 2
 178 778 l 2
 200 778 216 778 230 759 c 0
 241 744 241 733 241 714 c 2
 241 658 l 2
 241 639 241 628 230 613 c 0
 216 594 200 594 178 594 c 2xd4
643 0 m 2
 571 0 l 2
 549 0 533 0 519 19 c 0
 508 34 508 45 508 64 c 2
 508 120 l 2
 508 139 508 150 519 165 c 0
 533 184 549 184 571 184 c 2
 643 184 l 2
 665 184 681 184 695 165 c 0
 706 150 706 139 706 120 c 2
 706 64 l 2
 706 45 706 34 695 19 c 0
 681 0 665 0 643 0 c 2
EndSplineSet
Ligature2: "'frac' Diagonal Fractions in Latin lookup 3 subtable" zero fraction zero zero
Ligature2: "'frac' Diagonal Fractions in Latin lookup 3 subtable" zero slash zero zero
EndChar

StartChar: questiondown
Encoding: 191 191 121
Width: 720
Flags: MW
HStem: 20 96<221 262 262 303> 588 20G<441 477> 678 100<445 472.5>
VStem: 113 100<158 195 158 205 158 223> 409 100<497 558 467 574 715.5 742.5>
LayerCount: 2
Fore
SplineSet
213 195 m 1
 213 158 l 1
 262 116 l 1
 515 333 l 2
 527 343 541 353 557 353 c 0
 586 353 607 329 607 301 c 0
 607 277 584 260 568 246 c 2
 303 20 l 2
 291 9 280 0 262 0 c 0
 243 0 235 8 221 20 c 2
 139 90 l 2
 113 112 113 117 113 150 c 2
 113 205 l 2
 113 241 117 244 144 268 c 2
 409 497 l 1
 409 558 l 2
 409 590 423 608 459 608 c 0
 495 608 509 590 509 558 c 2
 509 484 l 2
 509 450 504 447 479 426 c 2
 213 195 l 1
459 678 m 0
 431 678 409 701 409 729 c 0
 409 756 431 778 459 778 c 0
 486 778 509 756 509 729 c 0
 509 702 486 678 459 678 c 0
EndSplineSet
EndChar

StartChar: grave
Encoding: 96 96 122
Width: 720
Flags: MW
HStem: 758 20G<217.5 235.5>
VStem: 179 274
LayerCount: 2
Fore
SplineSet
252 773 m 2
 434 668 l 2
 448 660 453 647 453 634 c 0
 453 610 434 583 409 583 c 0
 403 583 397 585 391 588 c 2
 200 682 l 2
 186 689 180 701 179 714 c 0
 177 743 203 778 232 778 c 0
 239 778 247 776 252 773 c 2
EndSplineSet
EndChar

StartChar: acute
Encoding: 180 180 123
Width: 720
Flags: MW
HStem: 758 20G<484.5 502.5>
VStem: 267 274
LayerCount: 2
Fore
SplineSet
286 668 m 2
 468 773 l 2
 473 776 481 778 488 778 c 0
 517 778 543 743 541 714 c 0
 540 701 534 689 520 682 c 2
 329 588 l 2
 323 585 317 583 311 583 c 0
 286 583 267 610 267 634 c 0
 267 647 272 660 286 668 c 2
EndSplineSet
EndChar

StartChar: circumflex
Encoding: 710 710 124
Width: 720
Flags: MW
HStem: 676 86<314 360>
VStem: 172 376<618 636>
LayerCount: 2
Fore
SplineSet
191 665 m 2
 314 762 l 2
 328 773 342 778 360 778 c 0
 378 778 392 773 406 762 c 2
 529 665 l 2
 542 655 548 642 548 630 c 0
 548 606 527 585 502 585 c 0
 493 585 483 589 474 595 c 2
 360 676 l 1
 246 595 l 2
 237 589 227 585 218 585 c 0
 193 585 172 606 172 630 c 0
 172 642 178 655 191 665 c 2
EndSplineSet
EndChar

StartChar: tilde
Encoding: 732 732 125
Width: 720
Flags: MW
HStem: 702 20G<467 467> 752 20G<208 222.5> 762 20G<509.5 531.5>
VStem: 151 418<642 752>
LayerCount: 2
Fore
SplineSet
242 769 m 2xd0
 467 722 l 1
 475 744 l 2
 485 772 500 782 519 782 c 0
 544 782 569 766 569 738 c 0
 569 732 568 724 566 717 c 2xb0
 549 661 l 2
 540 634 523 622 501 622 c 0
 494 622 483 624 478 625 c 2
 253 672 l 1
 245 650 l 2
 235 622 220 612 201 612 c 0
 176 612 151 628 151 656 c 0
 151 662 152 670 154 677 c 2
 171 733 l 2
 180 760 197 772 219 772 c 0
 226 772 237 770 242 769 c 2xd0
EndSplineSet
EndChar

StartChar: macron
Encoding: 175 175 126
Width: 720
Flags: MW
HStem: 640 97<210.5 495 226 495>
VStem: 180 360<671.5 707>
LayerCount: 2
Fore
SplineSet
226 737 m 2
 495 737 l 2
 526 737 540 725 540 689 c 0
 540 654 526 640 495 640 c 2
 226 640 l 2
 195 640 180 654 180 689 c 0
 180 725 195 737 226 737 c 2
EndSplineSet
EndChar

StartChar: breve
Encoding: 728 728 127
Width: 720
Flags: MW
HStem: 618 90<267.5 400 320 400 400 417 320 441> 744 20G<203 219.5 500.5 517>
VStem: 165 390<717.5 734.5>
LayerCount: 2
Fore
SplineSet
441 618 m 2
 279 618 l 2
 256 618 233 624 213 647 c 2
 184 682 l 2
 172 697 165 712 165 723 c 0
 165 746 192 764 214 764 c 0
 225 764 238 758 246 748 c 2
 258 734 l 2
 279 709 286 708 320 708 c 2
 400 708 l 2
 434 708 441 709 462 734 c 2
 474 748 l 2
 482 758 495 764 506 764 c 0
 528 764 555 746 555 723 c 0
 555 712 548 697 536 682 c 2
 507 647 l 2
 487 624 464 618 441 618 c 2
EndSplineSet
EndChar

StartChar: dotaccent
Encoding: 729 729 128
Width: 720
Flags: MW
HStem: 642 136<297 365 310 365>
VStem: 265 145<687 733 670 750>
LayerCount: 2
Fore
SplineSet
265 687 m 2
 265 733 l 2
 265 767 284 778 310 778 c 2
 365 778 l 2
 391 778 410 767 410 733 c 2
 410 687 l 2
 410 653 391 642 365 642 c 2
 310 642 l 2
 284 642 265 653 265 687 c 2
EndSplineSet
EndChar

StartChar: dieresis
Encoding: 168 168 129
Width: 720
Flags: MW
HStem: 593 185<211 247 211 247.5 466 502> 758 20G<211 247 466 502>
VStem: 179 100<654 716 639 733> 434 100<654 716 639 733>
LayerCount: 2
Fore
SplineSet
279 716 m 2x70
 279 654 l 2
 279 624 266 593 229 593 c 0
 192 593 179 624 179 654 c 2xb0
 179 716 l 2
 179 750 193 778 229 778 c 0
 265 778 279 750 279 716 c 2x70
534 716 m 2
 534 654 l 2
 534 624 521 593 484 593 c 0
 447 593 434 624 434 654 c 2
 434 716 l 2
 434 750 448 778 484 778 c 0
 520 778 534 750 534 716 c 2
EndSplineSet
EndChar

StartChar: ring
Encoding: 730 730 130
Width: 720
Flags: MW
HStem: 511 89<291 303 303 417> 689 89<303 417 417 429 291 417>
VStem: 191 100<620 669 669 689 600 705.5> 429 100<600 620 620 669 583.5 689 583.5 689>
LayerCount: 2
Fore
SplineSet
529 669 m 2
 529 620 l 2
 529 547 491 511 417 511 c 2
 303 511 l 2
 229 511 191 547 191 620 c 2
 191 669 l 2
 191 742 229 778 303 778 c 2
 417 778 l 2
 491 778 529 742 529 669 c 2
429 600 m 1
 429 689 l 1
 291 689 l 1
 291 600 l 1
 429 600 l 1
EndSplineSet
EndChar

StartChar: cedilla
Encoding: 184 184 131
Width: 720
Flags: MW
HStem: -204 93<274 376 290 376 290 405>
VStem: 376 93<-111 10>
LayerCount: 2
Fore
SplineSet
376 10 m 1
 469 10 l 1
 469 -144 l 2
 469 -185 445 -204 405 -204 c 2
 290 -204 l 2
 258 -204 240 -190 240 -157 c 0
 240 -125 258 -111 290 -111 c 2
 376 -111 l 1
 376 10 l 1
EndSplineSet
EndChar

StartChar: hungarumlaut
Encoding: 733 733 132
Width: 720
Flags: MW
HStem: 758 20G<321.5 341.5 514.5 533>
VStem: 215 364<619.5 738.5>
LayerCount: 2
Fore
SplineSet
401 657 m 2
 490 765 l 2
 497 772 509 778 520 778 c 0
 546 778 579 753 579 724 c 0
 579 714 576 705 568 697 c 2
 468 596 l 2
 460 588 452 583 441 583 c 0
 415 583 392 607 392 633 c 0
 392 641 394 649 401 657 c 2
223 653 m 2
 297 761 l 2
 304 771 315 778 328 778 c 0
 355 778 389 754 389 724 c 0
 389 716 387 709 381 701 c 2
 294 597 l 2
 286 587 277 583 265 583 c 0
 238 583 215 607 215 632 c 0
 215 639 218 645 223 653 c 2
EndSplineSet
EndChar

StartChar: ogonek
Encoding: 731 731 133
Width: 720
Flags: MW
HStem: -204 93<311 446 360 446 360 446>
VStem: 267 93<-111 10 -111 10 -111 10>
LayerCount: 2
Fore
SplineSet
267 10 m 1
 360 10 l 1
 360 -111 l 1
 446 -111 l 2
 478 -111 496 -125 496 -157 c 0
 496 -190 478 -204 446 -204 c 2
 331 -204 l 2
 291 -204 267 -185 267 -144 c 2
 267 10 l 1
EndSplineSet
EndChar

StartChar: caron
Encoding: 711 711 134
Width: 720
Flags: MW
HStem: 601 86<314 360 360 406> 667 20G<360 360> 758 20G<205.5 222.5 497.5 514.5>
VStem: 172 376<727 745>
LayerCount: 2
Fore
SplineSet
360 687 m 1x70
 474 768 l 2
 483 774 493 778 502 778 c 0
 527 778 548 757 548 733 c 0
 548 721 542 708 529 698 c 2
 406 601 l 2
 392 590 378 585 360 585 c 0
 342 585 328 590 314 601 c 2
 191 698 l 2xb0
 178 708 172 721 172 733 c 0
 172 757 193 778 218 778 c 0
 227 778 237 774 246 768 c 2
 360 687 l 1x70
EndSplineSet
EndChar

StartChar: emdash
Encoding: 8212 8212 135
Width: 720
Flags: MW
HStem: 338 100<73.5 626 94 626>
VStem: 34 652<370.5 405>
LayerCount: 2
Fore
SplineSet
94 438 m 2
 626 438 l 2
 667 438 686 424 686 388 c 0
 686 353 667 338 626 338 c 2
 94 338 l 2
 53 338 34 353 34 388 c 0
 34 422 53 438 94 438 c 2
EndSplineSet
EndChar

StartChar: AE
Encoding: 198 198 136
Width: 720
Flags: MW
HStem: 0 100<396 557 460 557 460 557> 220 100<313 360 313 360 277 360> 339 100<460 557> 678 100<460 557 460 460>
VStem: 360 100<100 220 220 220 320 339 100 439>
LayerCount: 2
Fore
SplineSet
460 339 m 1
 460 100 l 1
 557 100 l 2
 583 100 607 86 607 50 c 0
 607 14 583 0 557 0 c 2
 409 0 l 2
 383 0 360 14 360 50 c 2
 360 220 l 1
 277 220 l 1xf8
 212 40 l 2
 204 17 186 -8 149 0 c 0
 112 8 108 46 117 72 c 2
 351 728 l 2
 362 760 379 778 410 778 c 2
 557 778 l 2
 583 778 607 764 607 728 c 0
 607 692 583 678 557 678 c 2
 460 678 l 1
 460 439 l 1
 557 439 l 2
 583 439 607 425 607 389 c 0
 607 353 583 339 557 339 c 2
 460 339 l 1
360 320 m 1
 360 439 l 1
 356 439 l 1
 313 320 l 1
 360 320 l 1
EndSplineSet
EndChar

StartChar: ordfeminine
Encoding: 170 170 137
Width: 720
Flags: MW
HStem: 337 96<270.5 367 289 343> 525 96<288 290 290 400> 682 96<277 393 290 382>
VStem: 154 96<466 497 497 502 444.5 516.5> 443 94
LayerCount: 2
Fore
SplineSet
382 682 m 2
 290 682 l 2
 264 682 229 687 229 729 c 0
 229 769 260 778 290 778 c 2
 393 778 l 2
 434 778 464 774 497 741 c 0
 529 709 532 686 533 645 c 2
 541 391 l 2
 542 364 528 337 496 337 c 0
 474 337 457 352 450 380 c 1
 397 353 l 2
 375 342 362 337 343 337 c 2
 288 337 l 2
 253 337 226 343 197 366 c 0
 164 394 154 425 154 466 c 2
 154 497 l 2
 154 536 164 563 194 590 c 0
 223 615 254 621 288 621 c 2
 438 621 l 1
 438 628 l 2
 438 676 428 682 382 682 c 2
400 525 m 2
 290 525 l 2
 274 525 250 522 250 502 c 2
 250 453 l 2
 250 436 275 433 289 433 c 2
 367 433 l 1
 443 472 l 1
 443 481 l 2
 443 515 433 525 400 525 c 2
EndSplineSet
EndChar

StartChar: Lslash
Encoding: 321 321 138
Width: 720
Flags: MW
HStem: 0 100<243 587 243 587> 758 20G<175 211>
VStem: 143 100<100 276 276 276 436 728>
LayerCount: 2
Fore
SplineSet
243 325 m 1
 243 100 l 1
 587 100 l 2
 613 100 637 86 637 50 c 0
 637 14 613 0 587 0 c 2
 143 0 l 1
 143 276 l 1
 95 253 l 2
 86 249 78 247 70 247 c 0
 41 247 20 272 20 298 c 0
 20 315 29 333 51 343 c 2
 143 387 l 1
 143 728 l 2
 143 760 157 778 193 778 c 0
 229 778 243 760 243 728 c 2
 243 436 l 1
 407 516 l 2
 416 520 424 522 432 522 c 0
 461 522 481 497 481 471 c 0
 481 454 471 437 450 426 c 2
 243 325 l 1
EndSplineSet
EndChar

StartChar: Oslash
Encoding: 216 216 139
Width: 720
Flags: MW
HStem: 0 100<349 370 349 389.5> 572 20G<533 533> 573 20G<420 420> 675 20G<480 480 594 594> 678 100<349.5 370>
VStem: 113 100<373 405.5 373 413.5> 507 100<376.5 406>
LayerCount: 2
Fore
SplineSet
140 502 m 2xb6
 237 693 l 2
 263 743 300 778 360 778 c 0xae
 413 778 459 743 480 695 c 1xb6
 493 718 l 2
 508 745 522 778 558 778 c 0
 583 778 606 756 606 730 c 0
 606 718 600 706 594 695 c 2
 533 592 l 1
 577 502 l 2xce
 596 463 607 432 607 388 c 0
 607 350 595 313 579 280 c 2
 481 82 l 2
 457 33 419 0 360 0 c 0
 307 0 259 32 238 81 c 1
 212 36 l 2
 200 15 187 0 162 0 c 0
 136 0 113 22 113 48 c 0
 113 67 124 85 134 101 c 2
 185 188 l 1
 140 280 l 2
 121 319 113 349 113 393 c 0
 113 434 122 466 140 502 c 2xb6
420 593 m 1
 393 648 l 2
 384 664 380 678 360 678 c 0
 339 678 333 663 326 648 c 2
 236 468 l 2
 223 443 213 420 213 391 c 0
 213 355 224 333 239 300 c 2
 244 291 l 1
 420 593 l 1
474 489 m 1
 298 185 l 1
 323 133 l 2
 331 116 338 100 360 100 c 0
 380 100 386 114 393 129 c 2
 485 312 l 2
 499 339 507 361 507 392 c 0
 507 420 492 448 481 473 c 2
 474 489 l 1
EndSplineSet
EndChar

StartChar: OE
Encoding: 338 338 140
Width: 720
Flags: MW
HStem: 0 100<350 360 350 360 460 557> 339 100<460 557 460 557> 678 100<349.5 557 460 557 460 460>
VStem: 113 100<373 402.5 373 407.5> 360 100<100 339 439 678>
LayerCount: 2
Fore
SplineSet
557 0 m 2
 360 0 l 2
 302 0 262 35 238 83 c 2
 146 267 l 2
 126 308 113 338 113 386 c 0
 113 429 120 458 139 497 c 2
 239 696 l 2
 263 743 304 778 360 778 c 2
 557 778 l 2
 583 778 607 764 607 728 c 0
 607 692 583 678 557 678 c 2
 460 678 l 1
 460 439 l 1
 557 439 l 2
 583 439 607 425 607 389 c 0
 607 353 583 339 557 339 c 2
 460 339 l 1
 460 100 l 1
 557 100 l 2
 583 100 607 86 607 50 c 0
 607 14 583 0 557 0 c 2
360 100 m 1
 360 678 l 1
 339 678 334 664 326 648 c 2
 236 467 l 2
 221 438 213 419 213 386 c 0
 213 360 219 342 230 320 c 2
 326 130 l 2
 333 116 340 100 360 100 c 1
EndSplineSet
EndChar

StartChar: ordmasculine
Encoding: 186 186 141
Width: 720
Flags: MW
HStem: 337 95<305 397 330 397> 683 95<320.5 397 330 397>
VStem: 167 95<487 628> 465 95<487 628>
LayerCount: 2
Fore
SplineSet
167 487 m 2
 167 628 l 2
 167 681 178 700 218 734 c 0
 256 765 274 778 330 778 c 2
 397 778 l 2
 453 778 471 765 509 734 c 0
 549 700 560 681 560 628 c 2
 560 487 l 2
 560 435 547 414 505 378 c 0
 464 345 447 337 397 337 c 2
 330 337 l 2
 280 337 263 345 222 378 c 0
 180 414 167 435 167 487 c 2
262 628 m 2
 262 487 l 2
 262 475 266 467 286 450 c 0
 301 437 311 432 330 432 c 2
 397 432 l 2
 416 432 426 437 441 450 c 0
 461 467 465 475 465 487 c 2
 465 628 l 2
 465 640 461 648 441 665 c 0
 426 678 416 683 397 683 c 2
 330 683 l 2
 311 683 301 678 286 665 c 0
 266 648 262 640 262 628 c 2
EndSplineSet
EndChar

StartChar: ae
Encoding: 230 230 142
Width: 720
Flags: MW
HStem: 0 97<409 602> 200 96<401 534 401 592 401 534> 241 96<205 218 218 277> 443 96<155 229 169 216 442 450 450 487>
VStem: 65 100<125 141 141 199 123 217 123 253> 306 95<132 137 137 200 132 207 132 218.5> 534 100<296 378>
LayerCount: 2
Fore
SplineSet
342 38 m 1xde
 296 14 l 2
 275 3 268 0 237 0 c 2
 201 0 l 2
 129 0 65 45 65 125 c 2
 65 217 l 2
 65 289 121 337 200 337 c 2
 301 337 l 1xbe
 301 359 l 2
 301 431 285 443 216 443 c 2
 169 443 l 2
 141 443 103 449 103 491 c 0
 103 532 137 539 169 539 c 2
 229 539 l 2
 279 539 315 534 351 497 c 1
 369 514 l 2
 397 538 409 539 433 539 c 2
 507 539 l 2
 539 539 552 535 576 510 c 2
 601 483 l 2
 630 454 634 423 634 378 c 2
 634 271 l 2
 634 216 628 200 592 200 c 2
 401 200 l 1
 401 137 l 2
 401 127 406 122 419 110 c 0
 433 97 442 96 459 96 c 2
 592 97 l 2
 612 97 634 90 634 49 c 0
 634 7 610 0 592 0 c 2
 409 0 l 2
 389 0 382 0 368 13 c 2
 342 38 l 1xde
487 443 m 2
 450 443 l 2
 434 443 428 439 416 427 c 0
 402 413 401 409 401 397 c 2
 401 296 l 1
 534 296 l 1
 534 390 l 2xde
 534 400 532 409 517 424 c 0
 502 439 497 443 487 443 c 2
277 241 m 2xbe
 218 241 l 2
 192 241 165 234 165 199 c 2
 165 141 l 2
 165 105 196 96 219 96 c 2
 254 96 l 1
 306 124 l 1
 306 207 l 2
 306 230 300 241 277 241 c 2xbe
EndSplineSet
EndChar

StartChar: dotlessi
Encoding: 305 305 143
Width: 720
Flags: MW
HStem: 0 96<224 314 238 314 410 482> 443 96<224 339 238 314>
VStem: 314 96<96 443 443 443>
LayerCount: 2
Fore
SplineSet
410 472 m 2
 410 96 l 1
 482 96 l 2
 514 96 548 89 548 48 c 0
 548 6 510 0 482 0 c 2
 238 0 l 2
 210 0 172 6 172 48 c 0
 172 89 206 96 238 96 c 2
 314 96 l 1
 314 443 l 1
 238 443 l 2
 210 443 172 449 172 491 c 0
 172 532 206 539 238 539 c 2
 339 539 l 2
 394 539 410 529 410 472 c 2
EndSplineSet
EndChar

StartChar: lslash
Encoding: 322 322 144
Width: 720
Flags: MW
HStem: 0 96<224 314 238 314 410 482> 641 96<224 339 238 314>
VStem: 314 96<96 311 311 311 466 641 641 641>
LayerCount: 2
Fore
SplineSet
168 344 m 2
 314 418 l 1
 314 641 l 1
 238 641 l 2
 210 641 172 647 172 689 c 0
 172 730 206 737 238 737 c 2
 339 737 l 2
 394 737 410 727 410 670 c 2
 410 466 l 1
 513 519 l 2
 523 524 533 526 542 526 c 0
 570 526 590 505 590 481 c 0
 590 465 580 447 557 435 c 2
 410 360 l 1
 410 96 l 1
 482 96 l 2
 514 96 548 89 548 48 c 0
 548 6 510 0 482 0 c 2
 238 0 l 2
 210 0 172 6 172 48 c 0
 172 89 206 96 238 96 c 2
 314 96 l 1
 314 311 l 1
 214 261 l 2
 204 256 195 253 186 253 c 0
 158 253 137 277 137 301 c 0
 137 317 147 334 168 344 c 2
EndSplineSet
EndChar

StartChar: oslash
Encoding: 248 248 145
Width: 720
Flags: MW
HStem: 0 96<293 398 322 398> 443 96<307 398 322 398>
VStem: 125 96<200 360 200 360 200 392> 499 96<179 340 340 340>
LayerCount: 2
Fore
SplineSet
102 83 m 2
 135 115 l 1
 128 132 125 152 125 179 c 2
 125 360 l 2
 125 424 138 446 186 485 c 0
 233 524 255 539 322 539 c 2
 398 539 l 2
 458 539 482 526 520 496 c 1
 546 521 l 2
 559 533 573 539 586 539 c 0
 612 539 634 519 634 493 c 0
 634 480 628 466 614 453 c 2
 585 425 l 1
 592 408 595 388 595 360 c 2
 595 179 l 2
 595 116 579 92 529 50 c 0
 479 8 459 0 398 0 c 2
 322 0 l 2
 264 0 243 7 198 44 c 1
 172 18 l 2
 159 5 144 0 131 0 c 0
 106 0 85 21 85 46 c 0
 85 58 90 71 102 83 c 2
464 122 m 0
 492 146 499 159 499 179 c 2
 499 340 l 1
 268 112 l 1
 283 101 298 96 322 96 c 2
 398 96 l 2
 428 96 443 104 464 122 c 0
221 360 m 2
 221 200 l 1
 451 427 l 1
 436 438 421 443 398 443 c 2
 322 443 l 2
 292 443 277 435 256 417 c 0
 228 393 221 380 221 360 c 2
EndSplineSet
EndChar

StartChar: oe
Encoding: 339 339 146
Width: 720
Flags: MW
HStem: 0 97<409 602> 200 96<399 538 399 592 399 538> 443 96<206.5 218 218 259 440 448 448 491>
VStem: 65 96<133 139 139 385> 303 96<137 200 296 396 396 397> 538 96<296 378>
LayerCount: 2
Fore
SplineSet
592 0 m 2
 409 0 l 2
 389 0 382 0 368 13 c 2
 348 32 l 1
 327 13 l 2
 317 4 307 0 280 0 c 2
 192 0 l 2
 153 0 140 5 108 34 c 0
 75 63 65 79 65 122 c 2
 65 395 l 2
 65 446 75 463 108 495 c 0
 141 528 157 539 205 539 c 2
 260 539 l 2
 301 539 316 530 333 514 c 2
 351 497 l 1
 369 514 l 2
 397 538 409 539 433 539 c 2
 507 539 l 2
 539 539 552 535 576 510 c 2
 601 483 l 2
 630 454 634 423 634 378 c 2
 634 271 l 2
 634 216 628 200 592 200 c 2
 399 200 l 1
 399 137 l 2
 399 127 404 122 417 110 c 0
 431 97 440 96 457 96 c 2
 592 97 l 2
 612 97 634 90 634 49 c 0
 634 7 610 0 592 0 c 2
161 385 m 2
 161 139 l 2
 161 127 163 120 174 109 c 0
 188 95 192 96 209 96 c 2
 258 96 l 2
 271 96 278 100 289 112 c 0
 298 121 303 128 303 137 c 2
 303 396 l 2
 303 411 297 417 287 428 c 0
 277 438 271 443 259 443 c 2
 218 443 l 2
 195 443 190 440 178 429 c 0
 161 411 161 406 161 385 c 2
491 443 m 2
 448 443 l 2
 432 443 426 439 414 427 c 0
 400 413 399 409 399 397 c 2
 399 296 l 1
 538 296 l 1
 538 390 l 2
 538 400 536 409 521 424 c 0
 506 439 501 443 491 443 c 2
EndSplineSet
EndChar

StartChar: germandbls
Encoding: 223 223 147
Width: 720
Flags: MW
HStem: 0 96<455 504 473 504 504 505> 443 96<121 162 135 162> 453 86<452 461 461 466> 641 96<317.5 428 356 410>
VStem: 162 96<66 443 443 443 539 552 552 558> 340 99<431 441 431 472> 466 96<539 547 547 578 578 602> 565 101<126 149.5>
LayerCount: 2
Fore
SplineSet
356 737 m 2xba
 428 737 l 2
 513 737 562 674 562 623 c 2
 562 547 l 2
 562 479 547 453 479 453 c 2xba
 461 453 l 2
 443 453 439 446 439 436 c 0
 439 426 467 397 478 385 c 2
 591 273 l 2
 630 230 666 196 666 143 c 0
 666 63 622 0 505 0 c 2
 472 0 l 2
 438 0 400 3 361 30 c 0
 342 43 317 62 317 86 c 0
 317 113 340 134 367 134 c 0
 382 134 393 129 404 117 c 0
 421 98 442 96 473 96 c 2
 504 96 l 2
 547 96 565 113 565 139 c 0
 565 160 556 169 519 209 c 2
 377 353 l 2
 351 382 340 411 340 441 c 0xbd
 340 503 381 539 442 539 c 2
 466 539 l 1xba
 466 578 l 2
 466 626 451 641 410 641 c 2
 350 641 l 2
 285 641 258 628 258 558 c 2
 258 66 l 2
 258 33 251 0 210 0 c 0
 169 0 162 33 162 66 c 2
 162 443 l 1
 135 443 l 2xda
 107 443 69 449 69 491 c 0
 69 532 103 539 135 539 c 2
 162 539 l 1
 162 552 l 2
 162 607 165 647 208 689 c 0
 254 733 297 737 356 737 c 2xba
EndSplineSet
EndChar

StartChar: logicalnot
Encoding: 172 172 148
Width: 720
Flags: MW
HStem: 456 100<110 567 123 527>
VStem: 527 100<242 456 456 456>
LayerCount: 2
Fore
SplineSet
527 456 m 1
 123 456 l 2
 97 456 73 470 73 506 c 0
 73 542 97 556 123 556 c 2
 567 556 l 2
 585 556 596 556 611 542 c 0
 627 527 627 513 627 492 c 2
 627 242 l 2
 627 210 613 192 577 192 c 0
 541 192 527 210 527 242 c 2
 527 456 l 1
EndSplineSet
EndChar

StartChar: mu
Encoding: 181 181 149
Width: 720
Flags: MW
HStem: -204 21G<152 177> 0 96<282.5 307 307 309 309 314.5 282 320 576 636> 519 20G<132 174.5 507.5 548.5>
VStem: 118 96<-151 -148 -148 39> 480 96<194 473 96 489.5>
LayerCount: 2
Fore
SplineSet
576 473 m 2
 576 96 l 1
 636 96 l 2
 696 96 696 0 636 0 c 2
 573 0 l 2
 503 0 481 40 481 81 c 2
 481 83 l 1
 403 32 l 2
 372 12 346 0 320 0 c 2
 307 0 l 2
 258 0 235 18 216 39 c 1
 214 39 l 1
 214 -148 l 2
 214 -188 190 -204 164 -204 c 0
 140 -204 119 -189 118 -151 c 2
 118 85 l 1
 106 467 l 2
 105 502 110 539 154 539 c 0
 195 539 200 504 201 473 c 2
 210 206 l 2
 213 145 242 96 282 96 c 2
 309 96 l 2
 320 96 330 99 339 105 c 2
 480 194 l 1
 480 473 l 2
 480 506 487 539 528 539 c 0
 569 539 576 506 576 473 c 2
EndSplineSet
EndChar

StartChar: trademark
Encoding: 8482 8482 150
Width: 720
Flags: MW
HStem: 591 20G<533 533> 682 96<28.5 268 60 117 211 268 211 211>
VStem: 117 94<384 682> 354 96<384 614> 616 96<384 614 614 614>
LayerCount: 2
Fore
SplineSet
60 778 m 2
 268 778 l 2
 331 778 331 682 268 682 c 2
 211 682 l 1
 211 384 l 2
 211 354 187 337 164 337 c 0
 141 337 117 354 117 384 c 2
 117 682 l 1
 60 682 l 2
 -3 682 -3 778 60 778 c 2
533 515 m 0
 516 515 505 524 498 537 c 2
 455 614 l 1
 450 614 l 1
 450 384 l 2
 450 356 431 337 402 337 c 0
 376 337 354 356 354 384 c 2
 354 778 l 1
 439 778 l 1
 533 611 l 1
 627 778 l 1
 712 778 l 1
 712 384 l 2
 712 356 690 337 664 337 c 0
 635 337 616 356 616 384 c 2
 616 614 l 1
 611 614 l 1
 568 537 l 2
 561 524 550 515 533 515 c 0
EndSplineSet
EndChar

StartChar: Eth
Encoding: 208 208 151
Width: 720
Flags: MW
HStem: 0 100<150 211 163 211 311 329> 341 100<150 211 163 211 311 363> 678 100<171 174 174 211 311 311 311 323>
VStem: 211 100<100 341 100 341 441 678> 507 100<372.5 402>
LayerCount: 2
Fore
SplineSet
211 100 m 1
 211 341 l 1
 163 341 l 2
 137 341 113 355 113 391 c 0
 113 427 137 441 163 441 c 2
 211 441 l 1
 211 678 l 1
 174 678 l 2
 141 678 113 690 113 728 c 0
 113 764 140 778 171 778 c 2
 338 778 l 2
 416 778 455 746 489 678 c 2
 577 502 l 2
 597 461 607 432 607 386 c 0
 607 346 596 312 578 276 c 2
 487 94 l 2
 452 23 407 0 329 0 c 2
 163 0 l 2
 137 0 113 14 113 50 c 0
 113 86 137 100 163 100 c 2
 211 100 l 1
363 341 m 2
 311 341 l 1
 311 100 l 1
 330 100 l 2
 372 100 382 105 400 142 c 2
 488 320 l 2
 499 343 507 360 507 385 c 0
 507 419 496 438 482 467 c 2
 399 636 l 2
 378 679 369 678 323 678 c 2
 311 678 l 1
 311 441 l 1
 363 441 l 2
 389 441 413 427 413 391 c 0
 413 355 389 341 363 341 c 2
EndSplineSet
EndChar

StartChar: onehalf
Encoding: 189 189 152
Width: 720
Flags: MW
HStem: 0 96<547 649 547 649> 175 96<547 547 547 602 529 621> 337 96<78.5 101 91 101 197 206> 345 96<487.5 621 500 602> 682 96<48.5 197 61 101> 691 20G<510 529.5>
VStem: 101 96<433 682 682 682> 451 96<96 175 96 193 96 218> 602 96<271 345 345 345>
LayerCount: 2
Fore
SplineSet
560 637 m 2xe780
 225 88 l 2
 214 70 198 62 183 62 c 0
 158 62 134 82 134 109 c 0
 134 118 137 128 143 138 c 2
 478 687 l 2
 488 704 503 711 517 711 c 0
 542 711 568 690 568 663 c 0
 568 655 565 646 560 637 c 2xe780
206 337 m 2
 91 337 l 2
 66 337 42 349 42 385 c 0
 42 422 66 433 91 433 c 2
 101 433 l 1
 101 682 l 1
 61 682 l 2
 36 682 12 693 12 730 c 0
 12 766 36 778 61 778 c 2
 197 778 l 1xeb80
 197 433 l 1
 206 433 l 2
 231 433 255 422 255 386 c 0
 255 349 231 337 206 337 c 2
547 175 m 1
 547 96 l 1
 649 96 l 2
 674 96 698 85 698 48 c 0
 698 12 674 0 649 0 c 2
 451 0 l 1
 451 193 l 2
 451 243 477 271 529 271 c 2
 602 271 l 1
 602 345 l 1
 500 345 l 2
 475 345 451 356 451 393 c 0
 451 429 475 441 500 441 c 2
 621 441 l 2
 642 441 657 438 674 422 c 0
 694 405 698 385 698 361 c 2xdb80
 698 254 l 2
 698 231 696 213 675 194 c 0
 657 178 643 175 621 175 c 2
 547 175 l 1
EndSplineSet
Ligature2: "'frac' Diagonal Fractions in Latin lookup 3 subtable" one fraction two
Ligature2: "'frac' Diagonal Fractions in Latin lookup 3 subtable" one slash two
EndChar

StartChar: plusminus
Encoding: 177 177 153
Width: 720
Flags: MW
HStem: 90 97<145.5 551 166 551> 429 100<150 310 163 310 410 557> 688 20G<342 378>
VStem: 310 100<302 429 529 658>
LayerCount: 2
Fore
SplineSet
310 529 m 1
 310 658 l 2
 310 690 324 708 360 708 c 0
 396 708 410 690 410 658 c 2
 410 529 l 1
 557 529 l 2
 583 529 607 515 607 479 c 0
 607 443 583 429 557 429 c 2
 410 429 l 1
 410 302 l 2
 410 270 396 252 360 252 c 0
 324 252 310 270 310 302 c 2
 310 429 l 1
 163 429 l 2
 137 429 113 443 113 479 c 0
 113 515 137 529 163 529 c 2
 310 529 l 1
166 187 m 2
 551 187 l 2
 594 187 607 163 607 139 c 0
 607 115 594 90 551 90 c 2
 166 90 l 2
 125 90 113 115 113 139 c 0
 113 163 125 187 166 187 c 2
EndSplineSet
EndChar

StartChar: Thorn
Encoding: 222 222 154
Width: 720
Flags: MW
HStem: 0 21G<145 181> 184 100<213 432 213 435> 504 100<213 445 213 435> 758 20G<145 181>
VStem: 113 100<50 184 284 504 604 728> 507 100<356 360 360 432 334.5 460.5>
LayerCount: 2
Fore
SplineSet
213 728 m 2
 213 604 l 1
 445 604 l 2
 491 604 524 597 560 563 c 0
 603 523 607 486 607 432 c 2
 607 360 l 2
 607 309 603 273 566 232 c 0
 527 188 486 184 432 184 c 2
 213 184 l 1
 213 50 l 2
 213 18 199 0 163 0 c 0
 127 0 113 18 113 50 c 2
 113 728 l 2
 113 760 127 778 163 778 c 0
 199 778 213 760 213 728 c 2
213 504 m 1
 213 284 l 1
 435 284 l 2
 494 284 507 299 507 356 c 2
 507 432 l 2
 507 489 494 504 435 504 c 2
 213 504 l 1
EndSplineSet
EndChar

StartChar: onequarter
Encoding: 188 188 155
Width: 720
Flags: MW
HStem: 0 21G<619.5 655> 141 96<534 589 534 589> 337 96<76.5 99 89 99 195 204> 682 96<46.5 195 59 99> 691 20G<503 522.5>
VStem: 99 96<433 682 682 682> 438 96<237 237 237 392> 589 96<49 141 141 141 237 353>
LayerCount: 2
Fore
SplineSet
553 637 m 2xef
 218 88 l 2
 207 70 191 62 176 62 c 0
 151 62 127 82 127 109 c 0
 127 118 130 128 136 138 c 2
 471 687 l 2
 481 704 496 711 510 711 c 0
 535 711 561 690 561 663 c 0
 561 655 558 646 553 637 c 2xef
204 337 m 2
 89 337 l 2
 64 337 40 349 40 385 c 0
 40 422 64 433 89 433 c 2
 99 433 l 1
 99 682 l 1
 59 682 l 2
 34 682 10 693 10 730 c 0
 10 766 34 778 59 778 c 2
 195 778 l 1xf7
 195 433 l 1
 204 433 l 2
 229 433 253 422 253 386 c 0
 253 349 229 337 204 337 c 2
534 237 m 1
 589 237 l 1
 589 353 l 2
 589 379 600 403 637 403 c 0
 675 403 685 379 685 353 c 2
 685 235 l 1
 704 228 718 214 718 191 c 0
 718 169 705 154 685 147 c 1
 685 49 l 2
 685 18 673 0 637 0 c 0
 602 0 589 18 589 49 c 2
 589 141 l 1
 438 141 l 1
 438 392 l 2
 438 417 450 441 487 441 c 0
 525 441 534 417 534 392 c 2
 534 237 l 1
EndSplineSet
Ligature2: "'frac' Diagonal Fractions in Latin lookup 3 subtable" one fraction four
Ligature2: "'frac' Diagonal Fractions in Latin lookup 3 subtable" one slash four
EndChar

StartChar: divide
Encoding: 247 247 156
Width: 720
Flags: MW
HStem: 135 133<326.5 387 335 387> 340 97<144.5 552 165 552> 509 133<326.5 387 335 387>
VStem: 289 143<181 221 174.5 228 555 595>
LayerCount: 2
Fore
SplineSet
165 437 m 2
 552 437 l 2
 595 437 608 413 608 389 c 0
 608 365 595 340 552 340 c 2
 165 340 l 2
 124 340 112 365 112 389 c 0
 112 413 124 437 165 437 c 2
387 509 m 2
 335 509 l 2
 318 509 307 509 297 522 c 0
 289 533 289 542 289 555 c 2
 289 595 l 2
 289 609 289 617 297 628 c 0
 307 642 318 642 335 642 c 2
 387 642 l 2
 402 642 414 642 424 628 c 0
 432 617 432 609 432 595 c 2
 432 555 l 2
 432 542 432 533 424 522 c 0
 414 509 402 509 387 509 c 2
387 135 m 2
 335 135 l 2
 318 135 307 135 297 148 c 0
 289 159 289 168 289 181 c 2
 289 221 l 2
 289 235 289 243 297 254 c 0
 307 268 318 268 335 268 c 2
 387 268 l 2
 402 268 414 268 424 254 c 0
 432 243 432 235 432 221 c 2
 432 181 l 2
 432 168 432 159 424 148 c 0
 414 135 402 135 387 135 c 2
EndSplineSet
EndChar

StartChar: brokenbar
Encoding: 166 166 157
Width: 720
Flags: MW
HStem: -239 21G<310 410 310 310> 793 20G<310 410 410 410>
VStem: 310 100<-239 191 383 813>
LayerCount: 2
Fore
SplineSet
410 383 m 1
 310 383 l 1
 310 813 l 1
 410 813 l 1
 410 383 l 1
410 -239 m 1
 310 -239 l 1
 310 191 l 1
 410 191 l 1
 410 -239 l 1
EndSplineSet
EndChar

StartChar: degree
Encoding: 176 176 158
Width: 720
Flags: MW
HStem: 350 89<271 283 283 437> 689 89<283 437 437 449 271 437>
VStem: 171 100<459 669 669 689 439 705.5> 449 100<439 459 459 669>
LayerCount: 2
Fore
SplineSet
549 669 m 2
 549 459 l 2
 549 386 511 350 437 350 c 2
 283 350 l 2
 209 350 171 386 171 459 c 2
 171 669 l 2
 171 742 209 778 283 778 c 2
 437 778 l 2
 511 778 549 742 549 669 c 2
449 439 m 1
 449 689 l 1
 271 689 l 1
 271 439 l 1
 449 439 l 1
EndSplineSet
EndChar

StartChar: thorn
Encoding: 254 254 159
Width: 720
Flags: MW
HStem: -204 21G<152.5 193.5> 0 96<221 374 374 380.5 221 399 221 374> 443 96<221 374 221 396> 717 20G<151 192.5>
VStem: 125 96<-138 0 96 443 539 666 666 674> 499 96<215 228 228 311 193.5 324>
LayerCount: 2
Fore
SplineSet
595 311 m 2
 595 228 l 2
 595 159 590 133 534 89 c 2
 476 43 l 2
 456 27 425 0 399 0 c 2
 221 0 l 1
 221 -138 l 2
 221 -171 214 -204 173 -204 c 0
 132 -204 125 -171 125 -138 c 2
 125 666 l 2
 125 700 129 737 173 737 c 0
 212 737 221 706 221 674 c 2
 221 539 l 1
 396 539 l 2
 419 539 450 515 476 495 c 2
 534 450 l 2
 590 406 595 379 595 311 c 2
499 215 m 2
 499 324 l 2
 499 342 494 353 479 366 c 2
 407 426 l 2
 398 434 387 443 374 443 c 2
 221 443 l 1
 221 96 l 1
 374 96 l 2
 387 96 398 105 407 113 c 2
 479 173 l 2
 494 186 499 197 499 215 c 2
EndSplineSet
EndChar

StartChar: threequarters
Encoding: 190 190 160
Width: 720
Flags: MW
HStem: 0 21G<619.5 655> 141 96<534 589 534 589> 337 96<49 161 62 161 62 185> 512 96<93 161 106 161> 682 96<49 185 62 161> 691 20G<499 518.5>
VStem: 161 96<433 512 512 512 608 682 682 682> 438 96<237 237 237 392> 589 96<49 141 141 141 237 353>
LayerCount: 2
Fore
SplineSet
549 637 m 2xf780
 214 88 l 2
 203 70 187 62 172 62 c 0
 147 62 123 82 123 109 c 0
 123 118 126 128 132 138 c 2
 467 687 l 2
 477 704 492 711 506 711 c 0
 531 711 557 690 557 663 c 0
 557 655 554 646 549 637 c 2xf780
161 512 m 1
 106 512 l 2
 80 512 56 524 56 560 c 0
 56 595 80 608 106 608 c 2
 161 608 l 1
 161 682 l 1
 62 682 l 2
 36 682 12 693 12 730 c 0
 12 766 36 778 62 778 c 2
 185 778 l 2
 227 778 257 748 257 706 c 2xfb80
 257 409 l 2
 257 367 227 337 185 337 c 2
 62 337 l 2
 36 337 12 349 12 385 c 0
 12 422 36 433 62 433 c 2
 161 433 l 1
 161 512 l 1
534 237 m 1
 589 237 l 1
 589 353 l 2
 589 379 600 403 637 403 c 0
 675 403 685 379 685 353 c 2
 685 235 l 1
 704 228 718 214 718 191 c 0
 718 169 705 154 685 147 c 1
 685 49 l 2
 685 18 673 0 637 0 c 0
 602 0 589 18 589 49 c 2
 589 141 l 1
 438 141 l 1
 438 392 l 2
 438 417 450 441 487 441 c 0
 525 441 534 417 534 392 c 2
 534 237 l 1
EndSplineSet
Ligature2: "'frac' Diagonal Fractions in Latin lookup 3 subtable" three fraction four
Ligature2: "'frac' Diagonal Fractions in Latin lookup 3 subtable" three slash four
EndChar

StartChar: registered
Encoding: 174 174 161
Width: 720
Flags: MW
HStem: 0 96<465 471 471 480 480 482> 244 96<238 253 238 286> 465 96<238 238 238 286> 682 96<286.5 420 306 420 420 430>
VStem: 142 96<86 244 340 465> 354 96<380 381 381 423 423 431 346 441.5> 527 96<185 572 572 586>
LayerCount: 2
Fore
SplineSet
238 465 m 1
 238 340 l 1
 286 340 l 2
 312 340 354 343 354 380 c 2
 354 423 l 2
 354 460 315 465 286 465 c 2
 238 465 l 1
482 0 m 2
 471 0 l 2
 429 0 408 15 387 41 c 2
 253 244 l 1
 238 244 l 1
 238 86 l 2
 238 56 225 40 190 40 c 0
 158 40 142 56 142 86 c 2
 142 561 l 1
 315 561 l 2
 388 561 450 513 450 431 c 2
 450 381 l 2
 450 311 408 272 355 259 c 1
 465 96 l 1
 480 96 l 2
 532 96 527 149 527 185 c 2
 527 572 l 2
 527 600 530 623 514 647 c 0
 494 677 464 682 430 682 c 2
 303 682 l 2
 270 682 239 681 221 648 c 0
 208 624 198 598 166 598 c 0
 140 598 118 617 118 643 c 0
 118 676 151 717 175 737 c 0
 216 772 255 778 306 778 c 2
 420 778 l 2
 455 778 472 778 507 764 c 0
 585 733 623 674 623 592 c 2
 623 172 l 2
 623 125 624 94 593 56 c 0
 567 24 524 0 482 0 c 2
EndSplineSet
EndChar

StartChar: minus
Encoding: 8722 8722 162
Width: 720
Flags: MW
HStem: 340 100<149.5 547 170 547>
VStem: 117 486<378 402>
LayerCount: 2
Fore
SplineSet
170 440 m 2
 547 440 l 2
 590 440 603 414 603 390 c 0
 603 366 590 340 547 340 c 2
 170 340 l 2
 129 340 117 366 117 390 c 0
 117 414 129 440 170 440 c 2
EndSplineSet
EndChar

StartChar: eth
Encoding: 240 240 163
Width: 720
Flags: MW
HStem: 0 96<315 381 353 381 381 387.5 353 406> 580 20G<313 313> 581 20G<158 158> 642 20G<237 237> 717 20G<117.5 135.5 346 365>
VStem: 169 96<198 301 301 314> 471 96<187 200 200 303>
LayerCount: 2
Fore
SplineSet
111 564 m 2xbe
 158 601 l 1
 95 653 l 2xbe
 85 662 79 674 79 685 c 0
 79 711 104 737 131 737 c 0
 140 737 150 734 158 727 c 2
 237 662 l 1
 314 723 l 2
 327 733 340 737 352 737 c 0
 378 737 398 717 398 692 c 0
 398 678 391 662 375 649 c 2
 313 600 l 1xde
 506 442 l 2
 562 398 567 371 567 303 c 2
 567 200 l 2
 567 131 562 105 506 61 c 2
 483 43 l 2
 463 27 432 0 406 0 c 2
 328 0 l 2
 302 0 271 27 251 43 c 2
 230 59 l 2
 174 103 169 129 169 198 c 2
 169 301 l 2
 169 369 174 396 230 440 c 2
 253 457 l 1
 296 488 l 1
 234 538 l 1
 171 489 l 2
 159 480 146 475 135 475 c 0
 108 475 88 496 88 521 c 0
 88 535 95 551 111 564 c 2xbe
383 405 m 2
 355 405 l 2
 342 405 331 396 322 388 c 2
 285 356 l 2
 270 343 265 332 265 314 c 2
 265 185 l 2
 265 167 270 156 285 143 c 2
 320 113 l 2
 329 105 340 96 353 96 c 2
 381 96 l 2
 394 96 405 105 414 113 c 2
 451 145 l 2
 466 158 471 169 471 187 c 2
 471 316 l 2
 471 334 466 345 451 358 c 2
 407 395 l 2
 400 400 392 405 383 405 c 2
EndSplineSet
EndChar

StartChar: multiply
Encoding: 215 215 164
Width: 720
Flags: MW
HStem: 579 20G<181 200.5 519.5 539>
VStem: 147 426<210 229.5 547.5 566.5>
LayerCount: 2
Fore
SplineSet
360 456 m 1
 485 581 l 2
 498 594 513 599 526 599 c 0
 552 599 573 579 573 554 c 0
 573 541 568 526 554 512 c 2
 429 388 l 1
 555 263 l 2
 568 250 573 236 573 223 c 0
 573 197 550 176 525 176 c 0
 512 176 499 181 486 194 c 2
 360 319 l 1
 234 194 l 2
 221 181 208 176 195 176 c 0
 170 176 147 197 147 223 c 0
 147 236 152 250 165 263 c 2
 291 388 l 1
 166 512 l 2
 152 526 147 541 147 554 c 0
 147 579 168 599 194 599 c 0
 207 599 222 594 235 581 c 2
 360 456 l 1
EndSplineSet
EndChar

StartChar: copyright
Encoding: 169 169 165
Width: 720
Flags: MW
HStem: 0 96<303 306 306 480 480 482> 170 96<292.5 391 336 391 336 391> 510 96<331 334 334 391> 682 96<286.5 420 306 420 420 430>
VStem: 149 96<373.5 396.5 373.5 400> 527 96<185 572 572 586>
LayerCount: 2
Fore
SplineSet
482 0 m 2
 306 0 l 2
 255 0 216 6 175 41 c 0
 151 61 118 102 118 135 c 0
 118 161 140 180 166 180 c 0
 198 180 208 154 221 130 c 0
 239 97 270 96 303 96 c 2
 480 96 l 2
 532 96 527 149 527 185 c 2
 527 572 l 2
 527 600 530 623 514 647 c 0
 494 677 464 682 430 682 c 2
 303 682 l 2
 270 682 239 681 221 648 c 0
 208 624 198 598 166 598 c 0
 140 598 118 617 118 643 c 0
 118 676 151 717 175 737 c 0
 216 772 255 778 306 778 c 2
 420 778 l 2
 455 778 472 778 507 764 c 0
 585 733 623 674 623 592 c 2
 623 172 l 2
 623 125 624 94 593 56 c 0
 567 24 524 0 482 0 c 2
336 266 m 2
 391 266 l 2
 412 266 439 254 439 218 c 0
 439 183 413 170 391 170 c 2
 325 170 l 2
 260 170 217 200 190 255 c 2
 168 300 l 2
 156 324 149 357 149 384 c 0
 149 416 156 446 166 467 c 2
 192 520 l 2
 223 581 263 606 331 606 c 2
 391 606 l 2
 412 606 439 594 439 558 c 0
 439 523 413 510 391 510 c 2
 334 510 l 2
 299 510 293 507 277 476 c 2
 263 448 l 2
 251 424 245 409 245 384 c 0
 245 363 252 348 261 329 c 2
 274 302 l 2
 289 271 300 266 336 266 c 2
EndSplineSet
EndChar

StartChar: Aacute
Encoding: 193 193 166
Width: 720
Flags: MW
HStem: 0 21G<149 178.5 541.5 571> 127 100<288 432 288 468 252 432> 588 20G<344.5 375> 798 20G<465 481.5>
VStem: 113 493
LayerCount: 2
Fore
SplineSet
468 127 m 1
 252 127 l 1
 217 50 l 2
 210 26 194 0 163 0 c 0
 135 0 106 27 115 50 c 2
 309 563 l 2
 319 588 329 608 360 608 c 0
 390 608 403 586 412 563 c 2
 605 50 l 2
 612 26 585 0 557 0 c 0
 526 0 510 26 503 50 c 2
 468 127 l 1
432 227 m 1
 360 420 l 1
 288 227 l 1
 432 227 l 1
259 733 m 2
 446 813 l 2
 454 817 462 818 468 818 c 0
 495 818 518 789 518 761 c 0
 518 743 514 728 494 719 c 2
 292 650 l 2
 286 648 279 646 273 646 c 0
 252 646 235 672 235 698 c 0
 235 713 245 727 259 733 c 2
EndSplineSet
EndChar

StartChar: Acircumflex
Encoding: 194 194 167
Width: 720
Flags: MW
HStem: 0 21G<149 178.5 541.5 571> 127 100<288 432 288 468 252 432> 588 20G<344.5 375> 652 157<191 312> 723 86<312 360> 789 20G<312 312 408 408>
VStem: 113 493
LayerCount: 2
Fore
SplineSet
468 127 m 1xe6
 252 127 l 1
 217 50 l 2
 210 26 194 0 163 0 c 0
 135 0 106 27 115 50 c 2
 309 563 l 2
 319 588 329 608 360 608 c 0
 390 608 403 586 412 563 c 2
 605 50 l 2
 612 26 585 0 557 0 c 0
 526 0 510 26 503 50 c 2
 468 127 l 1xe6
432 227 m 1
 360 420 l 1
 288 227 l 1
 432 227 l 1
360 723 m 1xea
 228 658 l 2
 218 653 212 652 203 652 c 0
 179 652 160 673 160 697 c 0
 160 713 169 727 184 735 c 2
 312 809 l 2
 328 818 345 823 360 823 c 0
 375 823 392 818 408 809 c 2
 536 735 l 2
 551 727 560 713 560 697 c 0
 560 673 541 652 517 652 c 0
 508 652 502 653 492 658 c 2xf2
 360 723 l 1xea
EndSplineSet
EndChar

StartChar: Adieresis
Encoding: 196 196 168
Width: 720
Flags: MW
HStem: 0 21G<149 178.5 541.5 571> 127 100<288 432 288 468 252 432> 588 20G<344.5 375> 593 185<145 181 145 181.5 539 575> 758 20G<145 181 539 575>
VStem: 113 100<654 716 639 733> 507 100<654 716 639 733>
LayerCount: 2
Fore
SplineSet
468 127 m 1xee
 252 127 l 1
 217 50 l 2
 210 26 194 0 163 0 c 0
 135 0 106 27 115 50 c 2
 309 563 l 2
 319 588 329 608 360 608 c 0
 390 608 403 586 412 563 c 2
 605 50 l 2
 612 26 585 0 557 0 c 0
 526 0 510 26 503 50 c 2
 468 127 l 1xee
432 227 m 1
 360 420 l 1
 288 227 l 1
 432 227 l 1
213 716 m 2
 213 654 l 2
 213 624 200 593 163 593 c 0
 126 593 113 624 113 654 c 2xd6
 113 716 l 2
 113 750 127 778 163 778 c 0
 199 778 213 750 213 716 c 2
607 716 m 2
 607 654 l 2
 607 624 594 593 557 593 c 0
 520 593 507 624 507 654 c 2
 507 716 l 2
 507 750 521 778 557 778 c 0
 593 778 607 750 607 716 c 2
EndSplineSet
EndChar

StartChar: Agrave
Encoding: 192 192 169
Width: 720
Flags: MW
HStem: 0 21G<149 178.5 541.5 571> 127 100<288 432 288 468 252 432> 588 20G<344.5 375> 798 20G<221.5 238>
VStem: 113 493
LayerCount: 2
Fore
SplineSet
468 127 m 1
 252 127 l 1
 217 50 l 2
 210 26 194 0 163 0 c 0
 135 0 106 27 115 50 c 2
 309 563 l 2
 319 588 329 608 360 608 c 0
 390 608 403 586 412 563 c 2
 605 50 l 2
 612 26 585 0 557 0 c 0
 526 0 510 26 503 50 c 2
 468 127 l 1
432 227 m 1
 360 420 l 1
 288 227 l 1
 432 227 l 1
257 813 m 2
 444 733 l 2
 458 727 468 713 468 698 c 0
 468 672 451 646 430 646 c 0
 424 646 417 648 411 650 c 2
 209 719 l 2
 189 728 185 743 185 761 c 0
 185 789 208 818 235 818 c 0
 241 818 249 817 257 813 c 2
EndSplineSet
EndChar

StartChar: Aring
Encoding: 197 197 170
Width: 720
Flags: MW
HStem: 0 21G<147 176.5 541.5 571> 169 100<279 439 279 466 252 439> 507 100<244 458 347 347 347 371 261 475> 678 100<273 446 446 458 261 446>
VStem: 161 100<616 666 666 678 607 702.5> 458 100<607 616 616 666 587.5 678 587.5 678>
LayerCount: 2
Fore
SplineSet
113 50 m 2
 244 507 l 1
 187 521 161 559 161 616 c 2
 161 666 l 2
 161 739 199 778 273 778 c 2
 446 778 l 2
 520 778 558 739 558 666 c 2
 558 616 l 2
 558 559 532 521 475 507 c 1
 605 50 l 2
 612 26 585 0 557 0 c 0
 526 0 510 26 503 50 c 2
 466 169 l 1
 252 169 l 1
 215 50 l 2
 208 26 192 0 161 0 c 0
 133 0 106 26 113 50 c 2
439 269 m 1
 371 507 l 1
 347 507 l 1
 279 269 l 1
 439 269 l 1
458 607 m 1
 458 678 l 1
 261 678 l 1
 261 607 l 1
 458 607 l 1
EndSplineSet
EndChar

StartChar: Atilde
Encoding: 195 195 171
Width: 720
Flags: MW
HStem: 0 21G<149 178.5 541.5 571> 127 100<288 432 288 468 252 432> 588 20G<344.5 375> 722 20G<507 507> 758 20G<163 163 544 570>
VStem: 113 494<686 728 670 732 670 744>
LayerCount: 2
Fore
SplineSet
468 127 m 1
 252 127 l 1
 217 50 l 2
 210 26 194 0 163 0 c 0
 135 0 106 27 115 50 c 2
 309 563 l 2
 319 588 329 608 360 608 c 0
 390 608 403 586 412 563 c 2
 605 50 l 2
 612 26 585 0 557 0 c 0
 526 0 510 26 503 50 c 2
 468 127 l 1
432 227 m 1
 360 420 l 1
 288 227 l 1
 432 227 l 1
163 778 m 2
 507 742 l 1
 513 754 531 778 557 778 c 0
 583 778 607 764 607 728 c 2
 607 682 l 2
 607 658 587 632 557 636 c 2
 213 672 l 1
 207 660 189 636 163 636 c 0
 137 636 113 650 113 686 c 2
 113 732 l 2
 113 756 133 782 163 778 c 2
EndSplineSet
EndChar

StartChar: Ccedilla
Encoding: 199 199 172
Width: 720
Flags: MW
HStem: -204 93<304 406 320 406 320 435> 0 100<344.5 557 394 406 499 557 499 499> 678 100<387 390 390 557>
VStem: 113 100<372 401.5 372 408> 406 93<-111 0>
LayerCount: 2
Fore
SplineSet
557 0 m 2
 499 0 l 1
 499 -144 l 2
 499 -185 475 -204 435 -204 c 2
 320 -204 l 2
 288 -204 270 -190 270 -157 c 0
 270 -125 288 -111 320 -111 c 2
 406 -111 l 1
 406 0 l 1
 382 0 l 2
 307 0 264 30 232 95 c 2
 140 281 l 2
 123 315 113 347 113 386 c 0
 113 430 121 457 141 497 c 2
 233 682 l 2
 267 751 310 778 387 778 c 2
 557 778 l 2
 579 778 607 766 607 728 c 0
 607 692 580 678 557 678 c 2
 390 678 l 2
 347 678 340 674 321 636 c 2
 234 462 l 2
 221 435 213 417 213 386 c 0
 213 358 222 341 234 317 c 2
 319 144 l 2
 339 103 349 100 394 100 c 2
 557 100 l 2
 579 100 607 88 607 50 c 0
 607 14 580 0 557 0 c 2
EndSplineSet
EndChar

StartChar: Eacute
Encoding: 201 201 173
Width: 720
Flags: MW
HStem: 0 100<213 557 213 557> 267 100<213 360 213 360> 508 100<213 557 213 213> 798 20G<465 481.5>
VStem: 113 100<100 100 100 267 367 508>
LayerCount: 2
Fore
SplineSet
213 100 m 1
 557 100 l 2
 583 100 607 86 607 50 c 0
 607 14 583 0 557 0 c 2
 113 0 l 1
 113 608 l 1
 557 608 l 2
 583 608 607 594 607 558 c 0
 607 522 583 508 557 508 c 2
 213 508 l 1
 213 367 l 1
 360 367 l 2
 386 367 410 353 410 317 c 0
 410 281 386 267 360 267 c 2
 213 267 l 1
 213 100 l 1
259 733 m 2
 446 813 l 2
 454 817 462 818 468 818 c 0
 495 818 518 789 518 761 c 0
 518 743 514 728 494 719 c 2
 292 650 l 2
 286 648 279 646 273 646 c 0
 252 646 235 672 235 698 c 0
 235 713 245 727 259 733 c 2
EndSplineSet
EndChar

StartChar: Ecircumflex
Encoding: 202 202 174
Width: 720
Flags: MW
HStem: 0 100<213 557 213 557> 267 100<213 360 213 360> 508 100<213 557 213 213> 652 157<191 312> 723 86<312 360> 789 20G<312 312 408 408>
VStem: 113 100<100 100 100 267 367 508>
LayerCount: 2
Fore
SplineSet
213 100 m 1xe6
 557 100 l 2
 583 100 607 86 607 50 c 0
 607 14 583 0 557 0 c 2
 113 0 l 1
 113 608 l 1
 557 608 l 2
 583 608 607 594 607 558 c 0
 607 522 583 508 557 508 c 2
 213 508 l 1
 213 367 l 1
 360 367 l 2
 386 367 410 353 410 317 c 0
 410 281 386 267 360 267 c 2
 213 267 l 1
 213 100 l 1xe6
360 723 m 1xea
 228 658 l 2
 218 653 212 652 203 652 c 0
 179 652 160 673 160 697 c 0
 160 713 169 727 184 735 c 2
 312 809 l 2
 328 818 345 823 360 823 c 0
 375 823 392 818 408 809 c 2
 536 735 l 2
 551 727 560 713 560 697 c 0
 560 673 541 652 517 652 c 0
 508 652 502 653 492 658 c 2xf2
 360 723 l 1xea
EndSplineSet
EndChar

StartChar: Edieresis
Encoding: 203 203 175
Width: 720
Flags: MW
HStem: 0 100<213 557 213 557> 267 100<213 360 213 360> 508 100<213 557 213 213> 655 155<225 261 225 261.5 459 495>
VStem: 113 100<100 100 100 267 367 508> 193 100<716 748 701 765> 427 100<716 748 701 765>
LayerCount: 2
Fore
SplineSet
213 100 m 1xfa
 557 100 l 2
 583 100 607 86 607 50 c 0
 607 14 583 0 557 0 c 2
 113 0 l 1
 113 608 l 1
 557 608 l 2
 583 608 607 594 607 558 c 0
 607 522 583 508 557 508 c 2
 213 508 l 1
 213 367 l 1
 360 367 l 2
 386 367 410 353 410 317 c 0
 410 281 386 267 360 267 c 2
 213 267 l 1
 213 100 l 1xfa
293 748 m 2xf6
 293 716 l 2
 293 686 280 655 243 655 c 0
 206 655 193 686 193 716 c 2
 193 748 l 2
 193 782 207 810 243 810 c 0
 279 810 293 782 293 748 c 2xf6
527 748 m 2
 527 716 l 2
 527 686 514 655 477 655 c 0
 440 655 427 686 427 716 c 2
 427 748 l 2
 427 782 441 810 477 810 c 0
 513 810 527 782 527 748 c 2
EndSplineSet
EndChar

StartChar: Egrave
Encoding: 200 200 176
Width: 720
Flags: MW
HStem: 0 100<213 557 213 557> 267 100<213 360 213 360> 508 100<213 557 213 213> 798 20G<221.5 238>
VStem: 113 100<100 100 100 267 367 508>
LayerCount: 2
Fore
SplineSet
213 100 m 1
 557 100 l 2
 583 100 607 86 607 50 c 0
 607 14 583 0 557 0 c 2
 113 0 l 1
 113 608 l 1
 557 608 l 2
 583 608 607 594 607 558 c 0
 607 522 583 508 557 508 c 2
 213 508 l 1
 213 367 l 1
 360 367 l 2
 386 367 410 353 410 317 c 0
 410 281 386 267 360 267 c 2
 213 267 l 1
 213 100 l 1
257 813 m 2
 444 733 l 2
 458 727 468 713 468 698 c 0
 468 672 451 646 430 646 c 0
 424 646 417 648 411 650 c 2
 209 719 l 2
 189 728 185 743 185 761 c 0
 185 789 208 818 235 818 c 0
 241 818 249 817 257 813 c 2
EndSplineSet
EndChar

StartChar: Iacute
Encoding: 205 205 177
Width: 720
Flags: MW
HStem: 0 100<150 310 163 310 410 557> 508 100<150 557 163 310 410 557 410 410> 798 20G<465 481.5>
VStem: 310 100<100 508 100 508>
LayerCount: 2
Fore
SplineSet
410 508 m 1
 410 100 l 1
 557 100 l 2
 583 100 607 86 607 50 c 0
 607 14 583 0 557 0 c 2
 163 0 l 2
 137 0 113 14 113 50 c 0
 113 86 137 100 163 100 c 2
 310 100 l 1
 310 508 l 1
 163 508 l 2
 137 508 113 522 113 558 c 0
 113 594 137 608 163 608 c 2
 557 608 l 2
 583 608 607 594 607 558 c 0
 607 522 583 508 557 508 c 2
 410 508 l 1
259 733 m 2
 446 813 l 2
 454 817 462 818 468 818 c 0
 495 818 518 789 518 761 c 0
 518 743 514 728 494 719 c 2
 292 650 l 2
 286 648 279 646 273 646 c 0
 252 646 235 672 235 698 c 0
 235 713 245 727 259 733 c 2
EndSplineSet
EndChar

StartChar: Icircumflex
Encoding: 206 206 178
Width: 720
Flags: MW
HStem: 0 100<150 310 163 310 410 557> 508 100<150 557 163 310 410 557 410 410> 652 157<191 312> 723 86<312 360> 789 20G<312 312 408 408>
VStem: 310 100<100 508 100 508>
LayerCount: 2
Fore
SplineSet
410 508 m 1xcc
 410 100 l 1
 557 100 l 2
 583 100 607 86 607 50 c 0
 607 14 583 0 557 0 c 2
 163 0 l 2
 137 0 113 14 113 50 c 0
 113 86 137 100 163 100 c 2
 310 100 l 1
 310 508 l 1
 163 508 l 2
 137 508 113 522 113 558 c 0
 113 594 137 608 163 608 c 2
 557 608 l 2
 583 608 607 594 607 558 c 0
 607 522 583 508 557 508 c 2
 410 508 l 1xcc
360 723 m 1xd4
 228 658 l 2
 218 653 212 652 203 652 c 0
 179 652 160 673 160 697 c 0
 160 713 169 727 184 735 c 2
 312 809 l 2
 328 818 345 823 360 823 c 0
 375 823 392 818 408 809 c 2
 536 735 l 2
 551 727 560 713 560 697 c 0
 560 673 541 652 517 652 c 0
 508 652 502 653 492 658 c 2xe4
 360 723 l 1xd4
EndSplineSet
EndChar

StartChar: Idieresis
Encoding: 207 207 179
Width: 720
Flags: MW
HStem: 0 100<150 310 163 310 410 557> 508 100<150 557 163 310 410 557 410 410> 655 155<225 261 225 261.5 459 495>
VStem: 193 100<716 748 701 765> 310 100<100 508 100 508> 427 100<716 748 701 765>
LayerCount: 2
Fore
SplineSet
410 508 m 1
 410 100 l 1
 557 100 l 2
 583 100 607 86 607 50 c 0
 607 14 583 0 557 0 c 2
 163 0 l 2
 137 0 113 14 113 50 c 0
 113 86 137 100 163 100 c 2
 310 100 l 1
 310 508 l 1
 163 508 l 2
 137 508 113 522 113 558 c 0
 113 594 137 608 163 608 c 2
 557 608 l 2
 583 608 607 594 607 558 c 0
 607 522 583 508 557 508 c 2
 410 508 l 1
293 748 m 2xfc
 293 716 l 2
 293 686 280 655 243 655 c 0
 206 655 193 686 193 716 c 2
 193 748 l 2
 193 782 207 810 243 810 c 0
 279 810 293 782 293 748 c 2xfc
527 748 m 2
 527 716 l 2
 527 686 514 655 477 655 c 0
 440 655 427 686 427 716 c 2
 427 748 l 2
 427 782 441 810 477 810 c 0
 513 810 527 782 527 748 c 2
EndSplineSet
EndChar

StartChar: Igrave
Encoding: 204 204 180
Width: 720
Flags: MW
HStem: 0 100<150 310 163 310 410 557> 508 100<150 557 163 310 410 557 410 410> 798 20G<221.5 238>
VStem: 310 100<100 508 100 508>
LayerCount: 2
Fore
SplineSet
410 508 m 1
 410 100 l 1
 557 100 l 2
 583 100 607 86 607 50 c 0
 607 14 583 0 557 0 c 2
 163 0 l 2
 137 0 113 14 113 50 c 0
 113 86 137 100 163 100 c 2
 310 100 l 1
 310 508 l 1
 163 508 l 2
 137 508 113 522 113 558 c 0
 113 594 137 608 163 608 c 2
 557 608 l 2
 583 608 607 594 607 558 c 0
 607 522 583 508 557 508 c 2
 410 508 l 1
257 813 m 2
 444 733 l 2
 458 727 468 713 468 698 c 0
 468 672 451 646 430 646 c 0
 424 646 417 648 411 650 c 2
 209 719 l 2
 189 728 185 743 185 761 c 0
 185 789 208 818 235 818 c 0
 241 818 249 817 257 813 c 2
EndSplineSet
EndChar

StartChar: Ntilde
Encoding: 209 209 181
Width: 720
Flags: MW
HStem: 0 21G<145 181 539 575> 722 20G<507 507> 758 20G<163 163 544 570>
VStem: 113 100<50 346> 507 100<171 474>
LayerCount: 2
Fore
SplineSet
507 171 m 1
 507 474 l 2
 507 506 521 524 557 524 c 0
 593 524 607 506 607 474 c 2
 607 50 l 2
 607 18 593 0 557 0 c 0
 521 0 504 29 485 50 c 2
 215 346 l 1
 213 346 l 1
 213 50 l 2
 213 18 199 0 163 0 c 0
 127 0 113 18 113 50 c 2
 113 474 l 2
 113 506 127 524 163 524 c 0
 199 524 216 495 235 474 c 2
 506 171 l 1
 505 171 l 1
 507 171 l 1
163 778 m 2
 507 742 l 1
 513 754 531 778 557 778 c 0
 583 778 607 764 607 728 c 2
 607 682 l 2
 607 658 587 632 557 636 c 2
 213 672 l 1
 207 660 189 636 163 636 c 0
 137 636 113 650 113 686 c 2
 113 732 l 2
 113 756 133 782 163 778 c 2
EndSplineSet
EndChar

StartChar: Oacute
Encoding: 211 211 182
Width: 720
Flags: MW
HStem: 0 100<349 371 349 391.5> 508 100<349 371> 798 20G<465 481.5>
VStem: 113 112 495 112
LayerCount: 2
Fore
SplineSet
233 82 m 2
 145 213 l 2
 125 243 114 265 113 304 c 0
 114 343 125 365 145 395 c 2
 233 526 l 2
 265 574 297 608 360 608 c 0
 423 608 455 574 487 526 c 2
 575 395 l 2
 595 365 606 343 607 304 c 0
 606 265 595 243 575 213 c 2
 487 82 l 2
 455 34 423 0 360 0 c 0
 297 0 265 34 233 82 c 2
225 274 m 2
 320 131 l 2
 331 115 338 100 360 100 c 0
 382 100 389 115 400 131 c 2
 495 274 l 2
 501 283 507 292 507 304 c 0
 507 316 501 325 495 334 c 2
 400 477 l 2
 389 493 382 508 360 508 c 0
 338 508 331 493 320 477 c 2
 225 334 l 2
 219 325 213 316 213 304 c 0
 213 292 219 283 225 274 c 2
259 733 m 2
 446 813 l 2
 454 817 462 818 468 818 c 0
 495 818 518 789 518 761 c 0
 518 743 514 728 494 719 c 2
 292 650 l 2
 286 648 279 646 273 646 c 0
 252 646 235 672 235 698 c 0
 235 713 245 727 259 733 c 2
EndSplineSet
EndChar

StartChar: Ocircumflex
Encoding: 212 212 183
Width: 720
Flags: MW
HStem: 0 100<349 371 349 391.5> 508 100<349 371> 652 157<191 312> 723 86<312 360> 789 20G<312 312 408 408>
VStem: 113 112 495 112
LayerCount: 2
Fore
SplineSet
233 82 m 2xce
 145 213 l 2
 125 243 114 265 113 304 c 0
 114 343 125 365 145 395 c 2
 233 526 l 2
 265 574 297 608 360 608 c 0
 423 608 455 574 487 526 c 2
 575 395 l 2
 595 365 606 343 607 304 c 0
 606 265 595 243 575 213 c 2
 487 82 l 2
 455 34 423 0 360 0 c 0
 297 0 265 34 233 82 c 2xce
225 274 m 2
 320 131 l 2
 331 115 338 100 360 100 c 0
 382 100 389 115 400 131 c 2
 495 274 l 2
 501 283 507 292 507 304 c 0
 507 316 501 325 495 334 c 2
 400 477 l 2
 389 493 382 508 360 508 c 0
 338 508 331 493 320 477 c 2
 225 334 l 2
 219 325 213 316 213 304 c 0
 213 292 219 283 225 274 c 2
360 723 m 1xd6
 228 658 l 2
 218 653 212 652 203 652 c 0
 179 652 160 673 160 697 c 0
 160 713 169 727 184 735 c 2
 312 809 l 2
 328 818 345 823 360 823 c 0
 375 823 392 818 408 809 c 2
 536 735 l 2
 551 727 560 713 560 697 c 0
 560 673 541 652 517 652 c 0
 508 652 502 653 492 658 c 2xe6
 360 723 l 1xd6
EndSplineSet
EndChar

StartChar: Odieresis
Encoding: 214 214 184
Width: 720
Flags: MW
HStem: 0 100<349 371 349 391.5> 508 100<349 371> 593 185<145 181 145 181.5 539 575> 758 20G<145 181 539 575>
VStem: 113 100<654 716> 113 112 495 112 507 100<654 716 639 733>
LayerCount: 2
Fore
SplineSet
213 716 m 2xd9
 213 654 l 2
 213 624 200 593 163 593 c 0
 126 593 113 624 113 654 c 2xa9
 113 716 l 2
 113 750 127 778 163 778 c 0
 199 778 213 750 213 716 c 2xd9
607 716 m 2
 607 654 l 2
 607 624 594 593 557 593 c 0
 520 593 507 624 507 654 c 2
 507 716 l 2
 507 750 521 778 557 778 c 0
 593 778 607 750 607 716 c 2
233 82 m 2
 145 213 l 2
 125 243 114 265 113 304 c 0
 114 343 125 365 145 395 c 2
 233 526 l 2
 265 574 297 608 360 608 c 0
 423 608 455 574 487 526 c 2
 575 395 l 2
 595 365 606 343 607 304 c 0
 606 265 595 243 575 213 c 2xd6
 487 82 l 2
 455 34 423 0 360 0 c 0
 297 0 265 34 233 82 c 2
225 274 m 2
 320 131 l 2
 331 115 338 100 360 100 c 0
 382 100 389 115 400 131 c 2
 495 274 l 2
 501 283 507 292 507 304 c 0
 507 316 501 325 495 334 c 2
 400 477 l 2
 389 493 382 508 360 508 c 0
 338 508 331 493 320 477 c 2
 225 334 l 2
 219 325 213 316 213 304 c 0
 213 292 219 283 225 274 c 2
EndSplineSet
EndChar

StartChar: Ograve
Encoding: 210 210 185
Width: 720
Flags: MW
HStem: 0 100<349 371 349 391.5> 508 100<349 371> 798 20G<221.5 238>
VStem: 113 112 495 112
LayerCount: 2
Fore
SplineSet
233 82 m 2
 145 213 l 2
 125 243 114 265 113 304 c 0
 114 343 125 365 145 395 c 2
 233 526 l 2
 265 574 297 608 360 608 c 0
 423 608 455 574 487 526 c 2
 575 395 l 2
 595 365 606 343 607 304 c 0
 606 265 595 243 575 213 c 2
 487 82 l 2
 455 34 423 0 360 0 c 0
 297 0 265 34 233 82 c 2
225 274 m 2
 320 131 l 2
 331 115 338 100 360 100 c 0
 382 100 389 115 400 131 c 2
 495 274 l 2
 501 283 507 292 507 304 c 0
 507 316 501 325 495 334 c 2
 400 477 l 2
 389 493 382 508 360 508 c 0
 338 508 331 493 320 477 c 2
 225 334 l 2
 219 325 213 316 213 304 c 0
 213 292 219 283 225 274 c 2
257 813 m 2
 444 733 l 2
 458 727 468 713 468 698 c 0
 468 672 451 646 430 646 c 0
 424 646 417 648 411 650 c 2
 209 719 l 2
 189 728 185 743 185 761 c 0
 185 789 208 818 235 818 c 0
 241 818 249 817 257 813 c 2
EndSplineSet
EndChar

StartChar: Otilde
Encoding: 213 213 186
Width: 720
Flags: MW
HStem: 0 100<349 371 349 391.5> 508 100<349 371> 722 20G<507 507> 758 20G<163 163 544 570>
VStem: 113 112 495 112
LayerCount: 2
Fore
SplineSet
233 82 m 2
 145 213 l 2
 125 243 114 265 113 304 c 0
 114 343 125 365 145 395 c 2
 233 526 l 2
 265 574 297 608 360 608 c 0
 423 608 455 574 487 526 c 2
 575 395 l 2
 595 365 606 343 607 304 c 0
 606 265 595 243 575 213 c 2
 487 82 l 2
 455 34 423 0 360 0 c 0
 297 0 265 34 233 82 c 2
225 274 m 2
 320 131 l 2
 331 115 338 100 360 100 c 0
 382 100 389 115 400 131 c 2
 495 274 l 2
 501 283 507 292 507 304 c 0
 507 316 501 325 495 334 c 2
 400 477 l 2
 389 493 382 508 360 508 c 0
 338 508 331 493 320 477 c 2
 225 334 l 2
 219 325 213 316 213 304 c 0
 213 292 219 283 225 274 c 2
163 778 m 2
 507 742 l 1
 513 754 531 778 557 778 c 0
 583 778 607 764 607 728 c 2
 607 682 l 2
 607 658 587 632 557 636 c 2
 213 672 l 1
 207 660 189 636 163 636 c 0
 137 636 113 650 113 686 c 2
 113 732 l 2
 113 756 133 782 163 778 c 2
EndSplineSet
EndChar

StartChar: Scaron
Encoding: 352 352 187
Width: 720
Flags: MW
HStem: 0 100<257 261 261 470 470 481> 508 100<249 251 251 459> 662 86<312 360 360 408> 728 20G<360 360> 799 20G<191 207.5 512.5 529>
VStem: 113 100<119 141> 113 104<486.5 498 486.5 514> 503 104<109.5 121> 507 100<464 486>
LayerCount: 2
Fore
SplineSet
232 467 m 2xda80
 556 209 l 2
 594 179 607 147 607 113 c 0
 607 38 550 0 481 0 c 2
 261 0 l 2
 223 0 190 7 160 32 c 0
 133 54 113 90 113 125 c 0
 113 157 131 185 166 185 c 0
 195 185 213 161 213 134 c 0
 213 104 229 100 257 100 c 2
 470 100 l 2
 492 100 503 102 503 117 c 0
 503 125 496 132 485 141 c 2xed
 162 399 l 2
 127 427 113 459 113 494 c 0
 113 534 132 568 166 590 c 0
 194 608 217 608 249 608 c 2
 461 608 l 2
 499 608 531 600 560 575 c 0
 586 552 607 515 607 480 c 0
 607 448 591 422 555 422 c 0
 525 422 507 441 507 469 c 0
 507 503 490 508 459 508 c 2
 251 508 l 2
 230 508 217 505 217 491 c 0
 217 482 223 474 232 467 c 2xda80
228 813 m 2
 360 748 l 1
 492 813 l 2
 502 818 508 819 517 819 c 0
 541 819 560 798 560 774 c 0
 560 758 551 744 536 736 c 2
 408 662 l 2
 392 653 375 648 360 648 c 0
 345 648 328 653 312 662 c 2
 184 736 l 2
 169 744 160 758 160 774 c 0
 160 798 179 819 203 819 c 0
 212 819 218 818 228 813 c 2
EndSplineSet
EndChar

StartChar: Uacute
Encoding: 218 218 188
Width: 720
Flags: MW
HStem: 0 100<247 430 290 430 430 440.5 290 450> 588 20G<145 181 539 575> 798 20G<465 481.5>
VStem: 113 100<167 175 175 558> 507 100<175 558>
LayerCount: 2
Fore
SplineSet
507 175 m 2
 507 558 l 2
 507 590 521 608 557 608 c 0
 593 608 607 590 607 558 c 2
 607 167 l 2
 607 119 601 84 566 47 c 0
 533 12 496 0 450 0 c 2
 270 0 l 2
 224 0 187 12 154 47 c 0
 119 84 113 119 113 167 c 2
 113 558 l 2
 113 590 127 608 163 608 c 0
 199 608 213 590 213 558 c 2
 213 175 l 2
 213 151 209 130 228 113 c 0
 245 97 269 100 290 100 c 2
 430 100 l 2
 451 100 475 97 492 113 c 0
 511 130 507 151 507 175 c 2
259 733 m 2
 446 813 l 2
 454 817 462 818 468 818 c 0
 495 818 518 789 518 761 c 0
 518 743 514 728 494 719 c 2
 292 650 l 2
 286 648 279 646 273 646 c 0
 252 646 235 672 235 698 c 0
 235 713 245 727 259 733 c 2
EndSplineSet
EndChar

StartChar: Ucircumflex
Encoding: 219 219 189
Width: 720
Flags: MW
HStem: 0 100<247 430 290 430 430 440.5 290 450> 588 20G<145 181 539 575> 652 157<191 312> 723 86<312 360> 789 20G<312 312 408 408>
VStem: 113 100<167 175 175 558> 507 100<175 558>
LayerCount: 2
Fore
SplineSet
507 175 m 2xce
 507 558 l 2
 507 590 521 608 557 608 c 0
 593 608 607 590 607 558 c 2
 607 167 l 2
 607 119 601 84 566 47 c 0
 533 12 496 0 450 0 c 2
 270 0 l 2
 224 0 187 12 154 47 c 0
 119 84 113 119 113 167 c 2
 113 558 l 2
 113 590 127 608 163 608 c 0
 199 608 213 590 213 558 c 2
 213 175 l 2
 213 151 209 130 228 113 c 0
 245 97 269 100 290 100 c 2
 430 100 l 2
 451 100 475 97 492 113 c 0
 511 130 507 151 507 175 c 2xce
360 723 m 1xd6
 228 658 l 2
 218 653 212 652 203 652 c 0
 179 652 160 673 160 697 c 0
 160 713 169 727 184 735 c 2
 312 809 l 2
 328 818 345 823 360 823 c 0
 375 823 392 818 408 809 c 2
 536 735 l 2
 551 727 560 713 560 697 c 0
 560 673 541 652 517 652 c 0
 508 652 502 653 492 658 c 2xe6
 360 723 l 1xd6
EndSplineSet
EndChar

StartChar: Udieresis
Encoding: 220 220 190
Width: 720
Flags: MW
HStem: 0 100<247 430 290 430 430 440.5 290 450> 588 20G<145 181 539 575> 593 185<245 281 245 281.5 439 475> 758 20G<245 281 439 475>
VStem: 113 100<167 175 175 558> 213 100<175 654 654 716 639 733> 407 100<654 716> 507 100<175 558>
LayerCount: 2
Fore
SplineSet
507 175 m 2xd9
 507 558 l 2
 507 590 521 608 557 608 c 0
 593 608 607 590 607 558 c 2
 607 167 l 2
 607 119 601 84 566 47 c 0
 533 12 496 0 450 0 c 2
 270 0 l 2
 224 0 187 12 154 47 c 0
 119 84 113 119 113 167 c 2
 113 558 l 2
 113 590 127 608 163 608 c 0
 199 608 213 590 213 558 c 2
 213 175 l 2
 213 151 209 130 228 113 c 0
 245 97 269 100 290 100 c 2
 430 100 l 2
 451 100 475 97 492 113 c 0
 511 130 507 151 507 175 c 2xd9
313 716 m 2xd5
 313 654 l 2
 313 624 300 593 263 593 c 0
 226 593 213 624 213 654 c 2xa6
 213 716 l 2
 213 750 227 778 263 778 c 0
 299 778 313 750 313 716 c 2xd5
507 716 m 2
 507 654 l 2
 507 624 494 593 457 593 c 0
 420 593 407 624 407 654 c 2
 407 716 l 2
 407 750 421 778 457 778 c 0
 493 778 507 750 507 716 c 2
EndSplineSet
EndChar

StartChar: Ugrave
Encoding: 217 217 191
Width: 720
Flags: MW
HStem: 0 100<247 430 290 430 430 440.5 290 450> 588 20G<145 181 539 575> 798 20G<221.5 238>
VStem: 113 100<167 175 175 558> 507 100<175 558>
LayerCount: 2
Fore
SplineSet
507 175 m 2
 507 558 l 2
 507 590 521 608 557 608 c 0
 593 608 607 590 607 558 c 2
 607 167 l 2
 607 119 601 84 566 47 c 0
 533 12 496 0 450 0 c 2
 270 0 l 2
 224 0 187 12 154 47 c 0
 119 84 113 119 113 167 c 2
 113 558 l 2
 113 590 127 608 163 608 c 0
 199 608 213 590 213 558 c 2
 213 175 l 2
 213 151 209 130 228 113 c 0
 245 97 269 100 290 100 c 2
 430 100 l 2
 451 100 475 97 492 113 c 0
 511 130 507 151 507 175 c 2
257 813 m 2
 444 733 l 2
 458 727 468 713 468 698 c 0
 468 672 451 646 430 646 c 0
 424 646 417 648 411 650 c 2
 209 719 l 2
 189 728 185 743 185 761 c 0
 185 789 208 818 235 818 c 0
 241 818 249 817 257 813 c 2
EndSplineSet
EndChar

StartChar: Yacute
Encoding: 221 221 192
Width: 720
Flags: MW
HStem: 0 21G<342 378> 588 20G<145 181 539 575> 798 20G<465 481.5>
VStem: 113 100<490 558 490 558 490 574> 310 100<50 200> 507 100<490 558 456 574>
LayerCount: 2
Fore
SplineSet
410 200 m 1
 410 50 l 2
 410 18 396 0 360 0 c 0
 324 0 310 18 310 50 c 2
 310 200 l 1
 113 456 l 1
 113 558 l 2
 113 590 127 608 163 608 c 0
 199 608 213 590 213 558 c 2
 213 490 l 1
 360 299 l 1
 507 490 l 1
 507 558 l 2
 507 590 521 608 557 608 c 0
 593 608 607 590 607 558 c 2
 607 456 l 1
 410 200 l 1
259 733 m 2
 446 813 l 2
 454 817 462 818 468 818 c 0
 495 818 518 789 518 761 c 0
 518 743 514 728 494 719 c 2
 292 650 l 2
 286 648 279 646 273 646 c 0
 252 646 235 672 235 698 c 0
 235 713 245 727 259 733 c 2
EndSplineSet
EndChar

StartChar: Ydieresis
Encoding: 376 376 193
Width: 720
Flags: MW
HStem: 0 21G<342 378> 588 20G<145 181 539 575> 655 155<225 261 225 261.5 459 495>
VStem: 113 100<490 558 490 558 490 574> 193 100<716 748 701 765> 310 100<50 200> 427 100<716 748 701 765> 507 100<490 558 456 574>
LayerCount: 2
Fore
SplineSet
410 200 m 1xf5
 410 50 l 2
 410 18 396 0 360 0 c 0
 324 0 310 18 310 50 c 2
 310 200 l 1
 113 456 l 1
 113 558 l 2
 113 590 127 608 163 608 c 0
 199 608 213 590 213 558 c 2
 213 490 l 1
 360 299 l 1
 507 490 l 1
 507 558 l 2
 507 590 521 608 557 608 c 0
 593 608 607 590 607 558 c 2
 607 456 l 1
 410 200 l 1xf5
293 748 m 2xee
 293 716 l 2
 293 686 280 655 243 655 c 0
 206 655 193 686 193 716 c 2
 193 748 l 2
 193 782 207 810 243 810 c 0
 279 810 293 782 293 748 c 2xee
527 748 m 2
 527 716 l 2
 527 686 514 655 477 655 c 0
 440 655 427 686 427 716 c 2
 427 748 l 2
 427 782 441 810 477 810 c 0
 513 810 527 782 527 748 c 2
EndSplineSet
EndChar

StartChar: Zcaron
Encoding: 381 381 194
Width: 720
Flags: MW
HStem: 0 100<265 557 265 557> 508 100<150 607 163 454> 662 86<312 360 360 408> 728 20G<360 360> 799 20G<191 207.5 512.5 529>
VStem: 113 494<32 63 63 63 543 576>
LayerCount: 2
Fore
SplineSet
607 608 m 1xdc
 607 543 l 1
 265 100 l 1
 557 100 l 2
 583 100 607 86 607 50 c 0
 607 14 583 0 557 0 c 2
 113 0 l 1
 113 63 l 1
 454 508 l 1
 163 508 l 2
 137 508 113 522 113 558 c 0
 113 594 137 608 163 608 c 2
 607 608 l 1xdc
228 813 m 2
 360 748 l 1
 492 813 l 2
 502 818 508 819 517 819 c 0
 541 819 560 798 560 774 c 0
 560 758 551 744 536 736 c 2
 408 662 l 2
 392 653 375 648 360 648 c 0
 345 648 328 653 312 662 c 2
 184 736 l 2xec
 169 744 160 758 160 774 c 0
 160 798 179 819 203 819 c 0
 212 819 218 818 228 813 c 2
EndSplineSet
EndChar

StartChar: aacute
Encoding: 225 225 195
Width: 720
Flags: MW
HStem: 0 96<283 284 284 376> 241 96<284 285 285 427> 443 96<272 418 286 405> 758 20G<484.5 502.5>
VStem: 125 96<152 194 194 199 119 217> 495 95
LayerCount: 2
Fore
SplineSet
405 443 m 2
 286 443 l 2
 258 443 220 449 220 491 c 0
 220 532 254 539 286 539 c 2
 418 539 l 2
 468 539 504 534 542 496 c 0
 579 459 584 430 585 382 c 2
 595 56 l 2
 596 28 582 0 550 0 c 0
 525 0 500 21 501 48 c 1
 435 14 l 2
 408 0 407 0 376 0 c 2
 284 0 l 2
 241 0 210 5 175 34 c 0
 135 67 125 102 125 152 c 2
 125 194 l 2
 125 240 136 269 172 301 c 0
 205 330 242 337 284 337 c 2
 490 337 l 1
 490 359 l 2
 490 431 474 443 405 443 c 2
427 241 m 2
 285 241 l 2
 259 241 221 234 221 199 c 2
 221 135 l 2
 221 103 260 96 283 96 c 2
 389 96 l 1
 495 151 l 1
 495 172 l 2
 495 225 480 241 427 241 c 2
286 668 m 2
 468 773 l 2
 473 776 481 778 488 778 c 0
 517 778 543 743 541 714 c 0
 540 701 534 689 520 682 c 2
 329 588 l 2
 323 585 317 583 311 583 c 0
 286 583 267 610 267 634 c 0
 267 647 272 660 286 668 c 2
EndSplineSet
EndChar

StartChar: acircumflex
Encoding: 226 226 196
Width: 720
Flags: MW
HStem: 0 96<283 284 284 376> 241 96<284 285 285 427> 443 96<272 418 286 405> 676 86<314 360> 742 20G<314 314 406 406>
VStem: 125 96<152 194 194 199 119 217> 495 95
LayerCount: 2
Fore
SplineSet
405 443 m 2xee
 286 443 l 2
 258 443 220 449 220 491 c 0
 220 532 254 539 286 539 c 2
 418 539 l 2
 468 539 504 534 542 496 c 0
 579 459 584 430 585 382 c 2
 595 56 l 2
 596 28 582 0 550 0 c 0
 525 0 500 21 501 48 c 1
 435 14 l 2
 408 0 407 0 376 0 c 2
 284 0 l 2
 241 0 210 5 175 34 c 0
 135 67 125 102 125 152 c 2
 125 194 l 2
 125 240 136 269 172 301 c 0
 205 330 242 337 284 337 c 2
 490 337 l 1
 490 359 l 2
 490 431 474 443 405 443 c 2xee
427 241 m 2
 285 241 l 2
 259 241 221 234 221 199 c 2
 221 135 l 2
 221 103 260 96 283 96 c 2
 389 96 l 1
 495 151 l 1
 495 172 l 2
 495 225 480 241 427 241 c 2
191 665 m 2xf6
 314 762 l 2
 328 773 342 778 360 778 c 0
 378 778 392 773 406 762 c 2
 529 665 l 2
 542 655 548 642 548 630 c 0
 548 606 527 585 502 585 c 0
 493 585 483 589 474 595 c 2
 360 676 l 1
 246 595 l 2
 237 589 227 585 218 585 c 0
 193 585 172 606 172 630 c 0
 172 642 178 655 191 665 c 2xf6
EndSplineSet
EndChar

StartChar: adieresis
Encoding: 228 228 197
Width: 720
Flags: MW
HStem: 0 96<283 284 284 376> 241 96<284 285 285 427> 443 96<272 418 286 405> 593 185<211 247 211 247.5 466 502> 758 20G<211 247 466 502>
VStem: 125 96<152 194 194 199 119 217> 179 100<654 716 639 733> 434 100<654 716 639 733> 495 95
LayerCount: 2
Fore
SplineSet
405 443 m 2xec80
 286 443 l 2
 258 443 220 449 220 491 c 0
 220 532 254 539 286 539 c 2
 418 539 l 2
 468 539 504 534 542 496 c 0
 579 459 584 430 585 382 c 2
 595 56 l 2
 596 28 582 0 550 0 c 0
 525 0 500 21 501 48 c 1
 435 14 l 2
 408 0 407 0 376 0 c 2
 284 0 l 2
 241 0 210 5 175 34 c 0
 135 67 125 102 125 152 c 2
 125 194 l 2
 125 240 136 269 172 301 c 0
 205 330 242 337 284 337 c 2
 490 337 l 1
 490 359 l 2
 490 431 474 443 405 443 c 2xec80
427 241 m 2
 285 241 l 2
 259 241 221 234 221 199 c 2
 221 135 l 2
 221 103 260 96 283 96 c 2
 389 96 l 1
 495 151 l 1
 495 172 l 2
 495 225 480 241 427 241 c 2
279 716 m 2xea80
 279 654 l 2
 279 624 266 593 229 593 c 0
 192 593 179 624 179 654 c 2xf3
 179 716 l 2
 179 750 193 778 229 778 c 0
 265 778 279 750 279 716 c 2xea80
534 716 m 2
 534 654 l 2
 534 624 521 593 484 593 c 0
 447 593 434 624 434 654 c 2
 434 716 l 2
 434 750 448 778 484 778 c 0
 520 778 534 750 534 716 c 2
EndSplineSet
EndChar

StartChar: agrave
Encoding: 224 224 198
Width: 720
Flags: MW
HStem: 0 96<283 284 284 376> 241 96<284 285 285 427> 443 96<272 418 286 405> 758 20G<217.5 235.5>
VStem: 125 96<152 194 194 199 119 217> 495 95
LayerCount: 2
Fore
SplineSet
405 443 m 2
 286 443 l 2
 258 443 220 449 220 491 c 0
 220 532 254 539 286 539 c 2
 418 539 l 2
 468 539 504 534 542 496 c 0
 579 459 584 430 585 382 c 2
 595 56 l 2
 596 28 582 0 550 0 c 0
 525 0 500 21 501 48 c 1
 435 14 l 2
 408 0 407 0 376 0 c 2
 284 0 l 2
 241 0 210 5 175 34 c 0
 135 67 125 102 125 152 c 2
 125 194 l 2
 125 240 136 269 172 301 c 0
 205 330 242 337 284 337 c 2
 490 337 l 1
 490 359 l 2
 490 431 474 443 405 443 c 2
427 241 m 2
 285 241 l 2
 259 241 221 234 221 199 c 2
 221 135 l 2
 221 103 260 96 283 96 c 2
 389 96 l 1
 495 151 l 1
 495 172 l 2
 495 225 480 241 427 241 c 2
252 773 m 2
 434 668 l 2
 448 660 453 647 453 634 c 0
 453 610 434 583 409 583 c 0
 403 583 397 585 391 588 c 2
 200 682 l 2
 186 689 180 701 179 714 c 0
 177 743 203 778 232 778 c 0
 239 778 247 776 252 773 c 2
EndSplineSet
EndChar

StartChar: aring
Encoding: 229 229 199
Width: 720
Flags: MW
HStem: 0 96<283 284 284 376> 215 96<284 285 285 427> 398 96<272 418 286 405> 535 89<290 306 306 420> 689 89<306 420 420 436 290 420>
VStem: 125 96<152 168 168 173 119 191> 194 96<644 669 669 689 624 705.5> 436 96<624 644 644 669 607.5 689 607.5 689> 495 95
LayerCount: 2
Fore
SplineSet
405 398 m 2xfc80
 286 398 l 2
 258 398 220 404 220 446 c 0
 220 487 254 494 286 494 c 2
 418 494 l 2
 468 494 504 489 542 451 c 0
 579 414 584 385 585 337 c 2
 595 56 l 2
 596 28 582 0 550 0 c 0
 525 0 500 21 501 48 c 1
 435 14 l 2
 408 0 407 0 376 0 c 2
 284 0 l 2
 241 0 210 5 175 34 c 0
 135 67 125 102 125 152 c 2
 125 168 l 2
 125 214 136 243 172 275 c 0
 205 304 242 311 284 311 c 2
 490 311 l 1
 490 343 l 2
 490 379 474 398 405 398 c 2xfc80
427 215 m 2
 285 215 l 2
 259 215 221 208 221 173 c 2
 221 135 l 2
 221 103 260 96 283 96 c 2
 389 96 l 1
 495 151 l 1
 495 160 l 2
 495 204 480 215 427 215 c 2
532 669 m 2xfb
 532 644 l 2
 532 571 494 535 420 535 c 2
 306 535 l 2
 232 535 194 571 194 644 c 2
 194 669 l 2
 194 742 232 778 306 778 c 2
 420 778 l 2
 494 778 532 742 532 669 c 2xfb
436 624 m 1
 436 689 l 1
 290 689 l 1
 290 624 l 1
 436 624 l 1
EndSplineSet
EndChar

StartChar: atilde
Encoding: 227 227 200
Width: 720
Flags: MW
HStem: 0 96<283 284 284 376> 241 96<284 285 285 427> 443 96<272 418 286 405> 702 20G<467 467> 752 20G<208 222.5> 762 20G<509.5 531.5>
VStem: 125 96<152 194 194 199 119 217> 495 95
LayerCount: 2
Fore
SplineSet
405 443 m 2xf7
 286 443 l 2
 258 443 220 449 220 491 c 0
 220 532 254 539 286 539 c 2
 418 539 l 2
 468 539 504 534 542 496 c 0
 579 459 584 430 585 382 c 2
 595 56 l 2
 596 28 582 0 550 0 c 0
 525 0 500 21 501 48 c 1
 435 14 l 2
 408 0 407 0 376 0 c 2
 284 0 l 2
 241 0 210 5 175 34 c 0
 135 67 125 102 125 152 c 2
 125 194 l 2
 125 240 136 269 172 301 c 0
 205 330 242 337 284 337 c 2
 490 337 l 1
 490 359 l 2
 490 431 474 443 405 443 c 2xf7
427 241 m 2
 285 241 l 2
 259 241 221 234 221 199 c 2
 221 135 l 2
 221 103 260 96 283 96 c 2
 389 96 l 1
 495 151 l 1
 495 172 l 2
 495 225 480 241 427 241 c 2
242 769 m 2xfb
 467 722 l 1
 475 744 l 2
 485 772 500 782 519 782 c 0
 544 782 569 766 569 738 c 0
 569 732 568 724 566 717 c 2xf7
 549 661 l 2
 540 634 523 622 501 622 c 0
 494 622 483 624 478 625 c 2
 253 672 l 1
 245 650 l 2
 235 622 220 612 201 612 c 0
 176 612 151 628 151 656 c 0
 151 662 152 670 154 677 c 2
 171 733 l 2
 180 760 197 772 219 772 c 0
 226 772 237 770 242 769 c 2xfb
EndSplineSet
EndChar

StartChar: ccedilla
Encoding: 231 231 201
Width: 720
Flags: MW
HStem: -204 93<274 376 290 376 290 405> 0 96<360 376 469 529 469 469> 443 96<350.5 529 377 529 377 529>
VStem: 125 96<223 316 316 329> 376 93<-111 0>
LayerCount: 2
Fore
SplineSet
125 223 m 2
 125 316 l 2
 125 375 136 404 182 442 c 2
 253 501 l 2
 298 538 321 539 377 539 c 2
 529 539 l 2
 561 539 595 532 595 491 c 0
 595 449 557 443 529 443 c 2
 360 443 l 2
 341 443 322 433 305 419 c 2
 247 370 l 2
 232 358 221 348 221 329 c 2
 221 210 l 2
 221 191 232 181 247 169 c 2
 305 120 l 2
 322 106 341 96 360 96 c 2
 529 96 l 2
 557 96 595 90 595 48 c 0
 595 7 561 0 529 0 c 2
 469 0 l 1
 469 -144 l 2
 469 -185 445 -204 405 -204 c 2
 290 -204 l 2
 258 -204 240 -190 240 -157 c 0
 240 -125 258 -111 290 -111 c 2
 376 -111 l 1
 376 0 l 1
 321 0 297 1 253 38 c 2
 182 97 l 2
 136 135 125 164 125 223 c 2
EndSplineSet
EndChar

StartChar: eacute
Encoding: 233 233 202
Width: 720
Flags: MW
HStem: 0 96<281 529 323 529 323 529> 200 96<221 499 221 529 221 499> 443 96<314 323 323 400 400 404> 758 20G<484.5 502.5>
VStem: 125 96<170 200 296 355 355 364> 499 96<296 348>
LayerCount: 2
Fore
SplineSet
529 0 m 2
 301 0 l 2
 261 0 245 0 215 26 c 2
 174 62 l 2
 136 96 125 118 125 170 c 2
 125 355 l 2
 125 406 132 436 172 470 c 2
 206 499 l 2
 251 538 273 539 312 539 c 2
 400 539 l 2
 447 539 469 534 506 504 c 2
 545 473 l 2
 589 438 595 401 595 348 c 2
 595 271 l 2
 595 216 586 200 529 200 c 2
 221 200 l 1
 221 168 l 2
 221 159 228 147 235 140 c 2
 259 114 l 2
 272 100 291 96 323 96 c 2
 529 96 l 2
 561 96 595 89 595 48 c 0
 595 6 557 0 529 0 c 2
221 364 m 2
 221 296 l 1
 499 296 l 1
 499 354 l 2
 499 372 500 387 487 399 c 2
 450 431 l 2
 438 442 419 443 404 443 c 2
 323 443 l 2
 305 443 290 443 274 432 c 2
 241 408 l 2
 229 399 221 392 221 364 c 2
286 668 m 2
 468 773 l 2
 473 776 481 778 488 778 c 0
 517 778 543 743 541 714 c 0
 540 701 534 689 520 682 c 2
 329 588 l 2
 323 585 317 583 311 583 c 0
 286 583 267 610 267 634 c 0
 267 647 272 660 286 668 c 2
EndSplineSet
EndChar

StartChar: ecircumflex
Encoding: 234 234 203
Width: 720
Flags: MW
HStem: 0 96<281 529 323 529 323 529> 200 96<221 499 221 529 221 499> 443 96<314 323 323 400 400 404> 676 86<314 360> 742 20G<314 314 406 406>
VStem: 125 96<170 200 296 355 355 364> 499 96<296 348>
LayerCount: 2
Fore
SplineSet
529 0 m 2xee
 301 0 l 2
 261 0 245 0 215 26 c 2
 174 62 l 2
 136 96 125 118 125 170 c 2
 125 355 l 2
 125 406 132 436 172 470 c 2
 206 499 l 2
 251 538 273 539 312 539 c 2
 400 539 l 2
 447 539 469 534 506 504 c 2
 545 473 l 2
 589 438 595 401 595 348 c 2
 595 271 l 2
 595 216 586 200 529 200 c 2
 221 200 l 1
 221 168 l 2
 221 159 228 147 235 140 c 2
 259 114 l 2
 272 100 291 96 323 96 c 2
 529 96 l 2
 561 96 595 89 595 48 c 0
 595 6 557 0 529 0 c 2xee
221 364 m 2
 221 296 l 1
 499 296 l 1
 499 354 l 2
 499 372 500 387 487 399 c 2
 450 431 l 2
 438 442 419 443 404 443 c 2
 323 443 l 2
 305 443 290 443 274 432 c 2
 241 408 l 2
 229 399 221 392 221 364 c 2
191 665 m 2xf6
 314 762 l 2
 328 773 342 778 360 778 c 0
 378 778 392 773 406 762 c 2
 529 665 l 2
 542 655 548 642 548 630 c 0
 548 606 527 585 502 585 c 0
 493 585 483 589 474 595 c 2
 360 676 l 1
 246 595 l 2
 237 589 227 585 218 585 c 0
 193 585 172 606 172 630 c 0
 172 642 178 655 191 665 c 2xf6
EndSplineSet
EndChar

StartChar: edieresis
Encoding: 235 235 204
Width: 720
Flags: MW
HStem: 0 96<281 529 323 529 323 529> 200 96<221 499 221 529 221 499> 443 96<314 323 323 400 400 404> 593 185<211 247 211 247.5 466 502> 758 20G<211 247 466 502>
VStem: 125 96<170 200 296 355 355 364> 179 100<654 716 639 733> 434 100<654 716 639 733> 499 96<296 348>
LayerCount: 2
Fore
SplineSet
529 0 m 2xec80
 301 0 l 2
 261 0 245 0 215 26 c 2
 174 62 l 2
 136 96 125 118 125 170 c 2
 125 355 l 2
 125 406 132 436 172 470 c 2
 206 499 l 2
 251 538 273 539 312 539 c 2
 400 539 l 2
 447 539 469 534 506 504 c 2
 545 473 l 2
 589 438 595 401 595 348 c 2
 595 271 l 2
 595 216 586 200 529 200 c 2
 221 200 l 1
 221 168 l 2
 221 159 228 147 235 140 c 2
 259 114 l 2
 272 100 291 96 323 96 c 2
 529 96 l 2
 561 96 595 89 595 48 c 0
 595 6 557 0 529 0 c 2xec80
221 364 m 2
 221 296 l 1
 499 296 l 1
 499 354 l 2
 499 372 500 387 487 399 c 2
 450 431 l 2
 438 442 419 443 404 443 c 2
 323 443 l 2
 305 443 290 443 274 432 c 2
 241 408 l 2
 229 399 221 392 221 364 c 2
279 716 m 2xea80
 279 654 l 2
 279 624 266 593 229 593 c 0
 192 593 179 624 179 654 c 2xf3
 179 716 l 2
 179 750 193 778 229 778 c 0
 265 778 279 750 279 716 c 2xea80
534 716 m 2
 534 654 l 2
 534 624 521 593 484 593 c 0
 447 593 434 624 434 654 c 2
 434 716 l 2
 434 750 448 778 484 778 c 0
 520 778 534 750 534 716 c 2
EndSplineSet
EndChar

StartChar: egrave
Encoding: 232 232 205
Width: 720
Flags: MW
HStem: 0 96<281 529 323 529 323 529> 200 96<221 499 221 529 221 499> 443 96<314 323 323 400 400 404> 758 20G<217.5 235.5>
VStem: 125 96<170 200 296 355 355 364> 499 96<296 348>
LayerCount: 2
Fore
SplineSet
529 0 m 2
 301 0 l 2
 261 0 245 0 215 26 c 2
 174 62 l 2
 136 96 125 118 125 170 c 2
 125 355 l 2
 125 406 132 436 172 470 c 2
 206 499 l 2
 251 538 273 539 312 539 c 2
 400 539 l 2
 447 539 469 534 506 504 c 2
 545 473 l 2
 589 438 595 401 595 348 c 2
 595 271 l 2
 595 216 586 200 529 200 c 2
 221 200 l 1
 221 168 l 2
 221 159 228 147 235 140 c 2
 259 114 l 2
 272 100 291 96 323 96 c 2
 529 96 l 2
 561 96 595 89 595 48 c 0
 595 6 557 0 529 0 c 2
221 364 m 2
 221 296 l 1
 499 296 l 1
 499 354 l 2
 499 372 500 387 487 399 c 2
 450 431 l 2
 438 442 419 443 404 443 c 2
 323 443 l 2
 305 443 290 443 274 432 c 2
 241 408 l 2
 229 399 221 392 221 364 c 2
252 773 m 2
 434 668 l 2
 448 660 453 647 453 634 c 0
 453 610 434 583 409 583 c 0
 403 583 397 585 391 588 c 2
 200 682 l 2
 186 689 180 701 179 714 c 0
 177 743 203 778 232 778 c 0
 239 778 247 776 252 773 c 2
EndSplineSet
EndChar

StartChar: iacute
Encoding: 237 237 206
Width: 720
Flags: MW
HStem: 0 96<224 314 238 314 410 482> 443 96<224 339 238 314> 758 20G<440.5 458.5>
VStem: 314 96<96 443 443 443>
LayerCount: 2
Fore
SplineSet
410 472 m 2
 410 96 l 1
 482 96 l 2
 514 96 548 89 548 48 c 0
 548 6 510 0 482 0 c 2
 238 0 l 2
 210 0 172 6 172 48 c 0
 172 89 206 96 238 96 c 2
 314 96 l 1
 314 443 l 1
 238 443 l 2
 210 443 172 449 172 491 c 0
 172 532 206 539 238 539 c 2
 339 539 l 2
 394 539 410 529 410 472 c 2
242 668 m 2
 424 773 l 2
 429 776 437 778 444 778 c 0
 473 778 499 743 497 714 c 0
 496 701 490 689 476 682 c 2
 285 588 l 2
 279 585 273 583 267 583 c 0
 242 583 223 610 223 634 c 0
 223 647 228 660 242 668 c 2
EndSplineSet
EndChar

StartChar: icircumflex
Encoding: 238 238 207
Width: 720
Flags: MW
HStem: 0 96<224 314 238 314 410 482> 443 96<224 339 238 314> 676 86<288 334> 742 20G<288 288 380 380>
VStem: 314 96<96 443 443 443>
LayerCount: 2
Fore
SplineSet
410 472 m 2xd8
 410 96 l 1
 482 96 l 2
 514 96 548 89 548 48 c 0
 548 6 510 0 482 0 c 2
 238 0 l 2
 210 0 172 6 172 48 c 0
 172 89 206 96 238 96 c 2
 314 96 l 1
 314 443 l 1
 238 443 l 2
 210 443 172 449 172 491 c 0
 172 532 206 539 238 539 c 2
 339 539 l 2
 394 539 410 529 410 472 c 2xd8
165 665 m 2xe8
 288 762 l 2
 302 773 316 778 334 778 c 0
 352 778 366 773 380 762 c 2
 503 665 l 2
 516 655 522 642 522 630 c 0
 522 606 501 585 476 585 c 0
 467 585 457 589 448 595 c 2
 334 676 l 1
 220 595 l 2
 211 589 201 585 192 585 c 0
 167 585 146 606 146 630 c 0
 146 642 152 655 165 665 c 2xe8
EndSplineSet
EndChar

StartChar: idieresis
Encoding: 239 239 208
Width: 720
Flags: MW
HStem: 0 96<224 314 238 314 410 482> 443 96<224 339 238 314> 593 185<194 230 194 230.5 449 485> 758 20G<194 230 449 485>
VStem: 162 100<654 716 639 733> 314 96<96 443 443 443> 417 100<654 716 639 733>
LayerCount: 2
Fore
SplineSet
410 472 m 2xdc
 410 96 l 1
 482 96 l 2
 514 96 548 89 548 48 c 0
 548 6 510 0 482 0 c 2
 238 0 l 2
 210 0 172 6 172 48 c 0
 172 89 206 96 238 96 c 2
 314 96 l 1
 314 443 l 1
 238 443 l 2
 210 443 172 449 172 491 c 0
 172 532 206 539 238 539 c 2
 339 539 l 2
 394 539 410 529 410 472 c 2xdc
262 716 m 2
 262 654 l 2
 262 624 249 593 212 593 c 0
 175 593 162 624 162 654 c 2xea
 162 716 l 2
 162 750 176 778 212 778 c 0
 248 778 262 750 262 716 c 2
517 716 m 2
 517 654 l 2
 517 624 504 593 467 593 c 0
 430 593 417 624 417 654 c 2
 417 716 l 2
 417 750 431 778 467 778 c 0
 503 778 517 750 517 716 c 2
EndSplineSet
EndChar

StartChar: igrave
Encoding: 236 236 209
Width: 720
Flags: MW
HStem: 0 96<224 314 238 314 410 482> 443 96<224 339 238 314> 758 20G<205.5 223.5>
VStem: 314 96<96 443 443 443>
LayerCount: 2
Fore
SplineSet
410 472 m 2
 410 96 l 1
 482 96 l 2
 514 96 548 89 548 48 c 0
 548 6 510 0 482 0 c 2
 238 0 l 2
 210 0 172 6 172 48 c 0
 172 89 206 96 238 96 c 2
 314 96 l 1
 314 443 l 1
 238 443 l 2
 210 443 172 449 172 491 c 0
 172 532 206 539 238 539 c 2
 339 539 l 2
 394 539 410 529 410 472 c 2
240 773 m 2
 422 668 l 2
 436 660 441 647 441 634 c 0
 441 610 422 583 397 583 c 0
 391 583 385 585 379 588 c 2
 188 682 l 2
 174 689 168 701 167 714 c 0
 165 743 191 778 220 778 c 0
 227 778 235 776 240 773 c 2
EndSplineSet
EndChar

StartChar: ntilde
Encoding: 241 241 210
Width: 720
Flags: MW
HStem: 0 21G<152.5 193.5 528.5 569.5> 443 96<388 393 393 425> 702 20G<467 467> 752 20G<208 222.5> 762 20G<509.5 531.5>
VStem: 125 96<66 345 456 458 458 468 468 469> 495 95
LayerCount: 2
Fore
SplineSet
363 434 m 2xee
 221 345 l 1
 221 66 l 2
 221 33 214 0 173 0 c 0
 132 0 125 33 125 66 c 2
 125 468 l 2
 125 503 129 539 173 539 c 0
 216 539 221 503 221 469 c 2
 221 458 l 1
 221 456 l 1
 299 507 l 2
 324 523 351 539 382 539 c 2
 453 539 l 2
 490 539 513 529 542 504 c 0
 585 467 583 426 585 374 c 2
 595 72 l 2
 596 38 591 0 548 0 c 0
 509 0 501 33 500 65 c 2
 490 361 l 2
 488 420 483 443 425 443 c 2
 393 443 l 2
 383 443 373 440 363 434 c 2xee
242 769 m 2xf6
 467 722 l 1
 475 744 l 2
 485 772 500 782 519 782 c 0
 544 782 569 766 569 738 c 0
 569 732 568 724 566 717 c 2xee
 549 661 l 2
 540 634 523 622 501 622 c 0
 494 622 483 624 478 625 c 2
 253 672 l 1
 245 650 l 2
 235 622 220 612 201 612 c 0
 176 612 151 628 151 656 c 0
 151 662 152 670 154 677 c 2
 171 733 l 2
 180 760 197 772 219 772 c 0
 226 772 237 770 242 769 c 2xf6
EndSplineSet
EndChar

StartChar: oacute
Encoding: 243 243 211
Width: 720
Flags: MW
HStem: 0 96<291.5 398 322 398> 443 96<307 398 322 398> 758 20G<484.5 502.5>
VStem: 125 96<179 360> 499 96<179 360>
LayerCount: 2
Fore
SplineSet
125 179 m 2
 125 360 l 2
 125 424 138 446 186 485 c 0
 233 524 255 539 322 539 c 2
 398 539 l 2
 465 539 487 524 534 485 c 0
 582 446 595 424 595 360 c 2
 595 179 l 2
 595 116 579 92 529 50 c 0
 479 8 459 0 398 0 c 2
 322 0 l 2
 261 0 241 8 191 50 c 0
 141 92 125 116 125 179 c 2
221 360 m 2
 221 179 l 2
 221 159 228 146 256 122 c 0
 277 104 292 96 322 96 c 2
 398 96 l 2
 428 96 443 104 464 122 c 0
 492 146 499 159 499 179 c 2
 499 360 l 2
 499 380 492 393 464 417 c 0
 443 435 428 443 398 443 c 2
 322 443 l 2
 292 443 277 435 256 417 c 0
 228 393 221 380 221 360 c 2
286 668 m 2
 468 773 l 2
 473 776 481 778 488 778 c 0
 517 778 543 743 541 714 c 0
 540 701 534 689 520 682 c 2
 329 588 l 2
 323 585 317 583 311 583 c 0
 286 583 267 610 267 634 c 0
 267 647 272 660 286 668 c 2
EndSplineSet
EndChar

StartChar: ocircumflex
Encoding: 244 244 212
Width: 720
Flags: MW
HStem: 0 96<291.5 398 322 398> 443 96<307 398 322 398> 676 86<314 360> 742 20G<314 314 406 406>
VStem: 125 96<179 360> 499 96<179 360>
LayerCount: 2
Fore
SplineSet
125 179 m 2xdc
 125 360 l 2
 125 424 138 446 186 485 c 0
 233 524 255 539 322 539 c 2
 398 539 l 2
 465 539 487 524 534 485 c 0
 582 446 595 424 595 360 c 2
 595 179 l 2
 595 116 579 92 529 50 c 0
 479 8 459 0 398 0 c 2
 322 0 l 2
 261 0 241 8 191 50 c 0
 141 92 125 116 125 179 c 2xdc
221 360 m 2
 221 179 l 2
 221 159 228 146 256 122 c 0
 277 104 292 96 322 96 c 2
 398 96 l 2
 428 96 443 104 464 122 c 0
 492 146 499 159 499 179 c 2
 499 360 l 2
 499 380 492 393 464 417 c 0
 443 435 428 443 398 443 c 2
 322 443 l 2
 292 443 277 435 256 417 c 0
 228 393 221 380 221 360 c 2
191 665 m 2xec
 314 762 l 2
 328 773 342 778 360 778 c 0
 378 778 392 773 406 762 c 2
 529 665 l 2
 542 655 548 642 548 630 c 0
 548 606 527 585 502 585 c 0
 493 585 483 589 474 595 c 2
 360 676 l 1
 246 595 l 2
 237 589 227 585 218 585 c 0
 193 585 172 606 172 630 c 0
 172 642 178 655 191 665 c 2xec
EndSplineSet
EndChar

StartChar: odieresis
Encoding: 246 246 213
Width: 720
Flags: MW
HStem: 0 96<291.5 398 322 398> 443 96<307 398 322 398> 593 185<211 247 211 247.5 466 502> 758 20G<211 247 466 502>
VStem: 125 96<179 360> 179 100<654 716 639 733> 434 100<654 716 639 733> 499 96<179 360>
LayerCount: 2
Fore
SplineSet
125 179 m 2xd9
 125 360 l 2
 125 424 138 446 186 485 c 0
 233 524 255 539 322 539 c 2
 398 539 l 2
 465 539 487 524 534 485 c 0
 582 446 595 424 595 360 c 2
 595 179 l 2
 595 116 579 92 529 50 c 0
 479 8 459 0 398 0 c 2
 322 0 l 2
 261 0 241 8 191 50 c 0
 141 92 125 116 125 179 c 2xd9
221 360 m 2
 221 179 l 2
 221 159 228 146 256 122 c 0
 277 104 292 96 322 96 c 2
 398 96 l 2
 428 96 443 104 464 122 c 0
 492 146 499 159 499 179 c 2
 499 360 l 2
 499 380 492 393 464 417 c 0
 443 435 428 443 398 443 c 2
 322 443 l 2
 292 443 277 435 256 417 c 0
 228 393 221 380 221 360 c 2
279 716 m 2xd5
 279 654 l 2
 279 624 266 593 229 593 c 0
 192 593 179 624 179 654 c 2xe6
 179 716 l 2
 179 750 193 778 229 778 c 0
 265 778 279 750 279 716 c 2xd5
534 716 m 2
 534 654 l 2
 534 624 521 593 484 593 c 0
 447 593 434 624 434 654 c 2
 434 716 l 2
 434 750 448 778 484 778 c 0
 520 778 534 750 534 716 c 2
EndSplineSet
EndChar

StartChar: ograve
Encoding: 242 242 214
Width: 720
Flags: MW
HStem: 0 96<291.5 398 322 398> 443 96<307 398 322 398> 758 20G<217.5 235.5>
VStem: 125 96<179 360> 499 96<179 360>
LayerCount: 2
Fore
SplineSet
125 179 m 2
 125 360 l 2
 125 424 138 446 186 485 c 0
 233 524 255 539 322 539 c 2
 398 539 l 2
 465 539 487 524 534 485 c 0
 582 446 595 424 595 360 c 2
 595 179 l 2
 595 116 579 92 529 50 c 0
 479 8 459 0 398 0 c 2
 322 0 l 2
 261 0 241 8 191 50 c 0
 141 92 125 116 125 179 c 2
221 360 m 2
 221 179 l 2
 221 159 228 146 256 122 c 0
 277 104 292 96 322 96 c 2
 398 96 l 2
 428 96 443 104 464 122 c 0
 492 146 499 159 499 179 c 2
 499 360 l 2
 499 380 492 393 464 417 c 0
 443 435 428 443 398 443 c 2
 322 443 l 2
 292 443 277 435 256 417 c 0
 228 393 221 380 221 360 c 2
252 773 m 2
 434 668 l 2
 448 660 453 647 453 634 c 0
 453 610 434 583 409 583 c 0
 403 583 397 585 391 588 c 2
 200 682 l 2
 186 689 180 701 179 714 c 0
 177 743 203 778 232 778 c 0
 239 778 247 776 252 773 c 2
EndSplineSet
EndChar

StartChar: otilde
Encoding: 245 245 215
Width: 720
Flags: MW
HStem: 0 96<291.5 398 322 398> 443 96<307 398 322 398> 702 20G<467 467> 752 20G<208 222.5> 762 20G<509.5 531.5>
VStem: 125 96<179 360> 499 96<179 360>
LayerCount: 2
Fore
SplineSet
125 179 m 2xee
 125 360 l 2
 125 424 138 446 186 485 c 0
 233 524 255 539 322 539 c 2
 398 539 l 2
 465 539 487 524 534 485 c 0
 582 446 595 424 595 360 c 2
 595 179 l 2
 595 116 579 92 529 50 c 0
 479 8 459 0 398 0 c 2
 322 0 l 2
 261 0 241 8 191 50 c 0
 141 92 125 116 125 179 c 2xee
221 360 m 2
 221 179 l 2
 221 159 228 146 256 122 c 0
 277 104 292 96 322 96 c 2
 398 96 l 2
 428 96 443 104 464 122 c 0
 492 146 499 159 499 179 c 2
 499 360 l 2
 499 380 492 393 464 417 c 0
 443 435 428 443 398 443 c 2
 322 443 l 2
 292 443 277 435 256 417 c 0
 228 393 221 380 221 360 c 2
242 769 m 2xf6
 467 722 l 1
 475 744 l 2
 485 772 500 782 519 782 c 0
 544 782 569 766 569 738 c 0
 569 732 568 724 566 717 c 2xee
 549 661 l 2
 540 634 523 622 501 622 c 0
 494 622 483 624 478 625 c 2
 253 672 l 1
 245 650 l 2
 235 622 220 612 201 612 c 0
 176 612 151 628 151 656 c 0
 151 662 152 670 154 677 c 2
 171 733 l 2
 180 760 197 772 219 772 c 0
 226 772 237 770 242 769 c 2xf6
EndSplineSet
EndChar

StartChar: scaron
Encoding: 353 353 216
Width: 720
Flags: MW
HStem: 0 96<264 419 289 419 419 436 289 437> 443 96<279 289 289 435> 601 86<314 360 360 406> 667 20G<360 360> 758 20G<205.5 222.5 497.5 514.5>
VStem: 139 96<408 431.5 408 455> 499 96<121 160.5>
LayerCount: 2
Fore
SplineSet
435 443 m 2xde
 289 443 l 2
 269 443 235 447 235 416 c 0
 235 400 247 394 261 388 c 2
 501 279 l 2
 563 251 595 212 595 143 c 0
 595 46 529 0 437 0 c 2
 289 0 l 2
 239 0 205 2 169 30 c 0
 151 44 125 62 125 86 c 0
 125 113 148 134 175 134 c 0
 190 134 201 129 212 117 c 0
 229 98 259 96 289 96 c 2
 419 96 l 2
 453 96 499 93 499 149 c 0
 499 172 471 187 449 197 c 2
 223 300 l 2
 170 324 139 355 139 417 c 0
 139 493 199 539 271 539 c 2
 435 539 l 2
 488 539 510 536 546 506 c 0
 564 491 584 479 584 452 c 0
 584 425 561 404 535 404 c 0
 517 404 506 411 494 424 c 0
 478 441 461 443 435 443 c 2xde
360 687 m 1
 474 768 l 2
 483 774 493 778 502 778 c 0
 527 778 548 757 548 733 c 0
 548 721 542 708 529 698 c 2
 406 601 l 2
 392 590 378 585 360 585 c 0
 342 585 328 590 314 601 c 2
 191 698 l 2xee
 178 708 172 721 172 733 c 0
 172 757 193 778 218 778 c 0
 227 778 237 774 246 768 c 2
 360 687 l 1
EndSplineSet
EndChar

StartChar: uacute
Encoding: 250 250 217
Width: 720
Flags: MW
HStem: 0 96<254.5 328 296 328 328 333.5 296 339> 519 20G<151 193.5 526.5 567.5> 758 20G<484.5 502.5>
VStem: 130 95 499 96<194 473>
LayerCount: 2
Fore
SplineSet
595 473 m 2
 595 71 l 2
 595 49 599 0 548 0 c 0
 507 0 500 34 500 67 c 2
 500 83 l 1
 422 32 l 2
 391 12 365 0 339 0 c 2
 268 0 l 2
 241 0 211 8 179 35 c 0
 136 72 137 113 135 165 c 2
 125 467 l 2
 124 502 129 539 173 539 c 0
 214 539 219 504 220 473 c 2
 230 178 l 2
 231 156 232 130 240 116 c 0
 248 102 273 96 296 96 c 2
 328 96 l 2
 339 96 349 99 358 105 c 2
 499 194 l 1
 499 473 l 2
 499 506 506 539 547 539 c 0
 588 539 595 506 595 473 c 2
286 668 m 2
 468 773 l 2
 473 776 481 778 488 778 c 0
 517 778 543 743 541 714 c 0
 540 701 534 689 520 682 c 2
 329 588 l 2
 323 585 317 583 311 583 c 0
 286 583 267 610 267 634 c 0
 267 647 272 660 286 668 c 2
EndSplineSet
EndChar

StartChar: ucircumflex
Encoding: 251 251 218
Width: 720
Flags: MW
HStem: 0 96<254.5 328 296 328 328 333.5 296 339> 519 20G<151 193.5 526.5 567.5> 676 86<314 360> 742 20G<314 314 406 406>
VStem: 130 95 499 96<194 473>
LayerCount: 2
Fore
SplineSet
595 473 m 2xdc
 595 71 l 2
 595 49 599 0 548 0 c 0
 507 0 500 34 500 67 c 2
 500 83 l 1
 422 32 l 2
 391 12 365 0 339 0 c 2
 268 0 l 2
 241 0 211 8 179 35 c 0
 136 72 137 113 135 165 c 2
 125 467 l 2
 124 502 129 539 173 539 c 0
 214 539 219 504 220 473 c 2
 230 178 l 2
 231 156 232 130 240 116 c 0
 248 102 273 96 296 96 c 2
 328 96 l 2
 339 96 349 99 358 105 c 2
 499 194 l 1
 499 473 l 2
 499 506 506 539 547 539 c 0
 588 539 595 506 595 473 c 2xdc
191 665 m 2xec
 314 762 l 2
 328 773 342 778 360 778 c 0
 378 778 392 773 406 762 c 2
 529 665 l 2
 542 655 548 642 548 630 c 0
 548 606 527 585 502 585 c 0
 493 585 483 589 474 595 c 2
 360 676 l 1
 246 595 l 2
 237 589 227 585 218 585 c 0
 193 585 172 606 172 630 c 0
 172 642 178 655 191 665 c 2xec
EndSplineSet
EndChar

StartChar: udieresis
Encoding: 252 252 219
Width: 720
Flags: MW
HStem: 0 96<254.5 328 296 328 328 333.5 296 339> 519 20G<151 193.5 526.5 567.5> 593 185<211 247 211 247.5 466 502> 758 20G<211 247 466 502>
VStem: 130 95 179 100<654 716 639 733> 434 100<654 716 639 733> 499 96<194 473>
LayerCount: 2
Fore
SplineSet
595 473 m 2xd9
 595 71 l 2
 595 49 599 0 548 0 c 0
 507 0 500 34 500 67 c 2
 500 83 l 1
 422 32 l 2
 391 12 365 0 339 0 c 2
 268 0 l 2
 241 0 211 8 179 35 c 0
 136 72 137 113 135 165 c 2
 125 467 l 2
 124 502 129 539 173 539 c 0
 214 539 219 504 220 473 c 2
 230 178 l 2
 231 156 232 130 240 116 c 0
 248 102 273 96 296 96 c 2
 328 96 l 2
 339 96 349 99 358 105 c 2
 499 194 l 1
 499 473 l 2
 499 506 506 539 547 539 c 0
 588 539 595 506 595 473 c 2xd9
279 716 m 2xd5
 279 654 l 2
 279 624 266 593 229 593 c 0
 192 593 179 624 179 654 c 2xe6
 179 716 l 2
 179 750 193 778 229 778 c 0
 265 778 279 750 279 716 c 2xd5
534 716 m 2
 534 654 l 2
 534 624 521 593 484 593 c 0
 447 593 434 624 434 654 c 2
 434 716 l 2
 434 750 448 778 484 778 c 0
 520 778 534 750 534 716 c 2
EndSplineSet
EndChar

StartChar: ugrave
Encoding: 249 249 220
Width: 720
Flags: MW
HStem: 0 96<254.5 328 296 328 328 333.5 296 339> 519 20G<151 193.5 526.5 567.5> 758 20G<217.5 235.5>
VStem: 130 95 499 96<194 473>
LayerCount: 2
Fore
SplineSet
595 473 m 2
 595 71 l 2
 595 49 599 0 548 0 c 0
 507 0 500 34 500 67 c 2
 500 83 l 1
 422 32 l 2
 391 12 365 0 339 0 c 2
 268 0 l 2
 241 0 211 8 179 35 c 0
 136 72 137 113 135 165 c 2
 125 467 l 2
 124 502 129 539 173 539 c 0
 214 539 219 504 220 473 c 2
 230 178 l 2
 231 156 232 130 240 116 c 0
 248 102 273 96 296 96 c 2
 328 96 l 2
 339 96 349 99 358 105 c 2
 499 194 l 1
 499 473 l 2
 499 506 506 539 547 539 c 0
 588 539 595 506 595 473 c 2
252 773 m 2
 434 668 l 2
 448 660 453 647 453 634 c 0
 453 610 434 583 409 583 c 0
 403 583 397 585 391 588 c 2
 200 682 l 2
 186 689 180 701 179 714 c 0
 177 743 203 778 232 778 c 0
 239 778 247 776 252 773 c 2
EndSplineSet
EndChar

StartChar: yacute
Encoding: 253 253 221
Width: 720
Flags: MW
HStem: -204 96<177 257 191 257 191 265> 39 96<303 371 323 371> 519 20G<152.5 193.5 526.5 567.5> 758 20G<484.5 502.5>
VStem: 125 96<430 473 418 489.5> 499 96<422 434 434 473 422 489.5>
LayerCount: 2
Fore
SplineSet
371 135 m 1
 499 418 l 1
 499 473 l 2
 499 506 506 539 547 539 c 0
 588 539 595 506 595 473 c 2
 595 434 l 2
 595 410 593 394 583 373 c 2
 341 -154 l 2
 320 -199 309 -204 265 -204 c 2
 191 -204 l 2
 163 -204 125 -198 125 -156 c 0
 125 -115 159 -108 191 -108 c 2
 257 -108 l 1
 328 39 l 1
 323 39 l 2
 283 39 281 57 266 90 c 2
 148 351 l 2
 135 380 125 402 125 430 c 2
 125 473 l 2
 125 506 132 539 173 539 c 0
 214 539 221 506 221 473 c 2
 221 418 l 1
 350 135 l 1
 371 135 l 1
286 668 m 2
 468 773 l 2
 473 776 481 778 488 778 c 0
 517 778 543 743 541 714 c 0
 540 701 534 689 520 682 c 2
 329 588 l 2
 323 585 317 583 311 583 c 0
 286 583 267 610 267 634 c 0
 267 647 272 660 286 668 c 2
EndSplineSet
EndChar

StartChar: ydieresis
Encoding: 255 255 222
Width: 720
Flags: MW
HStem: -204 96<177 257 191 257 191 265> 39 96<303 371 323 371> 519 20G<152.5 193.5 526.5 567.5> 593 185<211 247 211 247.5 466 502> 758 20G<211 247 466 502>
VStem: 125 96<430 473 418 489.5> 179 100<654 716 639 733> 434 100<654 716 639 733> 499 96<422 434 434 473 422 489.5>
LayerCount: 2
Fore
SplineSet
371 135 m 1xec80
 499 418 l 1
 499 473 l 2
 499 506 506 539 547 539 c 0
 588 539 595 506 595 473 c 2
 595 434 l 2
 595 410 593 394 583 373 c 2
 341 -154 l 2
 320 -199 309 -204 265 -204 c 2
 191 -204 l 2
 163 -204 125 -198 125 -156 c 0
 125 -115 159 -108 191 -108 c 2
 257 -108 l 1
 328 39 l 1
 323 39 l 2
 283 39 281 57 266 90 c 2
 148 351 l 2
 135 380 125 402 125 430 c 2
 125 473 l 2
 125 506 132 539 173 539 c 0
 214 539 221 506 221 473 c 2
 221 418 l 1
 350 135 l 1
 371 135 l 1xec80
279 716 m 2xea80
 279 654 l 2
 279 624 266 593 229 593 c 0
 192 593 179 624 179 654 c 2xf3
 179 716 l 2
 179 750 193 778 229 778 c 0
 265 778 279 750 279 716 c 2xea80
534 716 m 2
 534 654 l 2
 534 624 521 593 484 593 c 0
 447 593 434 624 434 654 c 2
 434 716 l 2
 434 750 448 778 484 778 c 0
 520 778 534 750 534 716 c 2
EndSplineSet
EndChar

StartChar: zcaron
Encoding: 382 382 223
Width: 720
Flags: MW
HStem: 0 96<162.5 529 245 529 245 529> 443 96<204 530 218 474> 601 86<314 360 360 406> 667 20G<360 360> 758 20G<205.5 222.5 497.5 514.5>
VStem: 125 470<56 68.5 27 81 27 92.5>
LayerCount: 2
Fore
SplineSet
143 127 m 2xdc
 474 443 l 1
 218 443 l 2
 190 443 152 449 152 491 c 0
 152 532 186 539 218 539 c 2
 530 539 l 2
 579 539 595 523 595 489 c 2
 595 457 l 2
 595 438 589 424 567 403 c 2
 245 96 l 1
 529 96 l 2
 561 96 595 89 595 48 c 0
 595 6 557 0 529 0 c 2
 196 0 l 2
 129 0 125 28 125 56 c 2
 125 81 l 2
 125 104 126 111 143 127 c 2xdc
360 687 m 1
 474 768 l 2
 483 774 493 778 502 778 c 0
 527 778 548 757 548 733 c 0
 548 721 542 708 529 698 c 2
 406 601 l 2
 392 590 378 585 360 585 c 0
 342 585 328 590 314 601 c 2
 191 698 l 2xec
 178 708 172 721 172 733 c 0
 172 757 193 778 218 778 c 0
 227 778 237 774 246 768 c 2
 360 687 l 1
EndSplineSet
EndChar

StartChar: Euro
Encoding: 8364 8364 224
Width: 720
Flags: MW
HStem: 0 100<359.5 531 409 531 409 531> 246 100<121.5 428 142 428 284 428 284 284> 428 100<282 470 142 234> 678 100<402 405 405 531>
VStem: 132 96
LayerCount: 2
Fore
SplineSet
282 528 m 1
 470 528 l 2
 511 528 530 514 530 478 c 0
 530 443 511 428 470 428 c 2
 234 428 l 1
 226 398 226 376 235 346 c 1
 428 346 l 2
 469 346 488 332 488 296 c 0
 488 261 469 246 428 246 c 2
 284 246 l 1
 334 144 l 2
 354 103 364 100 409 100 c 2
 531 100 l 2
 553 100 581 88 581 50 c 0
 581 14 554 0 531 0 c 2
 397 0 l 2
 322 0 279 30 247 95 c 2
 172 246 l 1
 142 246 l 2
 101 246 82 261 82 296 c 0
 82 327 99 343 133 345 c 1
 126 380 126 392 132 428 c 1
 98 431 82 446 82 478 c 0
 82 512 101 528 142 528 c 2
 171 528 l 1
 248 682 l 2
 282 751 325 778 402 778 c 2
 531 778 l 2
 553 778 581 766 581 728 c 0
 581 692 554 678 531 678 c 2
 405 678 l 2
 362 678 355 674 336 636 c 2
 282 528 l 1
EndSplineSet
EndChar

StartChar: estimated
Encoding: 8494 8494 225
Width: 720
Flags: MW
HStem: 0 19<317 406.5 317 417> 314 18<135.5 583 137 583 583 584.5 137 720> 627 20<317.5 402.5>
VStem: 0 132<234.5 311 336.5 338 338 413.5> 587 133<314 515>
LayerCount: 2
Fore
SplineSet
720 314 m 1
 137 314 l 2
 134 314 132 314 132 311 c 2
 132 135 l 2
 132 127 135 121 140 115 c 0
 196 56 274 19 360 19 c 0
 453 19 536 61 592 126 c 1
 644 126 l 1
 580 50 475 0 359 0 c 0
 161 0 0 145 0 324 c 0
 0 503 161 647 359 647 c 0
 558 647 720 503 720 324 c 2
 720 314 l 1
587 338 m 2
 587 515 l 2
 587 522 584 530 578 536 c 0
 522 592 445 627 360 627 c 0
 275 627 197 591 141 533 c 0
 136 527 132 519 132 511 c 2
 132 338 l 2
 132 335 134 332 137 332 c 2
 583 332 l 2
 586 332 587 335 587 338 c 2
EndSplineSet
EndChar

StartChar: lozenge
Encoding: 9674 9674 226
Width: 720
Flags: MW
HStem: 0 21G<345 375> 758 20G<345 375>
VStem: 155 95<332 364 364 446> 470 95<332 364 332 414>
LayerCount: 2
Fore
SplineSet
364 134 m 1
 470 364 l 2
 474 373 476 380 476 389 c 0
 476 398 474 405 470 414 c 2
 364 644 l 1
 356 644 l 1
 250 414 l 2
 246 405 244 398 244 389 c 0
 244 380 246 373 250 364 c 2
 356 134 l 1
 364 134 l 1
360 0 m 0
 330 0 305 15 279 70 c 2
 155 332 l 2
 147 349 142 368 142 389 c 0
 142 410 147 429 155 446 c 2
 279 708 l 2
 305 763 330 778 360 778 c 0
 390 778 415 763 441 708 c 2
 565 446 l 2
 573 429 578 410 578 389 c 0
 578 368 573 349 565 332 c 2
 441 70 l 2
 415 15 390 0 360 0 c 0
EndSplineSet
EndChar

StartChar: afii61289
Encoding: 8467 8467 227
Width: 720
Flags: MW
HStem: 0 100<277 392 341 390> 682 96<337 337 337 410>
VStem: 241 96<404 682 404 713 404 733.5> 410 96<491 508 508 682 682 682>
LayerCount: 2
Fore
SplineSet
578 150 m 2
 475 41 l 2
 453 18 421 0 390 0 c 2
 291 0 l 2
 263 0 241 18 241 49 c 2
 241 154 l 1
 235 151 228 149 220 149 c 0
 197 149 178 170 178 196 c 0
 178 213 184 225 214 261 c 2
 241 293 l 1
 241 713 l 2
 241 754 263 778 310 778 c 2
 439 778 l 2
 480 778 506 755 506 714 c 2
 506 508 l 2
 506 469 494 444 472 418 c 2
 341 266 l 1
 341 100 l 1
 392 100 l 1
 508 221 l 2
 518 231 529 235 541 235 c 0
 568 235 594 212 594 185 c 0
 594 174 589 162 578 150 c 2
337 682 m 1
 337 404 l 1
 410 491 l 1
 410 682 l 1
 337 682 l 1
EndSplineSet
EndChar

StartChar: Omega
Encoding: 8486 8486 228
Width: 720
Flags: MW
HStem: 0 100<108.5 220 123 220 123 245 500 597> 678 100<352.5 367.5>
VStem: 113 100<372 401.5 372 408> 507 100<372 401.5>
LayerCount: 2
Fore
SplineSet
500 100 m 1
 597 100 l 2
 626 100 640 74 640 49 c 0
 640 24 626 0 597 0 c 2
 475 0 l 2
 405 0 373 60 406 134 c 2
 489 317 l 2
 500 342 507 358 507 386 c 0
 507 417 499 435 486 462 c 2
 394 648 l 2
 381 675 375 678 360 678 c 0
 345 678 339 675 326 648 c 2
 234 462 l 2
 221 435 213 417 213 386 c 0
 213 358 220 342 231 317 c 2
 314 134 l 2
 347 60 315 0 245 0 c 2
 123 0 l 2
 94 0 80 24 80 49 c 0
 80 74 94 100 123 100 c 2
 220 100 l 1
 139 281 l 2
 123 316 113 347 113 386 c 0
 113 430 121 457 141 497 c 2
 239 694 l 2
 266 748 308 778 360 778 c 0
 412 778 454 748 481 694 c 2
 579 497 l 2
 599 457 607 430 607 386 c 0
 607 347 597 316 581 281 c 2
 500 100 l 1
EndSplineSet
EndChar

StartChar: partialdiff
Encoding: 8706 8706 229
Width: 720
Flags: MW
HStem: 0 21G<296.5 318> 758 20G<275 299>
VStem: 154 447<189.5 335>
LayerCount: 2
Fore
SplineSet
391 494 m 1
 251 703 l 2
 225 742 258 778 292 778 c 0
 306 778 321 771 331 756 c 2
 573 395 l 2
 592 367 601 345 601 325 c 0
 601 300 588 277 563 249 c 2
 370 32 l 2
 352 12 329 0 307 0 c 0
 286 0 266 10 251 32 c 2
 171 147 l 2
 160 163 154 181 154 198 c 0
 154 219 163 241 182 262 c 2
 391 494 l 1
447 413 m 1
 253 196 l 1
 311 110 l 1
 504 326 l 1
 447 413 l 1
EndSplineSet
EndChar

StartChar: Delta
Encoding: 8710 8710 230
Width: 720
Flags: MW
HStem: 0 100<147 486 233 486 233 557> 758 20G<344 376.5>
VStem: 112 494
LayerCount: 2
Fore
SplineSet
557 0 m 2
 161 0 l 2
 133 0 106 26 113 50 c 2
 309 727 l 2
 317 754 328 778 360 778 c 0
 393 778 405 753 412 727 c 2
 605 50 l 2
 612 26 585 0 557 0 c 2
486 100 m 1
 361 541 l 1
 359 541 l 1
 233 100 l 1
 486 100 l 1
EndSplineSet
EndChar

StartChar: product
Encoding: 8719 8719 231
Width: 720
Flags: MW
HStem: 678 100<125 582 138 184 284 436 284 284 536 582 536 536>
VStem: 184 100<-67 678> 436 100<-67 678>
LayerCount: 2
Fore
SplineSet
536 678 m 1
 536 -67 l 2
 536 -99 522 -117 486 -117 c 0
 450 -117 436 -99 436 -67 c 2
 436 678 l 1
 284 678 l 1
 284 -67 l 2
 284 -99 270 -117 234 -117 c 0
 198 -117 184 -99 184 -67 c 2
 184 678 l 1
 138 678 l 2
 112 678 88 692 88 728 c 0
 88 764 112 778 138 778 c 2
 582 778 l 2
 608 778 632 764 632 728 c 0
 632 692 608 678 582 678 c 2
 536 678 l 1
EndSplineSet
EndChar

StartChar: summation
Encoding: 8721 8721 232
Width: 720
Flags: MW
HStem: -117 100<231 514 292 514 292 514> 678 100<292 514 292 292>
VStem: 174 390<710 726>
LayerCount: 2
Fore
SplineSet
382 344 m 1
 191 653 l 2
 180 671 174 689 174 706 c 0
 174 746 203 778 257 778 c 2
 514 778 l 2
 536 778 564 766 564 728 c 0
 564 692 537 678 514 678 c 2
 292 678 l 1
 465 401 l 2
 494 355 491 334 467 292 c 2
 292 -17 l 1
 514 -17 l 2
 537 -17 564 -31 564 -67 c 0
 564 -105 536 -117 514 -117 c 2
 257 -117 l 2
 205 -117 176 -84 176 -44 c 0
 176 -29 180 -13 189 2 c 2
 382 344 l 1
EndSplineSet
EndChar

StartChar: radical
Encoding: 8730 8730 233
Width: 720
Flags: MW
HStem: -118 103<379 386 379 410> 758 20G<555.5 579.5>
VStem: 67 549<231 727>
LayerCount: 2
Fore
SplineSet
92 283 m 2
 181 314 l 2
 193 318 205 320 215 320 c 0
 250 320 281 297 292 267 c 2
 379 -15 l 1
 386 -15 l 1
 521 744 l 2
 525 767 545 778 566 778 c 0
 593 778 620 758 616 727 c 2
 475 -55 l 2
 467 -91 434 -118 386 -118 c 0
 337 -118 305 -102 292 -55 c 2
 204 220 l 1
 127 194 l 2
 92 183 67 216 67 246 c 0
 67 260 78 277 92 283 c 2
EndSplineSet
EndChar

StartChar: infinity
Encoding: 8734 8734 234
Width: 720
Flags: MW
HStem: 222 94<135.5 244 180 234 476 486 486 540> 462 94<180 234 234 244 180 180 486 540>
VStem: 84 96<316 462 316 487 316 507> 540 96<316 462 462 462>
LayerCount: 2
Fore
SplineSet
415 389 m 1
 476 316 l 1
 540 316 l 1
 540 462 l 1
 476 462 l 1
 415 389 l 1
244 316 m 1
 305 389 l 1
 244 462 l 1
 180 462 l 1
 180 316 l 1
 244 316 l 1
360 464 m 1
 406 520 l 2
 425 543 452 556 486 556 c 2
 563 556 l 2
 606 556 636 527 636 487 c 2
 636 291 l 2
 636 251 606 222 563 222 c 2
 486 222 l 2
 452 222 425 235 406 258 c 2
 360 314 l 1
 314 258 l 2
 295 235 268 222 234 222 c 2
 157 222 l 2
 114 222 84 251 84 291 c 2
 84 487 l 2
 84 527 114 556 157 556 c 2
 234 556 l 2
 268 556 295 543 314 520 c 2
 360 464 l 1
EndSplineSet
EndChar

StartChar: integral
Encoding: 8747 8747 235
Width: 720
Flags: MW
HStem: -204 100<245 300 261 300 300 313.5 261 319> 678 100<394.5 408 408 447>
VStem: 273 100<507 507 507 644> 335 100<-70 67 67 67>
LayerCount: 2
Fore
SplineSet
373 507 m 1xe0
 435 76 l 1
 435 -79 l 2
 435 -158 394 -204 319 -204 c 2
 261 -204 l 2
 229 -204 213 -179 213 -154 c 0
 213 -129 229 -104 261 -104 c 2
 300 -104 l 2
 327 -104 335 -87 335 -70 c 2
 335 67 l 1xd0
 273 498 l 1
 273 653 l 2
 273 732 314 778 389 778 c 2
 447 778 l 2
 479 778 495 753 495 728 c 0
 495 703 479 678 447 678 c 2
 408 678 l 2
 381 678 373 661 373 644 c 2
 373 507 l 1xe0
EndSplineSet
EndChar

StartChar: approxequal
Encoding: 8776 8776 236
Width: 720
Flags: MW
HStem: 536 20G<133.5 151.5> 581 20G<442 460.5>
VStem: 99 522<281.5 303.5 493.5 515.5>
LayerCount: 2
Fore
SplineSet
448 504 m 1
 327 427 l 2
 306 414 287 408 269 408 c 0
 250 408 232 414 216 421 c 2
 128 460 l 2
 108 469 99 485 99 502 c 0
 99 529 119 556 148 556 c 0
 155 556 162 555 169 552 c 2
 272 505 l 1
 393 582 l 2
 413 596 433 601 451 601 c 0
 470 601 488 596 504 588 c 2
 592 549 l 2
 612 540 621 524 621 507 c 0
 621 480 601 453 572 453 c 0
 565 453 558 454 551 457 c 2
 448 504 l 1
448 292 m 1
 327 215 l 2
 306 202 287 196 269 196 c 0
 250 196 232 202 216 209 c 2
 128 248 l 2
 108 257 99 273 99 290 c 0
 99 317 119 344 148 344 c 0
 155 344 162 343 169 340 c 2
 272 293 l 1
 393 370 l 2
 413 384 433 389 451 389 c 0
 470 389 488 384 504 376 c 2
 592 337 l 2
 612 328 621 312 621 295 c 0
 621 268 601 241 572 241 c 0
 565 241 558 242 551 245 c 2
 448 292 l 1
EndSplineSet
EndChar

StartChar: notequal
Encoding: 8800 8800 237
Width: 720
Flags: MW
HStem: 253 100<150 273 163 219 382 557 163 328> 465 100<150 386 163 333 496 557 163 442> 677 20G<478.5 499.5>
VStem: 113 494<285 321 497 533>
LayerCount: 2
Fore
SplineSet
557 465 m 2
 442 465 l 1
 382 353 l 1
 557 353 l 2
 583 353 607 339 607 303 c 0
 607 267 583 253 557 253 c 2
 328 253 l 1
 273 151 l 2
 261 129 243 119 226 119 c 0
 201 119 179 138 179 165 c 0
 179 174 181 184 187 194 c 2
 219 253 l 1
 163 253 l 2
 137 253 113 267 113 303 c 0
 113 339 137 353 163 353 c 2
 273 353 l 1
 333 465 l 1
 163 465 l 2
 137 465 113 479 113 515 c 0
 113 551 137 565 163 565 c 2
 386 565 l 1
 441 666 l 2
 453 688 470 697 487 697 c 0
 512 697 535 678 535 651 c 0
 535 642 532 633 527 623 c 2
 496 565 l 1
 557 565 l 2
 583 565 607 551 607 515 c 0
 607 479 583 465 557 465 c 2
EndSplineSet
EndChar

StartChar: lessequal
Encoding: 8804 8804 238
Width: 720
Flags: MW
HStem: 0 100<120.5 576 141 576> 660 20G<574.5 595>
VStem: 88 544<38 62 38 448.5>
LayerCount: 2
Fore
SplineSet
141 100 m 2
 576 100 l 2
 619 100 632 74 632 50 c 0
 632 26 619 0 576 0 c 2
 141 0 l 2
 100 0 88 26 88 50 c 0
 88 74 100 100 141 100 c 2
588 574 m 2
 274 438 l 1
 274 432 l 1
 588 296 l 2
 612 285 632 269 632 244 c 0
 632 213 610 190 580 190 c 0
 569 190 557 193 546 198 c 2
 133 383 l 2
 104 396 88 408 88 435 c 0
 88 462 104 474 133 487 c 2
 546 672 l 2
 557 677 569 680 580 680 c 0
 610 680 632 657 632 626 c 0
 632 601 612 585 588 574 c 2
EndSplineSet
EndChar

StartChar: greaterequal
Encoding: 8805 8805 239
Width: 720
Flags: MW
HStem: 0 100<122.5 579 144 579> 660 20G<125 145.5>
VStem: 88 544<38 62 38 256.5>
LayerCount: 2
Fore
SplineSet
144 100 m 2
 579 100 l 2
 620 100 632 74 632 50 c 0
 632 26 620 0 579 0 c 2
 144 0 l 2
 101 0 88 26 88 50 c 0
 88 74 101 100 144 100 c 2
446 438 m 1
 132 574 l 2
 108 585 88 601 88 626 c 0
 88 657 110 680 140 680 c 0
 151 680 163 677 174 672 c 2
 587 487 l 2
 616 474 632 462 632 435 c 0
 632 408 616 396 587 383 c 2
 174 198 l 2
 163 193 151 190 140 190 c 0
 110 190 88 213 88 244 c 0
 88 269 108 285 132 296 c 2
 446 432 l 1
 446 438 l 1
EndSplineSet
EndChar

StartChar: pi
Encoding: 960 960 240
Width: 720
Flags: MW
HStem: 0 21G<173.5 198.5 468 504> 443 96<120 587 133 192 288 288 288 438 534 534 534 587>
VStem: 192 96<205 443 182 443> 438 96<50 443>
LayerCount: 2
Fore
SplineSet
192 205 m 1
 192 443 l 1
 133 443 l 2
 107 443 83 455 83 491 c 0
 83 527 107 539 133 539 c 2
 587 539 l 2
 613 539 637 527 637 491 c 0
 637 455 613 443 587 443 c 2
 534 443 l 1
 534 50 l 2
 534 18 522 0 486 0 c 0
 450 0 438 18 438 50 c 2
 438 443 l 1
 288 443 l 1
 288 182 l 1
 233 29 l 2
 226 9 208 0 189 0 c 0
 158 0 130 24 144 65 c 2
 192 205 l 1
EndSplineSet
EndChar

StartChar: f_i
Encoding: 64257 64257 241
Width: 720
Flags: MW
HStem: 0 96<418 460 432 460 556 584> 443 96<123 164 137 164 260 460> 641 96<319.5 423 358 423 423 427>
VStem: 164 96<66 443 539 552 552 558> 460 96<96 443 443 443>
LayerCount: 2
Fore
SplineSet
260 539 m 1
 485 539 l 2
 540 539 556 529 556 472 c 2
 556 96 l 1
 584 96 l 2
 616 96 650 89 650 48 c 0
 650 6 612 0 584 0 c 2
 432 0 l 2
 404 0 366 6 366 48 c 0
 366 89 400 96 432 96 c 2
 460 96 l 1
 460 443 l 1
 260 443 l 1
 260 66 l 2
 260 33 253 0 212 0 c 0
 171 0 164 33 164 66 c 2
 164 443 l 1
 137 443 l 2
 109 443 71 449 71 491 c 0
 71 532 105 539 137 539 c 2
 164 539 l 1
 164 552 l 2
 164 607 167 647 210 689 c 0
 256 733 299 737 358 737 c 2
 423 737 l 2
 456 737 493 734 493 689 c 0
 493 648 460 641 427 641 c 2
 352 641 l 2
 287 641 260 628 260 558 c 2
 260 539 l 1
EndSplineSet
EndChar

StartChar: f_l
Encoding: 64258 64258 242
Width: 720
Flags: MW
HStem: 0 96<418 460 432 460 556 584> 443 96<123 164 137 164 260 345> 641 96<319.5 485 358 460>
VStem: 164 96<66 443 539 552 552 558> 460 96<96 641 641 641>
LayerCount: 2
Fore
SplineSet
460 641 m 1
 352 641 l 2
 287 641 260 628 260 558 c 2
 260 539 l 1
 345 539 l 2
 377 539 411 532 411 491 c 0
 411 449 373 443 345 443 c 2
 260 443 l 1
 260 66 l 2
 260 33 253 0 212 0 c 0
 171 0 164 33 164 66 c 2
 164 443 l 1
 137 443 l 2
 109 443 71 449 71 491 c 0
 71 532 105 539 137 539 c 2
 164 539 l 1
 164 552 l 2
 164 607 167 647 210 689 c 0
 256 733 299 737 358 737 c 2
 485 737 l 2
 540 737 556 727 556 670 c 2
 556 96 l 1
 584 96 l 2
 616 96 650 89 650 48 c 0
 650 6 612 0 584 0 c 2
 432 0 l 2
 404 0 366 6 366 48 c 0
 366 89 400 96 432 96 c 2
 460 96 l 1
 460 641 l 1
EndSplineSet
EndChar

StartChar: one.superior
Encoding: 57348 57348 243
Width: 720
Flags: MW
HStem: 337 96<295.5 318 308 318 414 423> 682 96<265.5 414 278 318>
VStem: 318 96<433 682 682 682>
LayerCount: 2
Fore
SplineSet
423 337 m 2
 308 337 l 2
 283 337 259 349 259 385 c 0
 259 422 283 433 308 433 c 2
 318 433 l 1
 318 682 l 1
 278 682 l 2
 253 682 229 693 229 730 c 0
 229 766 253 778 278 778 c 2
 414 778 l 1
 414 433 l 1
 423 433 l 2
 448 433 472 422 472 386 c 0
 472 349 448 337 423 337 c 2
EndSplineSet
EndChar

StartChar: two.superior
Encoding: 57353 57353 244
Width: 720
Flags: MW
HStem: 337 96<322 424 322 424> 512 96<322 322 322 377 304 396> 682 96<262.5 396 275 377>
VStem: 226 96<433 512 433 530 433 555> 377 96<608 682 682 682>
LayerCount: 2
Fore
SplineSet
322 512 m 1
 322 433 l 1
 424 433 l 2
 449 433 473 422 473 385 c 0
 473 349 449 337 424 337 c 2
 226 337 l 1
 226 530 l 2
 226 580 252 608 304 608 c 2
 377 608 l 1
 377 682 l 1
 275 682 l 2
 250 682 226 693 226 730 c 0
 226 766 250 778 275 778 c 2
 396 778 l 2
 417 778 432 775 449 759 c 0
 469 742 473 722 473 698 c 2
 473 591 l 2
 473 568 471 550 450 531 c 0
 432 515 418 512 396 512 c 2
 322 512 l 1
EndSplineSet
EndChar

StartChar: three.superior
Encoding: 57352 57352 245
Width: 720
Flags: MW
HStem: 337 96<264 376 277 376 277 400> 512 96<308 376 321 376> 682 96<264 400 277 376>
VStem: 376 96<433 512 512 512 608 682 682 682>
LayerCount: 2
Fore
SplineSet
376 512 m 1
 321 512 l 2
 295 512 271 524 271 560 c 0
 271 595 295 608 321 608 c 2
 376 608 l 1
 376 682 l 1
 277 682 l 2
 251 682 227 693 227 730 c 0
 227 766 251 778 277 778 c 2
 400 778 l 2
 442 778 472 748 472 706 c 2
 472 409 l 2
 472 367 442 337 400 337 c 2
 277 337 l 2
 251 337 227 349 227 385 c 0
 227 422 251 433 277 433 c 2
 376 433 l 1
 376 512 l 1
EndSplineSet
EndChar

StartChar: comma.alt
Encoding: 57344 57344 246
Width: 720
Flags: MW
HStem: 0 21G<409.5 460.5> 208 146<247 448 273 362>
VStem: 362 146<50 208 208 208>
LayerCount: 2
Fore
SplineSet
362 208 m 1
 273 208 l 2
 221 208 212 230 212 281 c 0
 212 332 221 354 273 354 c 2
 448 354 l 2
 466 354 477 354 492 340 c 0
 508 325 508 311 508 290 c 2
 508 50 l 2
 508 12 486 0 435 0 c 0
 384 0 362 12 362 50 c 2
 362 208 l 1
EndSplineSet
EndChar

StartChar: hyphen.alt
Encoding: 57347 57347 247
Width: 720
Flags: MW
HStem: 339 100<150 557 163 557>
VStem: 113 494<371 407>
LayerCount: 2
Fore
SplineSet
557 339 m 2
 163 339 l 2
 137 339 113 353 113 389 c 0
 113 425 137 439 163 439 c 2
 557 439 l 2
 583 439 607 425 607 389 c 0
 607 353 583 339 557 339 c 2
EndSplineSet
EndChar

StartChar: period.alt
Encoding: 57349 57349 248
Width: 720
Flags: MW
HStem: 0 231<289.5 419 301 419>
VStem: 237 246<64 167 54.5 176.5>
LayerCount: 2
Fore
SplineSet
301 231 m 2
 419 231 l 2
 442 231 456 231 471 212 c 0
 483 197 483 186 483 167 c 2
 483 64 l 2
 483 45 483 34 471 19 c 0
 456 0 442 0 419 0 c 2
 301 0 l 2
 278 0 264 0 249 19 c 0
 237 34 237 45 237 64 c 2
 237 167 l 2
 237 186 237 197 249 212 c 0
 264 231 278 231 301 231 c 2
EndSplineSet
EndChar

StartChar: question.alt
Encoding: 57350 57350 249
Width: 720
Flags: MW
HStem: 0 21G<243 279> 563 20G<507 507> 662 96<417 458> 738 20G<417 417 499 499>
VStem: 211 100<50 281> 507 100<583 620 620 620>
LayerCount: 2
Fore
SplineSet
507 583 m 1xdc
 507 620 l 1
 458 662 l 1xec
 205 445 l 2
 193 435 179 425 163 425 c 0
 134 425 113 449 113 477 c 0
 113 501 136 518 152 532 c 2
 417 758 l 2
 429 769 440 778 458 778 c 0
 477 778 485 770 499 758 c 2
 581 688 l 2
 607 666 607 661 607 628 c 2
 607 573 l 2
 607 537 603 534 576 510 c 2
 311 281 l 1
 311 50 l 2
 311 18 297 0 261 0 c 0
 225 0 211 18 211 50 c 2
 211 294 l 2
 211 328 216 331 241 352 c 2
 507 583 l 1xdc
EndSplineSet
EndChar

StartChar: quoteright.alt
Encoding: 57351 57351 250
Width: 720
Flags: MW
HStem: 758 20G<341 379 379 394>
VStem: 278 164<716 746>
LayerCount: 2
Fore
SplineSet
310 514 m 2
 285 667 l 2
 282 683 278 708 278 724 c 0
 278 768 311 778 341 778 c 2
 379 778 l 2
 409 778 442 768 442 724 c 0
 442 708 438 683 435 667 c 2
 410 514 l 2
 405 482 399 455 360 455 c 0
 321 455 315 482 310 514 c 2
EndSplineSet
EndChar

StartChar: uni2440
Encoding: 9280 9280 251
Width: 720
Flags: MW
HStem: 0 100<213 310 213 410> 678 100<410 507 410 410>
VStem: 113 100<100 100 100 304> 310 100<100 678 0 778> 507 100<474 678 678 678>
LayerCount: 2
Fore
SplineSet
213 100 m 1
 310 100 l 1
 310 778 l 1
 607 778 l 1
 607 474 l 2
 607 442 593 424 557 424 c 0
 521 424 507 442 507 474 c 2
 507 678 l 1
 410 678 l 1
 410 0 l 1
 113 0 l 1
 113 304 l 2
 113 336 127 354 163 354 c 0
 199 354 213 336 213 304 c 2
 213 100 l 1
EndSplineSet
EndChar

StartChar: uni2441
Encoding: 9281 9281 252
Width: 720
Flags: MW
HStem: 0 21G<145 181 539 575> 339 100<213 507 213 213> 758 20G<539 575>
VStem: 113 100<50 339> 507 100<50 339 339 339 439 728>
LayerCount: 2
Fore
SplineSet
507 339 m 1
 213 339 l 1
 213 50 l 2
 213 18 199 0 163 0 c 0
 127 0 113 18 113 50 c 2
 113 439 l 1
 507 439 l 1
 507 728 l 2
 507 760 521 778 557 778 c 0
 593 778 607 760 607 728 c 2
 607 50 l 2
 607 18 593 0 557 0 c 0
 521 0 507 18 507 50 c 2
 507 339 l 1
EndSplineSet
EndChar

StartChar: uni2442
Encoding: 9282 9282 253
Width: 720
Flags: MW
HStem: 0 21G<342 378> 339 100<213 310 410 410 410 507 213 607> 758 20G<145 181 539 575>
VStem: 113 100<439 728 439 728 439 744> 310 100<50 339> 507 100<439 728 339 744>
LayerCount: 2
Fore
SplineSet
310 339 m 1
 113 339 l 1
 113 728 l 2
 113 760 127 778 163 778 c 0
 199 778 213 760 213 728 c 2
 213 439 l 1
 507 439 l 1
 507 728 l 2
 507 760 521 778 557 778 c 0
 593 778 607 760 607 728 c 2
 607 339 l 1
 410 339 l 1
 410 50 l 2
 410 18 396 0 360 0 c 0
 324 0 310 18 310 50 c 2
 310 339 l 1
EndSplineSet
EndChar

StartChar: erase
Encoding: 57345 57345 254
Width: 720
Flags: MW
HStem: 0 21G<113 113 113 607> 758 20G<113 607 607 607>
VStem: 113 494<0 778 0 778>
LayerCount: 2
Fore
SplineSet
113 0 m 1
 113 778 l 1
 607 778 l 1
 607 0 l 1
 113 0 l 1
EndSplineSet
EndChar

StartChar: grouperase
Encoding: 57346 57346 255
Width: 720
Flags: MW
HStem: 339 100<-720 1440 -720 1440>
VStem: -720 2160<339 439 339 439>
LayerCount: 2
Fore
SplineSet
-720 439 m 1
 1440 439 l 1
 1440 339 l 1
 -720 339 l 1
 -720 439 l 1
EndSplineSet
EndChar

StartChar: uni00AD
Encoding: 173 173 257
Width: 720
Flags: MW
HStem: 327 122<222.5 477 243 477>
VStem: 183 354<365.5 410.5>
LayerCount: 2
Fore
SplineSet
243 449 m 2
 477 449 l 2
 518 449 537 433 537 388 c 0
 537 343 518 327 477 327 c 2
 243 327 l 2
 202 327 183 343 183 388 c 0
 183 433 202 449 243 449 c 2
EndSplineSet
EndChar

StartChar: uni02C9
Encoding: 713 713 258
Width: 720
Flags: MW
HStem: 640 97<210.5 495 226 495>
VStem: 180 360<671.5 707>
LayerCount: 2
Fore
SplineSet
226 737 m 2
 495 737 l 2
 526 737 540 725 540 689 c 0
 540 654 526 640 495 640 c 2
 226 640 l 2
 195 640 180 654 180 689 c 0
 180 725 195 737 226 737 c 2
EndSplineSet
EndChar

StartChar: uni2215
Encoding: 8725 8725 259
Width: 720
Flags: MW
HStem: 691 20G<519 538.5>
VStem: 143 434
LayerCount: 2
Fore
SplineSet
569 637 m 2
 234 88 l 2
 223 70 207 62 192 62 c 0
 167 62 143 82 143 109 c 0
 143 118 146 128 152 138 c 2
 487 687 l 2
 497 704 512 711 526 711 c 0
 551 711 577 690 577 663 c 0
 577 655 574 646 569 637 c 2
EndSplineSet
EndChar

StartChar: uni2219
Encoding: 8729 8729 260
Width: 720
Flags: MW
HStem: 296 184<313 396 324 396>
VStem: 261 198<360 416 350.5 425.5>
LayerCount: 2
Fore
SplineSet
396 296 m 2
 324 296 l 2
 302 296 286 296 272 315 c 0
 261 330 261 341 261 360 c 2
 261 416 l 2
 261 435 261 446 272 461 c 0
 286 480 302 480 324 480 c 2
 396 480 l 2
 418 480 434 480 448 461 c 0
 459 446 459 435 459 416 c 2
 459 360 l 2
 459 341 459 330 448 315 c 0
 434 296 418 296 396 296 c 2
EndSplineSet
EndChar
